Work Sans-Regular.ufo
<glyph name="exclam" format="1">
  <advance width="256"/>
  <unicode hex="0021"/>
  <outline>
	<contour>
	  <point x="86" y="660" type="line"/>
	  <point x="86" y="374" type="line"/>
	  <point x="98" y="208" type="line"/>
	  <point x="158" y="208" type="line"/>
	  <point x="170" y="374" type="line"/>
	  <point x="170" y="660" type="line"/>
	</contour>
	<component base="period" xOffset="20"/>
  </outline>
</glyph>
<glyph name="numbersign" format="1">
  <advance width="600"/>
  <unicode hex="0023"/>
  <outline>
	<contour>
	  <point x="444" y="660" type="line"/>
	  <point x="304" y="0" type="line"/>
	  <point x="372" y="0" type="line"/>
	  <point x="512" y="660" type="line"/>
	</contour>
	<contour>
	  <point x="12" y="248" type="line"/>
	  <point x="12" y="187" type="line"/>
	  <point x="528" y="187" type="line"/>
	  <point x="528" y="248" type="line"/>
	</contour>
	<contour>
	  <point x="230" y="660" type="line"/>
	  <point x="90" y="0" type="line"/>
	  <point x="158" y="0" type="line"/>
	  <point x="298" y="660" type="line"/>
	</contour>
	<contour>
	  <point x="72" y="478" type="line"/>
	  <point x="72" y="417" type="line"/>
	  <point x="588" y="417" type="line"/>
	  <point x="588" y="478" type="line"/>
	</contour>
  </outline>
</glyph>
<glyph name="percent" format="1">
  <advance width="806"/>
  <unicode hex="0025"/>
  <outline>
	<contour>
	  <point x="535" y="354"/>
	  <point x="473" y="282"/>
	  <point x="473" y="172" type="curve" smooth="yes"/>
	  <point x="473" y="62"/>
	  <point x="535" y="-10"/>
	  <point x="632" y="-10" type="curve" smooth="yes"/>
	  <point x="729" y="-10"/>
	  <point x="791" y="62"/>
	  <point x="791" y="172" type="curve" smooth="yes"/>
	  <point x="791" y="282"/>
	  <point x="729" y="354"/>
	  <point x="632" y="354" type="curve" smooth="yes"/>
	</contour>
	<contour>
	  <point x="77" y="670"/>
	  <point x="15" y="598"/>
	  <point x="15" y="488" type="curve" smooth="yes"/>
	  <point x="15" y="378"/>
	  <point x="77" y="306"/>
	  <point x="174" y="306" type="curve" smooth="yes"/>
	  <point x="271" y="306"/>
	  <point x="333" y="378"/>
	  <point x="333" y="488" type="curve" smooth="yes"/>
	  <point x="333" y="598"/>
	  <point x="271" y="670"/>
	  <point x="174" y="670" type="curve" smooth="yes"/>
	</contour>
	<contour>
	  <point x="231" y="607"/>
	  <point x="262" y="563"/>
	  <point x="262" y="488" type="curve" smooth="yes"/>
	  <point x="262" y="413"/>
	  <point x="231" y="369"/>
	  <point x="174" y="369" type="curve" smooth="yes"/>
	  <point x="117" y="369"/>
	  <point x="86" y="413"/>
	  <point x="86" y="488" type="curve" smooth="yes"/>
	  <point x="86" y="563"/>
	  <point x="117" y="607"/>
	  <point x="174" y="607" type="curve" smooth="yes"/>
	</contour>
	<contour>
	  <point x="689" y="291"/>
	  <point x="720" y="247"/>
	  <point x="720" y="172" type="curve" smooth="yes"/>
	  <point x="720" y="97"/>
	  <point x="689" y="53"/>
	  <point x="632" y="53" type="curve" smooth="yes"/>
	  <point x="575" y="53"/>
	  <point x="544" y="97"/>
	  <point x="544" y="172" type="curve" smooth="yes"/>
	  <point x="544" y="247"/>
	  <point x="575" y="291"/>
	  <point x="632" y="291" type="curve" smooth="yes"/>
	</contour>
	<contour>
	  <point x="231" y="0" type="line"/>
	  <point x="651" y="660" type="line"/>
	  <point x="575" y="660" type="line"/>
	  <point x="155" y="0" type="line"/>
	</contour>
  </outline>
</glyph>
<glyph name="quotesingle" format="1">
  <advance width="229"/>
  <unicode hex="0027"/>
  <outline>
	<contour>
	  <point x="77" y="690" type="line"/>
	  <point x="77" y="443" type="line"/>
	  <point x="139" y="443" type="line"/>
	  <point x="165" y="690" type="line"/>
	</contour>
  </outline>
</glyph>
<glyph name="asterisk" format="1">
  <advance width="528"/>
  <unicode hex="002A"/>
  <outline>
	<contour>
	  <point x="264" y="455" type="line"/>
	  <point x="249" y="444" type="line"/>
	  <point x="304" y="343" type="line"/>
	  <point x="376" y="246" type="line"/>
	  <point x="428" y="284" type="line"/>
	  <point x="358" y="382" type="line"/>
	  <point x="279" y="466" type="line"/>
	</contour>
	<contour>
	  <point x="170" y="382" type="line"/>
	  <point x="100" y="284" type="line"/>
	  <point x="152" y="246" type="line"/>
	  <point x="224" y="343" type="line"/>
	  <point x="279" y="444" type="line"/>
	  <point x="264" y="455" type="line"/>
	  <point x="249" y="466" type="line"/>
	</contour>
	<contour>
	  <point x="31" y="497" type="line"/>
	  <point x="145" y="459" type="line"/>
	  <point x="258" y="437" type="line"/>
	  <point x="264" y="455" type="line"/>
	  <point x="270" y="473" type="line"/>
	  <point x="166" y="522" type="line"/>
	  <point x="50" y="558" type="line"/>
	</contour>
	<contour>
	  <point x="232" y="690" type="line"/>
	  <point x="231" y="569" type="line"/>
	  <point x="245" y="455" type="line"/>
	  <point x="264" y="455" type="line"/>
	  <point x="283" y="455" type="line"/>
	  <point x="297" y="569" type="line"/>
	  <point x="296" y="690" type="line"/>
	</contour>
	<contour>
	  <point x="362" y="522" type="line"/>
	  <point x="258" y="473" type="line"/>
	  <point x="264" y="455" type="line"/>
	  <point x="270" y="437" type="line"/>
	  <point x="383" y="459" type="line"/>
	  <point x="497" y="497" type="line"/>
	  <point x="478" y="558" type="line"/>
	</contour>
  </outline>
</glyph>
<glyph name="comma" format="1">
  <advance width="216"/>
  <unicode hex="002C"/>
  <outline>
	<contour>
	  <point x="74" y="120"/>
	  <point x="45" y="89"/>
	  <point x="45" y="53" type="curve" smooth="yes"/>
	  <point x="45" y="10"/>
	  <point x="76" y="-10"/>
	  <point x="100" y="-10" type="curve" smooth="yes"/>
	  <point x="116" y="-10"/>
	  <point x="123" y="-7"/>
	  <point x="128" y="-3" type="curve"/>
	  <point x="132" y="-5" type="line"/>
	  <point x="123" y="-47"/>
	  <point x="88" y="-89"/>
	  <point x="34" y="-107" type="curve"/>
	  <point x="76" y="-146" type="line"/>
	  <point x="152" y="-110"/>
	  <point x="185" y="-44"/>
	  <point x="185" y="23" type="curve" smooth="yes"/>
	  <point x="185" y="80"/>
	  <point x="157" y="120"/>
	  <point x="110" y="120" type="curve" smooth="yes"/>
	</contour>
  </outline>
</glyph>
<glyph name="hyphen" format="1">
  <advance width="480"/>
  <unicode hex="002D"/>
  <outline>
	<contour>
	  <point x="75" y="303" type="line"/>
	  <point x="75" y="220" type="line"/>
	  <point x="405" y="220" type="line"/>
	  <point x="405" y="303" type="line"/>
	</contour>
  </outline>
</glyph>
<glyph name="period" format="1">
  <advance width="216"/>
  <unicode hex="002E"/>
  <outline>
	<contour>
	  <point x="69" y="120"/>
	  <point x="43" y="94"/>
	  <point x="43" y="55" type="curve" smooth="yes"/>
	  <point x="43" y="16"/>
	  <point x="69" y="-10"/>
	  <point x="108" y="-10" type="curve" smooth="yes"/>
	  <point x="147" y="-10"/>
	  <point x="173" y="16"/>
	  <point x="173" y="55" type="curve" smooth="yes"/>
	  <point x="173" y="94"/>
	  <point x="147" y="120"/>
	  <point x="108" y="120" type="curve" smooth="yes"/>
	</contour>
  </outline>
</glyph>
<glyph name="slash" format="1">
  <advance width="417"/>
  <unicode hex="002F"/>
  <outline>
	<contour>
	  <point x="324" y="730" type="line"/>
	  <point x="18" y="-70" type="line"/>
	  <point x="93" y="-70" type="line"/>
	  <point x="399" y="730" type="line"/>
	</contour>
  </outline>
</glyph>
<glyph name="zero" format="1">
  <advance width="604"/>
  <unicode hex="0030"/>
  <outline>
	<contour>
	  <point x="142" y="670"/>
	  <point x="56" y="551"/>
	  <point x="56" y="330" type="curve" smooth="yes"/>
	  <point x="56" y="109"/>
	  <point x="142" y="-10"/>
	  <point x="302" y="-10" type="curve" smooth="yes"/>
	  <point x="462" y="-10"/>
	  <point x="548" y="109"/>
	  <point x="548" y="330" type="curve" smooth="yes"/>
	  <point x="548" y="551"/>
	  <point x="462" y="670"/>
	  <point x="302" y="670" type="curve" smooth="yes"/>
	</contour>
	<contour>
	  <point x="408" y="598"/>
	  <point x="465" y="504"/>
	  <point x="465" y="330" type="curve" smooth="yes"/>
	  <point x="465" y="156"/>
	  <point x="408" y="62"/>
	  <point x="302" y="62" type="curve" smooth="yes"/>
	  <point x="196" y="62"/>
	  <point x="139" y="156"/>
	  <point x="139" y="330" type="curve" smooth="yes"/>
	  <point x="139" y="504"/>
	  <point x="196" y="598"/>
	  <point x="302" y="598" type="curve" smooth="yes"/>
	</contour>
  </outline>
</glyph>
<glyph name="one" format="1">
  <advance width="365"/>
  <unicode hex="0031"/>
  <outline>
	<contour>
	  <point x="281" y="660" type="line"/>
	  <point x="211" y="660" type="line"/>
	  <point x="201" y="506" type="line"/>
	  <point x="201" y="0" type="line"/>
	  <point x="281" y="0" type="line"/>
	  <point x="281" y="506" type="line"/>
	</contour>
	<contour>
	  <point x="21" y="463" type="line"/>
	  <point x="115" y="472"/>
	  <point x="221" y="555"/>
	  <point x="256" y="634" type="curve"/>
	  <point x="211" y="660" type="line"/>
	  <point x="174" y="609"/>
	  <point x="68" y="550"/>
	  <point x="21" y="544" type="curve"/>
	</contour>
  </outline>
</glyph>
<glyph name="two" format="1">
  <advance width="547"/>
  <unicode hex="0032"/>
  <outline>
	<contour>
	  <point x="145" y="670"/>
	  <point x="66" y="589"/>
	  <point x="49" y="474" type="curve"/>
	  <point x="119" y="432" type="line"/>
	  <point x="128" y="531"/>
	  <point x="185" y="595"/>
	  <point x="276" y="595" type="curve" smooth="yes"/>
	  <point x="362" y="595"/>
	  <point x="416" y="541"/>
	  <point x="416" y="463" type="curve" smooth="yes"/>
	  <point x="416" y="346"/>
	  <point x="284" y="259"/>
	  <point x="55" y="65" type="curve"/>
	  <point x="101" y="23" type="line"/>
	  <point x="343" y="212"/>
	  <point x="500" y="306"/>
	  <point x="500" y="463" type="curve" smooth="yes"/>
	  <point x="500" y="585"/>
	  <point x="414" y="670"/>
	  <point x="279" y="670" type="curve" smooth="yes"/>
	</contour>
	<contour>
	  <point x="238" y="75" type="line"/>
	  <point x="55" y="65" type="line"/>
	  <point x="55" y="0" type="line"/>
	  <point x="238" y="0" type="line"/>
	  <point x="514" y="0" type="line"/>
	  <point x="514" y="75" type="line"/>
	</contour>
  </outline>
</glyph>
<glyph name="four" format="1">
  <advance width="590"/>
  <unicode hex="0034"/>
  <outline>
	<contour>
	  <point x="322" y="660" type="line"/>
	  <point x="24" y="232" type="line"/>
	  <point x="76" y="201" type="line"/>
	  <point x="137" y="281" type="line"/>
	  <point x="290" y="496" type="line"/>
	  <point x="385" y="660" type="line"/>
	</contour>
	<contour>
	  <point x="176" y="242" type="line"/>
	  <point x="24" y="232" type="line"/>
	  <point x="24" y="173" type="line"/>
	  <point x="176" y="173" type="line"/>
	  <point x="543" y="173" type="line"/>
	  <point x="543" y="242" type="line"/>
	</contour>
	<contour>
	  <point x="353" y="660" type="line"/>
	  <point x="346" y="509" type="line"/>
	  <point x="346" y="0" type="line"/>
	  <point x="426" y="0" type="line"/>
	  <point x="426" y="509" type="line"/>
	  <point x="426" y="660" type="line"/>
	</contour>
  </outline>
</glyph>
<glyph name="five" format="1">
  <advance width="548"/>
  <unicode hex="0035"/>
  <outline>
	<contour>
	  <point x="175" y="423"/>
	  <point x="118" y="360"/>
	  <point x="91" y="284" type="curve"/>
	  <point x="132" y="284" type="line"/>
	  <point x="163" y="329"/>
	  <point x="215" y="348"/>
	  <point x="279" y="348" type="curve" smooth="yes"/>
	  <point x="368" y="348"/>
	  <point x="418" y="299"/>
	  <point x="419" y="206" type="curve" smooth="yes"/>
	  <point x="420" y="118"/>
	  <point x="364" y="65"/>
	  <point x="273" y="65" type="curve" smooth="yes"/>
	  <point x="181" y="65"/>
	  <point x="145" y="112"/>
	  <point x="124" y="182" type="curve"/>
	  <point x="46" y="141" type="line"/>
	  <point x="84" y="46"/>
	  <point x="153" y="-10"/>
	  <point x="276" y="-10" type="curve" smooth="yes"/>
	  <point x="417" y="-10"/>
	  <point x="502" y="73"/>
	  <point x="502" y="210" type="curve" smooth="yes"/>
	  <point x="502" y="338"/>
	  <point x="420" y="423"/>
	  <point x="294" y="423" type="curve" smooth="yes"/>
	</contour>
	<contour>
	  <point x="101" y="660" type="line"/>
	  <point x="61" y="284" type="line"/>
	  <point x="132" y="284" type="line"/>
	  <point x="137" y="324" type="line"/>
	  <point x="178" y="660" type="line"/>
	</contour>
	<contour>
	  <point x="140" y="660" type="line"/>
	  <point x="131" y="585" type="line"/>
	  <point x="472" y="585" type="line"/>
	  <point x="472" y="660" type="line"/>
	</contour>
  </outline>
</glyph>
<glyph name="seven" format="1">
  <advance width="502"/>
  <unicode hex="0037"/>
  <outline>
	<contour>
	  <point x="264" y="443"/>
	  <point x="174" y="232"/>
	  <point x="174" y="0" type="curve"/>
	  <point x="256" y="0" type="line"/>
	  <point x="256" y="223"/>
	  <point x="325" y="410"/>
	  <point x="492" y="585" type="curve"/>
	  <point x="438" y="628" type="line"/>
	</contour>
	<contour>
	  <point x="6" y="660" type="line"/>
	  <point x="6" y="585" type="line"/>
	  <point x="492" y="585" type="line"/>
	  <point x="492" y="660" type="line"/>
	</contour>
  </outline>
</glyph>
<glyph name="eight" format="1">
  <advance width="567"/>
  <unicode hex="0038"/>
  <outline>
	<contour>
	  <point x="139" y="366"/>
	  <point x="44" y="294"/>
	  <point x="44" y="178" type="curve" smooth="yes"/>
	  <point x="44" y="63"/>
	  <point x="139" y="-10"/>
	  <point x="283" y="-10" type="curve" smooth="yes"/>
	  <point x="428" y="-10"/>
	  <point x="523" y="63"/>
	  <point x="523" y="178" type="curve" smooth="yes"/>
	  <point x="523" y="294"/>
	  <point x="428" y="366"/>
	  <point x="283" y="366" type="curve" smooth="yes"/>
	</contour>
	<contour>
	  <point x="378" y="308"/>
	  <point x="440" y="262"/>
	  <point x="440" y="186" type="curve" smooth="yes"/>
	  <point x="440" y="111"/>
	  <point x="380" y="65"/>
	  <point x="283" y="65" type="curve" smooth="yes"/>
	  <point x="187" y="65"/>
	  <point x="127" y="111"/>
	  <point x="127" y="186" type="curve" smooth="yes"/>
	  <point x="127" y="262"/>
	  <point x="189" y="308"/>
	  <point x="283" y="308" type="curve" smooth="yes"/>
	</contour>
	<contour>
	  <point x="361" y="594"/>
	  <point x="410" y="555"/>
	  <point x="410" y="488" type="curve" smooth="yes"/>
	  <point x="410" y="423"/>
	  <point x="359" y="383"/>
	  <point x="283" y="383" type="curve" smooth="yes"/>
	  <point x="207" y="383"/>
	  <point x="156" y="423"/>
	  <point x="156" y="488" type="curve" smooth="yes"/>
	  <point x="156" y="555"/>
	  <point x="205" y="594"/>
	  <point x="283" y="594" type="curve" smooth="yes"/>
	</contour>
	<contour>
	  <point x="156" y="669"/>
	  <point x="73" y="603"/>
	  <point x="73" y="496" type="curve" smooth="yes"/>
	  <point x="73" y="390"/>
	  <point x="156" y="323"/>
	  <point x="283" y="323" type="curve" smooth="yes"/>
	  <point x="410" y="323"/>
	  <point x="493" y="390"/>
	  <point x="493" y="496" type="curve" smooth="yes"/>
	  <point x="493" y="603"/>
	  <point x="410" y="669"/>
	  <point x="283" y="669" type="curve" smooth="yes"/>
	</contour>
  </outline>
</glyph>
<glyph name="less" format="1">
  <advance width="620"/>
  <unicode hex="003C"/>
  <outline>
	<contour>
	  <point x="79" y="380" type="line"/>
	  <point x="79" y="305" type="line"/>
	  <point x="214" y="362" type="line"/>
	  <point x="555" y="506" type="line"/>
	  <point x="555" y="589" type="line"/>
	</contour>
	<contour>
	  <point x="79" y="281" type="line"/>
	  <point x="555" y="72" type="line"/>
	  <point x="555" y="155" type="line"/>
	  <point x="214" y="299" type="line"/>
	  <point x="79" y="356" type="line"/>
	</contour>
  </outline>
</glyph>
<glyph name="equal" format="1">
  <advance width="620"/>
  <unicode hex="003D"/>
  <outline>
	<contour>
	  <point x="72" y="438" type="line"/>
	  <point x="72" y="363" type="line"/>
	  <point x="548" y="363" type="line"/>
	  <point x="548" y="438" type="line"/>
	</contour>
	<contour>
	  <point x="72" y="238" type="line"/>
	  <point x="72" y="163" type="line"/>
	  <point x="548" y="163" type="line"/>
	  <point x="548" y="238" type="line"/>
	</contour>
  </outline>
</glyph>
<glyph name="B" format="1">
  <advance width="647"/>
  <unicode hex="0042"/>
  <outline>
	<contour>
	  <point x="587" y="285"/>
	  <point x="498" y="350"/>
	  <point x="362" y="350" type="curve" smooth="yes"/>
	  <point x="150" y="350" type="line"/>
	  <point x="150" y="295" type="line"/>
	  <point x="363" y="295" type="line" smooth="yes"/>
	  <point x="457" y="295"/>
	  <point x="503" y="255"/>
	  <point x="503" y="185" type="curve" smooth="yes"/>
	  <point x="503" y="115"/>
	  <point x="457" y="75"/>
	  <point x="363" y="75" type="curve" smooth="yes"/>
	  <point x="150" y="75" type="line"/>
	  <point x="150" y="0" type="line"/>
	  <point x="344" y="0" type="line" smooth="yes"/>
	  <point x="500" y="0"/>
	  <point x="587" y="73"/>
	  <point x="587" y="185" type="curve" smooth="yes"/>
	</contour>
	<contour>
	  <point x="110" y="660" type="line"/>
	  <point x="110" y="0" type="line"/>
	  <point x="190" y="0" type="line"/>
	  <point x="190" y="660" type="line"/>
	</contour>
	<contour>
	  <point x="570" y="590"/>
	  <point x="501" y="660"/>
	  <point x="345" y="660" type="curve" smooth="yes"/>
	  <point x="150" y="660" type="line"/>
	  <point x="150" y="585" type="line"/>
	  <point x="346" y="585" type="line" smooth="yes"/>
	  <point x="440" y="585"/>
	  <point x="486" y="550"/>
	  <point x="486" y="478" type="curve" smooth="yes"/>
	  <point x="486" y="405"/>
	  <point x="440" y="370"/>
	  <point x="346" y="370" type="curve" smooth="yes"/>
	  <point x="150" y="370" type="line"/>
	  <point x="150" y="315" type="line"/>
	  <point x="345" y="315" type="line" smooth="yes"/>
	  <point x="481" y="315"/>
	  <point x="570" y="377"/>
	  <point x="570" y="478" type="curve" smooth="yes"/>
	</contour>
  </outline>
</glyph>
<glyph name="D" format="1">
  <advance width="725"/>
  <unicode hex="0044"/>
  <outline>
	<contour>
	  <point x="150" y="660" type="line"/>
	  <point x="150" y="585" type="line"/>
	  <point x="331" y="585" type="line" smooth="yes"/>
	  <point x="482" y="585"/>
	  <point x="571" y="490"/>
	  <point x="571" y="330" type="curve" smooth="yes"/>
	  <point x="571" y="170"/>
	  <point x="482" y="75"/>
	  <point x="331" y="75" type="curve" smooth="yes"/>
	  <point x="150" y="75" type="line"/>
	  <point x="150" y="0" type="line"/>
	  <point x="323" y="0" type="line" smooth="yes"/>
	  <point x="530" y="0"/>
	  <point x="655" y="118"/>
	  <point x="655" y="330" type="curve" smooth="yes"/>
	  <point x="655" y="542"/>
	  <point x="530" y="660"/>
	  <point x="323" y="660" type="curve" smooth="yes"/>
	</contour>
	<contour>
	  <point x="110" y="660" type="line"/>
	  <point x="110" y="0" type="line"/>
	  <point x="190" y="0" type="line"/>
	  <point x="190" y="660" type="line"/>
	</contour>
	<contour>
	  <point x="368" y="330" type="move" name="center"/>
	</contour>
	<contour>
	  <point x="327" y="660" type="move" name="top"/>
	</contour>
  </outline>
</glyph>
<glyph name="E" format="1">
  <advance width="635"/>
  <unicode hex="0045"/>
  <outline>
	<contour>
	  <point x="110" y="660" type="line"/>
	  <point x="110" y="0" type="line"/>
	  <point x="190" y="0" type="line"/>
	  <point x="190" y="660" type="line"/>
	</contour>
	<contour>
	  <point x="152" y="75" type="line"/>
	  <point x="152" y="0" type="line"/>
	  <point x="588" y="0" type="line"/>
	  <point x="588" y="75" type="line"/>
	</contour>
	<contour>
	  <point x="152" y="372" type="line"/>
	  <point x="152" y="297" type="line"/>
	  <point x="488" y="297" type="line"/>
	  <point x="488" y="372" type="line"/>
	</contour>
	<contour>
	  <point x="152" y="660" type="line"/>
	  <point x="152" y="585" type="line"/>
	  <point x="573" y="585" type="line"/>
	  <point x="573" y="660" type="line"/>
	</contour>
	<contour>
	  <point x="588" y="0" type="move" name="ogonek"/>
	</contour>
	<contour>
	  <point x="341" y="0" type="move" name="bottom"/>
	</contour>
	<contour>
	  <point x="341" y="660" type="move" name="top"/>
	</contour>
  </outline>
</glyph>
<glyph name="F" format="1">
  <advance width="617"/>
  <unicode hex="0046"/>
  <outline>
	<contour>
	  <point x="110" y="660" type="line"/>
	  <point x="110" y="0" type="line"/>
	  <point x="190" y="0" type="line"/>
	  <point x="190" y="660" type="line"/>
	</contour>
	<contour>
	  <point x="152" y="372" type="line"/>
	  <point x="152" y="297" type="line"/>
	  <point x="488" y="297" type="line"/>
	  <point x="488" y="372" type="line"/>
	</contour>
	<contour>
	  <point x="152" y="660" type="line"/>
	  <point x="152" y="585" type="line"/>
	  <point x="572" y="585" type="line"/>
	  <point x="572" y="660" type="line"/>
	</contour>
  </outline>
</glyph>
<glyph name="H" format="1">
  <advance width="738"/>
  <unicode hex="0048"/>
  <outline>
	<contour>
	  <point x="548" y="660" type="line"/>
	  <point x="548" y="0" type="line"/>
	  <point x="628" y="0" type="line"/>
	  <point x="628" y="660" type="line"/>
	</contour>
	<contour>
	  <point x="110" y="660" type="line"/>
	  <point x="110" y="0" type="line"/>
	  <point x="190" y="0" type="line"/>
	  <point x="190" y="660" type="line"/>
	</contour>
	<contour>
	  <point x="152" y="372" type="line"/>
	  <point x="152" y="297" type="line"/>
	  <point x="585" y="297" type="line"/>
	  <point x="585" y="372" type="line"/>
	</contour>
  </outline>
</glyph>
<glyph name="I" format="1">
  <advance width="300"/>
  <unicode hex="0049"/>
  <outline>
	<contour>
	  <point x="110" y="660" type="line"/>
	  <point x="110" y="0" type="line"/>
	  <point x="190" y="0" type="line"/>
	  <point x="190" y="660" type="line"/>
	</contour>
	<contour>
	  <point x="190" y="0" type="move" name="ogonek"/>
	</contour>
	<contour>
	  <point x="150" y="660" type="move" name="top"/>
	</contour>
  </outline>
</glyph>
<glyph name="K" format="1">
  <advance width="669"/>
  <unicode hex="004B"/>
  <outline>
	<contour>
	  <point x="522" y="660" type="line"/>
	  <point x="150" y="279" type="line"/>
	  <point x="150" y="171" type="line"/>
	  <point x="327" y="352" type="line"/>
	  <point x="339" y="365" type="line"/>
	  <point x="627" y="660" type="line"/>
	</contour>
	<contour>
	  <point x="110" y="660" type="line"/>
	  <point x="110" y="0" type="line"/>
	  <point x="190" y="0" type="line"/>
	  <point x="190" y="660" type="line"/>
	</contour>
	<contour>
	  <point x="281" y="371" type="line"/>
	  <point x="534" y="0" type="line"/>
	  <point x="630" y="0" type="line"/>
	  <point x="347" y="416" type="line"/>
	</contour>
	<contour>
	  <point x="355" y="660" type="move" name="top"/>
	</contour>
	<contour>
	  <point x="375" y="0" type="move" name="bottom"/>
	</contour>
  </outline>
</glyph>
<glyph name="N" format="1">
  <advance width="738"/>
  <unicode hex="004E"/>
  <outline>
	<contour>
	  <point x="552" y="660" type="line"/>
	  <point x="552" y="194" type="line"/>
	  <point x="556" y="88" type="line"/>
	  <point x="555" y="88" type="line"/>
	  <point x="484" y="220" type="line"/>
	  <point x="209" y="660" type="line"/>
	  <point x="110" y="660" type="line"/>
	  <point x="110" y="0" type="line"/>
	  <point x="186" y="0" type="line"/>
	  <point x="186" y="466" type="line"/>
	  <point x="182" y="572" type="line"/>
	  <point x="183" y="572" type="line"/>
	  <point x="253" y="442" type="line"/>
	  <point x="529" y="0" type="line"/>
	  <point x="628" y="0" type="line"/>
	  <point x="628" y="660" type="line"/>
	</contour>
	<contour>
	  <point x="373" y="660" type="move" name="top"/>
	</contour>
	<contour>
	  <point x="399" y="0" type="move" name="bottom"/>
	</contour>
  </outline>
</glyph>
<glyph name="P" format="1">
  <advance width="594"/>
  <unicode hex="0050"/>
  <outline>
	<contour>
	  <point x="150" y="660" type="line"/>
	  <point x="150" y="585" type="line"/>
	  <point x="331" y="585" type="line" smooth="yes"/>
	  <point x="435" y="585"/>
	  <point x="481" y="541"/>
	  <point x="481" y="459" type="curve" smooth="yes"/>
	  <point x="481" y="377"/>
	  <point x="435" y="333"/>
	  <point x="331" y="333" type="curve" smooth="yes"/>
	  <point x="150" y="333" type="line"/>
	  <point x="150" y="258" type="line"/>
	  <point x="343" y="258" type="line" smooth="yes"/>
	  <point x="476" y="258"/>
	  <point x="565" y="335"/>
	  <point x="565" y="459" type="curve" smooth="yes"/>
	  <point x="565" y="583"/>
	  <point x="476" y="660"/>
	  <point x="343" y="660" type="curve" smooth="yes"/>
	</contour>
	<contour>
	  <point x="110" y="660" type="line"/>
	  <point x="110" y="0" type="line"/>
	  <point x="190" y="0" type="line"/>
	  <point x="190" y="660" type="line"/>
	</contour>
  </outline>
</glyph>
<glyph name="Z" format="1">
  <advance width="570"/>
  <unicode hex="005A"/>
  <outline>
	<contour>
	  <point x="38" y="75" type="line"/>
	  <point x="92" y="29" type="line"/>
	  <point x="544" y="585" type="line"/>
	  <point x="491" y="632" type="line"/>
	</contour>
	<contour>
	  <point x="38" y="75" type="line"/>
	  <point x="38" y="0" type="line"/>
	  <point x="557" y="0" type="line"/>
	  <point x="557" y="75" type="line"/>
	</contour>
	<contour>
	  <point x="48" y="660" type="line"/>
	  <point x="48" y="585" type="line"/>
	  <point x="544" y="585" type="line"/>
	  <point x="544" y="660" type="line"/>
	</contour>
	<contour>
	  <point x="288" y="660" type="move" name="top"/>
	</contour>
  </outline>
</glyph>
<glyph name="bracketleft" format="1">
  <advance width="391"/>
  <unicode hex="005B"/>
  <outline>
	<contour>
	  <point x="118" y="730" type="line"/>
	  <point x="118" y="-168" type="line"/>
	  <point x="193" y="-168" type="line"/>
	  <point x="193" y="730" type="line"/>
	</contour>
	<contour>
	  <point x="160" y="-98" type="line"/>
	  <point x="160" y="-168" type="line"/>
	  <point x="346" y="-168" type="line"/>
	  <point x="346" y="-98" type="line"/>
	</contour>
	<contour>
	  <point x="160" y="730" type="line"/>
	  <point x="160" y="660" type="line"/>
	  <point x="346" y="660" type="line"/>
	  <point x="346" y="730" type="line"/>
	</contour>
  </outline>
</glyph>
<glyph name="b" format="1">
  <advance width="630"/>
  <unicode hex="0062"/>
  <outline>
	<contour>
	  <point x="94" y="730" type="line"/>
	  <point x="94" y="117" type="line"/>
	  <point x="94" y="0" type="line"/>
	  <point x="164" y="0" type="line"/>
	  <point x="171" y="118" type="line"/>
	  <point x="174" y="166" type="line"/>
	  <point x="174" y="730" type="line"/>
	</contour>
	<component base="bowl" xOffset="648" xScale="-1"/>
  </outline>
</glyph>
<glyph name="c" format="1">
  <advance width="557"/>
  <unicode hex="0063"/>
  <outline>
	<contour>
	  <point x="153" y="510"/>
	  <point x="62" y="412"/>
	  <point x="62" y="250" type="curve" smooth="yes"/>
	  <point x="62" y="88"/>
	  <point x="153" y="-10"/>
	  <point x="304" y="-10" type="curve" smooth="yes"/>
	  <point x="410" y="-10"/>
	  <point x="482" y="46"/>
	  <point x="514" y="138" type="curve"/>
	  <point x="442" y="163" type="line"/>
	  <point x="422" y="97"/>
	  <point x="375" y="60"/>
	  <point x="302" y="60" type="curve" smooth="yes"/>
	  <point x="202" y="60"/>
	  <point x="142" y="131"/>
	  <point x="142" y="250" type="curve" smooth="yes"/>
	  <point x="142" y="369"/>
	  <point x="202" y="440"/>
	  <point x="302" y="440" type="curve" smooth="yes"/>
	  <point x="367" y="440"/>
	  <point x="412" y="404"/>
	  <point x="433" y="341" type="curve"/>
	  <point x="509" y="377" type="line"/>
	  <point x="474" y="459"/>
	  <point x="407" y="510"/>
	  <point x="304" y="510" type="curve" smooth="yes"/>
	</contour>
	<contour>
	  <point x="296" y="500" type="move" name="top"/>
	</contour>
	<contour>
	  <point x="294" y="0" type="move" name="bottom"/>
	</contour>
  </outline>
</glyph>
<glyph name="e" format="1">
  <advance width="584"/>
  <unicode hex="0065"/>
  <outline>
	<contour>
	  <point x="412" y="-10"/>
	  <point x="474" y="31"/>
	  <point x="512" y="99" type="curve"/>
	  <point x="445" y="134" type="line"/>
	  <point x="427" y="86"/>
	  <point x="377" y="60"/>
	  <point x="304" y="60" type="curve" smooth="yes"/>
	  <point x="203" y="60"/>
	  <point x="140" y="131"/>
	  <point x="140" y="250" type="curve" smooth="yes"/>
	  <point x="140" y="369"/>
	  <point x="197" y="440"/>
	  <point x="298" y="440" type="curve" smooth="yes"/>
	  <point x="392" y="440"/>
	  <point x="445" y="370"/>
	  <point x="447" y="260" type="curve"/>
	  <point x="483" y="291" type="line"/>
	  <point x="114" y="291" type="line"/>
	  <point x="114" y="220" type="line"/>
	  <point x="518" y="220" type="line"/>
	  <point x="520" y="234"/>
	  <point x="522" y="253"/>
	  <point x="522" y="276" type="curve" smooth="yes"/>
	  <point x="522" y="405"/>
	  <point x="443" y="510"/>
	  <point x="298" y="510" type="curve" smooth="yes"/>
	  <point x="147" y="510"/>
	  <point x="62" y="412"/>
	  <point x="62" y="250" type="curve" smooth="yes"/>
	  <point x="62" y="88"/>
	  <point x="153" y="-10"/>
	  <point x="304" y="-10" type="curve" smooth="yes"/>
	</contour>
	<contour>
	  <point x="379" y="40" type="move" name="ogonek"/>
	</contour>
	<contour>
	  <point x="304" y="0" type="move" name="bottom"/>
	</contour>
	<contour>
	  <point x="295" y="500" type="move" name="top"/>
	</contour>
  </outline>
</glyph>
<glyph name="f" format="1">
  <advance width="380"/>
  <unicode hex="0066"/>
  <outline>
	<contour>
	  <point x="172" y="735"/>
	  <point x="118" y="673"/>
	  <point x="118" y="584" type="curve" smooth="yes"/>
	  <point x="118" y="0" type="line"/>
	  <point x="198" y="0" type="line"/>
	  <point x="198" y="474" type="line"/>
	  <point x="198" y="500" type="line"/>
	  <point x="198" y="576" type="line" smooth="yes"/>
	  <point x="198" y="636"/>
	  <point x="231" y="662"/>
	  <point x="289" y="662" type="curve" smooth="yes"/>
	  <point x="312" y="662"/>
	  <point x="330" y="657"/>
	  <point x="346" y="647" type="curve"/>
	  <point x="367" y="712" type="line"/>
	  <point x="349" y="727"/>
	  <point x="317" y="735"/>
	  <point x="282" y="735" type="curve" smooth="yes"/>
	</contour>
	<contour>
	  <point x="18" y="500" type="line"/>
	  <point x="18" y="431" type="line"/>
	  <point x="365" y="431" type="line"/>
	  <point x="365" y="500" type="line"/>
	</contour>
  </outline>
</glyph>
<glyph name="g" format="1">
  <advance width="542"/>
  <unicode hex="0067"/>
  <outline>
	<contour>
	  <point x="443" y="592"/>
	  <point x="380" y="542"/>
	  <point x="382" y="460" type="curve"/>
	  <point x="432" y="439" type="line"/>
	  <point x="430" y="497"/>
	  <point x="470" y="522"/>
	  <point x="540" y="522" type="curve"/>
	  <point x="522" y="592" type="line"/>
	</contour>
	<component base="gbase" xOffset="-2"/>
	<contour>
	  <point x="275" y="500" type="move" name="top"/>
	</contour>
  </outline>
</glyph>
<glyph name="k" format="1">
  <advance width="559"/>
  <unicode hex="006B"/>
  <outline>
	<contour>
	  <point x="433" y="500" type="line"/>
	  <point x="134" y="201" type="line"/>
	  <point x="134" y="101" type="line"/>
	  <point x="298" y="265" type="line"/>
	  <point x="317" y="284" type="line"/>
	  <point x="533" y="500" type="line"/>
	</contour>
	<contour>
	  <point x="94" y="730" type="line"/>
	  <point x="94" y="0" type="line"/>
	  <point x="174" y="0" type="line"/>
	  <point x="174" y="730" type="line"/>
	</contour>
	<contour>
	  <point x="257" y="280" type="line"/>
	  <point x="448" y="0" type="line"/>
	  <point x="545" y="0" type="line"/>
	  <point x="324" y="325" type="line"/>
	</contour>
	<contour>
	  <point x="316" y="0" type="move" name="bottom"/>
	</contour>
  </outline>
</glyph>
<glyph name="m" format="1">
  <advance width="954"/>
  <unicode hex="006D"/>
  <outline>
	<contour>
	  <point x="595" y="510"/>
	  <point x="487" y="461"/>
	  <point x="487" y="346" type="curve"/>
	  <point x="520" y="274" type="line"/>
	  <point x="520" y="381"/>
	  <point x="590" y="440"/>
	  <point x="668" y="440" type="curve" smooth="yes"/>
	  <point x="734" y="440"/>
	  <point x="786" y="403"/>
	  <point x="786" y="312" type="curve" smooth="yes"/>
	  <point x="786" y="0" type="line"/>
	  <point x="866" y="0" type="line"/>
	  <point x="866" y="320" type="line" smooth="yes"/>
	  <point x="866" y="452"/>
	  <point x="771" y="510"/>
	  <point x="675" y="510" type="curve" smooth="yes"/>
	</contour>
	<contour>
	  <point x="94" y="500" type="line"/>
	  <point x="94" y="383" type="line"/>
	  <point x="94" y="0" type="line"/>
	  <point x="174" y="0" type="line"/>
	  <point x="174" y="379" type="line"/>
	  <point x="171" y="383" type="line"/>
	  <point x="164" y="500" type="line"/>
	</contour>
	<contour>
	  <point x="234" y="510"/>
	  <point x="137" y="445"/>
	  <point x="137" y="293" type="curve"/>
	  <point x="174" y="267" type="line"/>
	  <point x="174" y="391"/>
	  <point x="256" y="440"/>
	  <point x="322" y="440" type="curve" smooth="yes"/>
	  <point x="388" y="440"/>
	  <point x="440" y="403"/>
	  <point x="440" y="312" type="curve" smooth="yes"/>
	  <point x="440" y="0" type="line"/>
	  <point x="520" y="0" type="line"/>
	  <point x="520" y="320" type="line" smooth="yes"/>
	  <point x="520" y="452"/>
	  <point x="425" y="510"/>
	  <point x="329" y="510" type="curve" smooth="yes"/>
	</contour>
  </outline>
</glyph>
<glyph name="o" format="1">
  <advance width="608"/>
  <unicode hex="006F"/>
  <outline>
	<contour>
	  <point x="153" y="510"/>
	  <point x="62" y="412"/>
	  <point x="62" y="250" type="curve" smooth="yes"/>
	  <point x="62" y="88"/>
	  <point x="153" y="-10"/>
	  <point x="304" y="-10" type="curve" smooth="yes"/>
	  <point x="455" y="-10"/>
	  <point x="546" y="88"/>
	  <point x="546" y="250" type="curve" smooth="yes"/>
	  <point x="546" y="412"/>
	  <point x="455" y="510"/>
	  <point x="304" y="510" type="curve" smooth="yes"/>
	</contour>
	<contour>
	  <point x="405" y="440"/>
	  <point x="466" y="369"/>
	  <point x="466" y="250" type="curve" smooth="yes"/>
	  <point x="466" y="131"/>
	  <point x="405" y="60"/>
	  <point x="304" y="60" type="curve" smooth="yes"/>
	  <point x="203" y="60"/>
	  <point x="142" y="131"/>
	  <point x="142" y="250" type="curve" smooth="yes"/>
	  <point x="142" y="369"/>
	  <point x="203" y="440"/>
	  <point x="304" y="440" type="curve" smooth="yes"/>
	</contour>
	<contour>
	  <point x="304" y="500" type="move" name="top"/>
	</contour>
  </outline>
</glyph>
<glyph name="q" format="1">
  <advance width="630"/>
  <unicode hex="0071"/>
  <outline>
	<contour>
	  <point x="466" y="500" type="line"/>
	  <point x="459" y="383" type="line"/>
	  <point x="456" y="377" type="line"/>
	  <point x="456" y="-210" type="line"/>
	  <point x="536" y="-210" type="line"/>
	  <point x="536" y="383" type="line"/>
	  <point x="536" y="500" type="line"/>
	</contour>
	<component base="bowl" xOffset="-18" yOffset="500" yScale="-1"/>
  </outline>
</glyph>
<glyph name="r" format="1">
  <advance width="389"/>
  <unicode hex="0072"/>
  <outline>
	<contour>
	  <point x="211" y="510"/>
	  <point x="147" y="438"/>
	  <point x="147" y="295" type="curve"/>
	  <point x="174" y="270" type="line"/>
	  <point x="174" y="382"/>
	  <point x="246" y="435"/>
	  <point x="306" y="435" type="curve" smooth="yes"/>
	  <point x="332" y="435"/>
	  <point x="354" y="430"/>
	  <point x="369" y="422" type="curve"/>
	  <point x="385" y="500" type="line"/>
	  <point x="370" y="508"/>
	  <point x="347" y="510"/>
	  <point x="330" y="510" type="curve" smooth="yes"/>
	</contour>
	<contour>
	  <point x="94" y="500" type="line"/>
	  <point x="94" y="383" type="line"/>
	  <point x="94" y="0" type="line"/>
	  <point x="174" y="0" type="line"/>
	  <point x="174" y="372" type="line"/>
	  <point x="174" y="383" type="line"/>
	  <point x="159" y="500" type="line"/>
	</contour>
	<contour>
	  <point x="221" y="500" type="move" name="top"/>
	</contour>
	<contour>
	  <point x="155" y="0" type="move" name="bottom"/>
	</contour>
  </outline>
</glyph>
<glyph name="s" format="1">
  <advance width="494"/>
  <unicode hex="0073"/>
  <outline>
	<contour>
	  <point x="129" y="510"/>
	  <point x="54" y="441"/>
	  <point x="54" y="360" type="curve" smooth="yes"/>
	  <point x="54" y="166"/>
	  <point x="379" y="249"/>
	  <point x="379" y="134" type="curve" smooth="yes"/>
	  <point x="379" y="93"/>
	  <point x="340" y="60"/>
	  <point x="258" y="60" type="curve" smooth="yes"/>
	  <point x="186" y="60"/>
	  <point x="124" y="87"/>
	  <point x="100" y="148" type="curve"/>
	  <point x="35" y="103" type="line"/>
	  <point x="73" y="26"/>
	  <point x="158" y="-10"/>
	  <point x="250" y="-10" type="curve" smooth="yes"/>
	  <point x="378" y="-10"/>
	  <point x="459" y="51"/>
	  <point x="459" y="138" type="curve" smooth="yes"/>
	  <point x="459" y="335"/>
	  <point x="134" y="241"/>
	  <point x="134" y="367" type="curve" smooth="yes"/>
	  <point x="134" y="404"/>
	  <point x="184" y="440"/>
	  <point x="251" y="440" type="curve" smooth="yes"/>
	  <point x="314" y="440"/>
	  <point x="359" y="416"/>
	  <point x="381" y="350" type="curve"/>
	  <point x="449" y="390" type="line"/>
	  <point x="421" y="472"/>
	  <point x="358" y="510"/>
	  <point x="251" y="510" type="curve" smooth="yes"/>
	</contour>
	<contour>
	  <point x="251" y="500" type="move" name="top"/>
	</contour>
	<contour>
	  <point x="266" y="0" type="move" name="bottom"/>
	</contour>
  </outline>
</glyph>
<glyph name="y" format="1">
  <advance width="509"/>
  <unicode hex="0079"/>
  <outline>
	<contour>
	  <point x="415" y="500" type="line"/>
	  <point x="298" y="184" type="line"/>
	  <point x="262" y="85" type="line"/>
	  <point x="231" y="174" type="line"/>
	  <point x="106" y="500" type="line"/>
	  <point x="15" y="500" type="line"/>
	  <point x="174" y="120" type="line"/>
	  <point x="224" y="1" type="line"/>
	  <point x="198" y="-64" type="line" smooth="yes"/>
	  <point x="173" y="-130"/>
	  <point x="142" y="-145"/>
	  <point x="107" y="-145" type="curve" smooth="yes"/>
	  <point x="79" y="-145"/>
	  <point x="49" y="-137"/>
	  <point x="26" y="-105" type="curve"/>
	  <point x="-2" y="-173" type="line"/>
	  <point x="26" y="-203"/>
	  <point x="58" y="-215"/>
	  <point x="108" y="-215" type="curve" smooth="yes"/>
	  <point x="182" y="-215"/>
	  <point x="227" y="-182"/>
	  <point x="266" y="-84" type="curve" smooth="yes"/>
	  <point x="501" y="500" type="line"/>
	</contour>
	<contour>
	  <point x="256" y="500" type="move" name="top"/>
	</contour>
  </outline>
</glyph>
<glyph name="z" format="1">
  <advance width="500"/>
  <unicode hex="007A"/>
  <outline>
	<contour>
	  <point x="315" y="383" type="line"/>
	  <point x="46" y="64" type="line"/>
	  <point x="97" y="19" type="line"/>
	  <point x="204" y="132" type="line"/>
	  <point x="460" y="436" type="line"/>
	  <point x="409" y="481" type="line"/>
	</contour>
	<contour>
	  <point x="298" y="69" type="line"/>
	  <point x="239" y="69" type="line"/>
	  <point x="46" y="64" type="line"/>
	  <point x="46" y="0" type="line"/>
	  <point x="239" y="0" type="line"/>
	  <point x="468" y="0" type="line"/>
	  <point x="468" y="69" type="line"/>
	</contour>
	<contour>
	  <point x="276" y="500" type="line"/>
	  <point x="49" y="500" type="line"/>
	  <point x="49" y="431" type="line"/>
	  <point x="220" y="431" type="line"/>
	  <point x="276" y="431" type="line"/>
	  <point x="460" y="436" type="line"/>
	  <point x="460" y="500" type="line"/>
	</contour>
	<contour>
	  <point x="241" y="500" type="move" name="top"/>
	</contour>
  </outline>
</glyph>
<glyph name="asciitilde" format="1">
  <advance width="620"/>
  <unicode hex="007E"/>
  <outline>
	<contour>
	  <point x="493" y="384" type="line"/>
	  <point x="483" y="329"/>
	  <point x="459" y="293"/>
	  <point x="418" y="293" type="curve" smooth="yes"/>
	  <point x="345" y="293"/>
	  <point x="302" y="383"/>
	  <point x="197" y="383" type="curve" smooth="yes"/>
	  <point x="101" y="383"/>
	  <point x="53" y="325"/>
	  <point x="43" y="212" type="curve"/>
	  <point x="127" y="212" type="line"/>
	  <point x="137" y="267"/>
	  <point x="161" y="303"/>
	  <point x="202" y="303" type="curve" smooth="yes"/>
	  <point x="278" y="303"/>
	  <point x="318" y="213"/>
	  <point x="424" y="213" type="curve" smooth="yes"/>
	  <point x="517" y="213"/>
	  <point x="567" y="271"/>
	  <point x="577" y="384" type="curve"/>
	</contour>
  </outline>
</glyph>
<glyph name="copyright" format="1">
  <advance width="760"/>
  <unicode hex="00A9"/>
  <outline>
	<contour>
	  <point x="172" y="670"/>
	  <point x="38" y="536"/>
	  <point x="38" y="330" type="curve" smooth="yes"/>
	  <point x="38" y="124"/>
	  <point x="172" y="-10"/>
	  <point x="380" y="-10" type="curve" smooth="yes"/>
	  <point x="588" y="-10"/>
	  <point x="722" y="124"/>
	  <point x="722" y="330" type="curve" smooth="yes"/>
	  <point x="722" y="536"/>
	  <point x="588" y="670"/>
	  <point x="380" y="670" type="curve" smooth="yes"/>
	</contour>
	<contour>
	  <point x="274" y="513"/>
	  <point x="205" y="443"/>
	  <point x="205" y="328" type="curve" smooth="yes"/>
	  <point x="205" y="213"/>
	  <point x="274" y="143"/>
	  <point x="387" y="143" type="curve" smooth="yes"/>
	  <point x="468" y="143"/>
	  <point x="522" y="183"/>
	  <point x="547" y="248" type="curve"/>
	  <point x="492" y="270" type="line"/>
	  <point x="475" y="225"/>
	  <point x="439" y="203"/>
	  <point x="386" y="203" type="curve" smooth="yes"/>
	  <point x="315" y="203"/>
	  <point x="272" y="249"/>
	  <point x="272" y="328" type="curve" smooth="yes"/>
	  <point x="272" y="407"/>
	  <point x="315" y="453"/>
	  <point x="386" y="453" type="curve" smooth="yes"/>
	  <point x="436" y="453"/>
	  <point x="468" y="432"/>
	  <point x="485" y="389" type="curve"/>
	  <point x="543" y="418" type="line"/>
	  <point x="517" y="477"/>
	  <point x="466" y="513"/>
	  <point x="387" y="513" type="curve" smooth="yes"/>
	</contour>
	<contour>
	  <point x="545" y="605"/>
	  <point x="651" y="497"/>
	  <point x="651" y="330" type="curve" smooth="yes"/>
	  <point x="651" y="163"/>
	  <point x="545" y="55"/>
	  <point x="380" y="55" type="curve" smooth="yes"/>
	  <point x="215" y="55"/>
	  <point x="109" y="163"/>
	  <point x="109" y="330" type="curve" smooth="yes"/>
	  <point x="109" y="497"/>
	  <point x="215" y="605"/>
	  <point x="380" y="605" type="curve" smooth="yes"/>
	</contour>
	<contour>
	  <point x="396" y="580" type="move" name="top"/>
	</contour>
	<contour>
	  <point x="396" y="80" type="move" name="bottom"/>
	</contour>
  </outline>
</glyph>
<glyph name="ordfeminine" format="1">
  <advance width="457"/>
  <unicode hex="00AA"/>
  <outline>
	<contour>
	  <point x="148" y="670"/>
	  <point x="82" y="636"/>
	  <point x="64" y="585" type="curve"/>
	  <point x="118" y="554" type="line"/>
	  <point x="137" y="598"/>
	  <point x="169" y="613"/>
	  <point x="216" y="613" type="curve" smooth="yes"/>
	  <point x="271" y="613"/>
	  <point x="296" y="590"/>
	  <point x="296" y="544" type="curve" smooth="yes"/>
	  <point x="296" y="400" type="line"/>
	  <point x="296" y="384" type="line" smooth="yes"/>
	  <point x="296" y="339"/>
	  <point x="327" y="306"/>
	  <point x="370" y="306" type="curve" smooth="yes"/>
	  <point x="388" y="306"/>
	  <point x="403" y="310"/>
	  <point x="413" y="313" type="curve"/>
	  <point x="416" y="366" type="line"/>
	  <point x="408" y="364"/>
	  <point x="397" y="363"/>
	  <point x="388" y="363" type="curve" smooth="yes"/>
	  <point x="368" y="363"/>
	  <point x="361" y="371"/>
	  <point x="361" y="388" type="curve" smooth="yes"/>
	  <point x="361" y="551" type="line" smooth="yes"/>
	  <point x="361" y="632"/>
	  <point x="296" y="670"/>
	  <point x="214" y="670" type="curve" smooth="yes"/>
	</contour>
	<contour>
	  <point x="63" y="222" type="line"/>
	  <point x="63" y="169" type="line"/>
	  <point x="400" y="169" type="line"/>
	  <point x="400" y="222" type="line"/>
	</contour>
	<contour>
	  <point x="209" y="514" type="line" smooth="yes"/>
	  <point x="112" y="497"/>
	  <point x="58" y="468"/>
	  <point x="58" y="403" type="curve" smooth="yes"/>
	  <point x="58" y="333"/>
	  <point x="110" y="306"/>
	  <point x="178" y="306" type="curve" smooth="yes"/>
	  <point x="261" y="306"/>
	  <point x="314" y="352"/>
	  <point x="314" y="424" type="curve"/>
	  <point x="297" y="437" type="line"/>
	  <point x="297" y="391"/>
	  <point x="256" y="363"/>
	  <point x="187" y="363" type="curve" smooth="yes"/>
	  <point x="149" y="363"/>
	  <point x="123" y="376"/>
	  <point x="123" y="402" type="curve" smooth="yes"/>
	  <point x="123" y="439"/>
	  <point x="160" y="455"/>
	  <point x="225" y="467" type="curve" smooth="yes"/>
	  <point x="330" y="486" type="line"/>
	  <point x="322" y="534" type="line"/>
	</contour>
  </outline>
</glyph>
<glyph name="registered" format="1">
  <advance width="760"/>
  <unicode hex="00AE"/>
  <outline>
	<contour>
	  <point x="172" y="670"/>
	  <point x="38" y="536"/>
	  <point x="38" y="330" type="curve" smooth="yes"/>
	  <point x="38" y="124"/>
	  <point x="172" y="-10"/>
	  <point x="380" y="-10" type="curve" smooth="yes"/>
	  <point x="588" y="-10"/>
	  <point x="722" y="124"/>
	  <point x="722" y="330" type="curve" smooth="yes"/>
	  <point x="722" y="536"/>
	  <point x="588" y="670"/>
	  <point x="380" y="670" type="curve" smooth="yes"/>
	</contour>
	<contour>
	  <point x="252" y="513" type="line"/>
	  <point x="251" y="143" type="line"/>
	  <point x="318" y="143" type="line"/>
	  <point x="318" y="513" type="line"/>
	</contour>
	<contour>
	  <point x="375" y="293" type="line"/>
	  <point x="475" y="143" type="line"/>
	  <point x="551" y="143" type="line"/>
	  <point x="430" y="316" type="line"/>
	</contour>
	<contour>
	  <point x="545" y="605"/>
	  <point x="651" y="497"/>
	  <point x="651" y="330" type="curve" smooth="yes"/>
	  <point x="651" y="163"/>
	  <point x="545" y="55"/>
	  <point x="380" y="55" type="curve" smooth="yes"/>
	  <point x="215" y="55"/>
	  <point x="109" y="163"/>
	  <point x="109" y="330" type="curve" smooth="yes"/>
	  <point x="109" y="497"/>
	  <point x="215" y="605"/>
	  <point x="380" y="605" type="curve" smooth="yes"/>
	</contour>
	<contour>
	  <point x="292" y="513" type="line"/>
	  <point x="292" y="462" type="line"/>
	  <point x="402" y="462" type="line" smooth="yes"/>
	  <point x="450" y="462"/>
	  <point x="476" y="440"/>
	  <point x="476" y="395" type="curve" smooth="yes"/>
	  <point x="476" y="350"/>
	  <point x="450" y="328"/>
	  <point x="402" y="328" type="curve" smooth="yes"/>
	  <point x="292" y="328" type="line"/>
	  <point x="292" y="277" type="line"/>
	  <point x="403" y="277" type="line" smooth="yes"/>
	  <point x="486" y="277"/>
	  <point x="543" y="322"/>
	  <point x="543" y="395" type="curve" smooth="yes"/>
	  <point x="543" y="468"/>
	  <point x="486" y="513"/>
	  <point x="403" y="513" type="curve" smooth="yes"/>
	</contour>
  </outline>
</glyph>
<glyph name="macron" format="1">
  <advance width="500"/>
  <unicode hex="00AF"/>
  <outline>
	<contour>
	  <point x="76" y="663" type="line"/>
	  <point x="76" y="596" type="line"/>
	  <point x="424" y="596" type="line"/>
	  <point x="424" y="663" type="line"/>
	</contour>
	<contour>
	  <point x="500" y="10" type="move" name="ogonek"/>
	</contour>
	<contour>
	  <point x="250" y="500" type="move" name="_top"/>
	</contour>
  </outline>
</glyph>
<glyph name="degree" format="1">
  <advance width="432"/>
  <unicode hex="00B0"/>
  <outline>
	<contour>
	  <point x="315" y="340"/>
	  <point x="386" y="409"/>
	  <point x="386" y="505" type="curve" smooth="yes"/>
	  <point x="386" y="601"/>
	  <point x="315" y="670"/>
	  <point x="216" y="670" type="curve" smooth="yes"/>
	  <point x="117" y="670"/>
	  <point x="46" y="601"/>
	  <point x="46" y="505" type="curve" smooth="yes"/>
	  <point x="46" y="409"/>
	  <point x="117" y="340"/>
	  <point x="216" y="340" type="curve" smooth="yes"/>
	</contour>
	<contour>
	  <point x="158" y="405"/>
	  <point x="116" y="447"/>
	  <point x="116" y="505" type="curve" smooth="yes"/>
	  <point x="116" y="563"/>
	  <point x="158" y="605"/>
	  <point x="216" y="605" type="curve" smooth="yes"/>
	  <point x="274" y="605"/>
	  <point x="316" y="563"/>
	  <point x="316" y="505" type="curve" smooth="yes"/>
	  <point x="316" y="447"/>
	  <point x="274" y="405"/>
	  <point x="216" y="405" type="curve" smooth="yes"/>
	</contour>
  </outline>
</glyph>
<glyph name="plusminus" format="1">
  <advance width="620"/>
  <unicode hex="00B1"/>
  <outline>
	<contour>
	  <point x="273" y="623" type="line"/>
	  <point x="273" y="197" type="line"/>
	  <point x="348" y="197" type="line"/>
	  <point x="348" y="623" type="line"/>
	</contour>
	<contour>
	  <point x="67" y="447" type="line"/>
	  <point x="67" y="372" type="line"/>
	  <point x="553" y="372" type="line"/>
	  <point x="553" y="447" type="line"/>
	</contour>
	<contour>
	  <point x="67" y="108" type="line"/>
	  <point x="67" y="33" type="line"/>
	  <point x="553" y="33" type="line"/>
	  <point x="553" y="108" type="line"/>
	</contour>
  </outline>
</glyph>
<glyph name="paragraph" format="1">
  <advance width="681"/>
  <unicode hex="00B6"/>
  <outline>
	<contour>
	  <point x="320" y="659" type="line" smooth="yes"/>
	  <point x="155" y="660"/>
	  <point x="46" y="567"/>
	  <point x="46" y="425" type="curve" smooth="yes"/>
	  <point x="46" y="286"/>
	  <point x="145" y="193"/>
	  <point x="299" y="191" type="curve"/>
	  <point x="299" y="-210" type="line"/>
	  <point x="372" y="-210" type="line"/>
	  <point x="372" y="593" type="line"/>
	  <point x="501" y="593" type="line"/>
	  <point x="501" y="-210" type="line"/>
	  <point x="571" y="-210" type="line"/>
	  <point x="571" y="660" type="line"/>
	</contour>
	<contour>
	  <point x="299" y="258" type="line"/>
	  <point x="185" y="260"/>
	  <point x="122" y="321"/>
	  <point x="122" y="425" type="curve" smooth="yes"/>
	  <point x="122" y="527"/>
	  <point x="185" y="588"/>
	  <point x="299" y="593" type="curve"/>
	</contour>
  </outline>
</glyph>
<glyph name="ordmasculine" format="1">
  <advance width="457"/>
  <unicode hex="00BA"/>
  <outline>
	<contour>
	  <point x="125" y="670"/>
	  <point x="55" y="601"/>
	  <point x="55" y="488" type="curve" smooth="yes"/>
	  <point x="55" y="375"/>
	  <point x="125" y="306"/>
	  <point x="228" y="306" type="curve" smooth="yes"/>
	  <point x="331" y="306"/>
	  <point x="401" y="375"/>
	  <point x="401" y="488" type="curve" smooth="yes"/>
	  <point x="401" y="601"/>
	  <point x="331" y="670"/>
	  <point x="228" y="670" type="curve" smooth="yes"/>
	</contour>
	<contour>
	  <point x="63" y="222" type="line"/>
	  <point x="63" y="169" type="line"/>
	  <point x="394" y="169" type="line"/>
	  <point x="394" y="222" type="line"/>
	</contour>
	<contour>
	  <point x="294" y="613"/>
	  <point x="336" y="571"/>
	  <point x="336" y="488" type="curve" smooth="yes"/>
	  <point x="336" y="405"/>
	  <point x="294" y="363"/>
	  <point x="228" y="363" type="curve" smooth="yes"/>
	  <point x="162" y="363"/>
	  <point x="120" y="405"/>
	  <point x="120" y="488" type="curve" smooth="yes"/>
	  <point x="120" y="571"/>
	  <point x="162" y="613"/>
	  <point x="228" y="613" type="curve" smooth="yes"/>
	</contour>
  </outline>
</glyph>
<glyph name="onequarter" format="1">
  <advance width="639"/>
  <unicode hex="00BC"/>
  <outline>
	<contour>
	  <point x="12" y="537" type="line"/>
	  <point x="67" y="553"/>
	  <point x="120" y="597"/>
	  <point x="147" y="642" type="curve"/>
	  <point x="122" y="660" type="line"/>
	  <point x="100" y="633"/>
	  <point x="40" y="604"/>
	  <point x="12" y="601" type="curve"/>
	</contour>
	<contour>
	  <point x="122" y="660" type="line"/>
	  <point x="114" y="557" type="line"/>
	  <point x="114" y="306" type="line"/>
	  <point x="179" y="306" type="line"/>
	  <point x="179" y="577" type="line"/>
	  <point x="179" y="660" type="line"/>
	</contour>
	<contour>
	  <point x="494" y="354" type="line"/>
	  <point x="350" y="124" type="line"/>
	  <point x="385" y="107" type="line"/>
	  <point x="434" y="172" type="line"/>
	  <point x="492" y="262" type="line"/>
	  <point x="539" y="354" type="line"/>
	</contour>
	<contour>
	  <point x="516" y="354" type="line"/>
	  <point x="503" y="109" type="line"/>
	  <point x="503" y="0" type="line"/>
	  <point x="563" y="0" type="line"/>
	  <point x="563" y="109" type="line"/>
	  <point x="563" y="354" type="line"/>
	</contour>
	<contour>
	  <point x="442" y="131" type="line"/>
	  <point x="350" y="124" type="line"/>
	  <point x="350" y="79" type="line"/>
	  <point x="636" y="79" type="line"/>
	  <point x="636" y="131" type="line"/>
	</contour>
	<component base="fraction" xOffset="81"/>
  </outline>
</glyph>
<glyph name="AE" format="1">
  <advance width="940"/>
  <unicode hex="00C6"/>
  <outline>
	<contour>
	  <point x="383" y="660" type="line"/>
	  <point x="-3" y="0" type="line"/>
	  <point x="83" y="0" type="line"/>
	  <point x="465" y="660" type="line"/>
	</contour>
	<contour>
	  <point x="207" y="288" type="line"/>
	  <point x="167" y="213" type="line"/>
	  <point x="482" y="213" type="line"/>
	  <point x="482" y="288" type="line"/>
	</contour>
	<contour>
	  <point x="484" y="75" type="line"/>
	  <point x="484" y="0" type="line"/>
	  <point x="893" y="0" type="line"/>
	  <point x="893" y="75" type="line"/>
	</contour>
	<contour>
	  <point x="442" y="660" type="line"/>
	  <point x="442" y="0" type="line"/>
	  <point x="522" y="0" type="line"/>
	  <point x="522" y="660" type="line"/>
	</contour>
	<contour>
	  <point x="484" y="372" type="line"/>
	  <point x="484" y="297" type="line"/>
	  <point x="793" y="297" type="line"/>
	  <point x="793" y="372" type="line"/>
	</contour>
	<contour>
	  <point x="420" y="660" type="line"/>
	  <point x="380" y="585" type="line"/>
	  <point x="479" y="585" type="line"/>
	  <point x="495" y="585" type="line"/>
	  <point x="878" y="585" type="line"/>
	  <point x="878" y="660" type="line"/>
	</contour>
  </outline>
</glyph>
<glyph name="Idieresis" format="1">
  <advance width="300"/>
  <unicode hex="00CF"/>
  <outline>
	<contour>
	  <point x="30" y="866"/>
	  <point x="7" y="843"/>
	  <point x="7" y="809" type="curve" smooth="yes"/>
	  <point x="7" y="775"/>
	  <point x="30" y="752"/>
	  <point x="64" y="752" type="curve" smooth="yes"/>
	  <point x="98" y="752"/>
	  <point x="121" y="775"/>
	  <point x="121" y="809" type="curve" smooth="yes"/>
	  <point x="121" y="843"/>
	  <point x="98" y="866"/>
	  <point x="64" y="866" type="curve" smooth="yes"/>
	</contour>
	<contour>
	  <point x="202" y="866"/>
	  <point x="179" y="843"/>
	  <point x="179" y="809" type="curve" smooth="yes"/>
	  <point x="179" y="775"/>
	  <point x="202" y="752"/>
	  <point x="236" y="752" type="curve" smooth="yes"/>
	  <point x="270" y="752"/>
	  <point x="293" y="775"/>
	  <point x="293" y="809" type="curve" smooth="yes"/>
	  <point x="293" y="843"/>
	  <point x="270" y="866"/>
	  <point x="236" y="866" type="curve" smooth="yes"/>
	</contour>
	<component base="I"/>
  </outline>
</glyph>
<glyph name="Oslash" format="1">
  <advance width="752"/>
  <unicode hex="00D8"/>
  <outline>
	<contour>
	  <point x="601" y="683" type="line"/>
	  <point x="529" y="580" type="line"/>
	  <point x="575" y="544" type="line"/>
	  <point x="672" y="683" type="line"/>
	</contour>
	<contour>
	  <point x="194" y="100" type="line"/>
	  <point x="240" y="63" type="line"/>
	  <point x="575" y="544" type="line"/>
	  <point x="529" y="580" type="line"/>
	</contour>
	<contour>
	  <point x="170" y="-37" type="line"/>
	  <point x="240" y="63" type="line"/>
	  <point x="194" y="100" type="line"/>
	  <point x="99" y="-37" type="line"/>
	</contour>
	<component base="O"/>
  </outline>
</glyph>
<glyph name="oslash" format="1">
  <advance width="614"/>
  <unicode hex="00F8"/>
  <outline>
	<contour>
	  <point x="156" y="87" type="line"/>
	  <point x="62" y="-37" type="line"/>
	  <point x="129" y="-37" type="line"/>
	  <point x="198" y="55" type="line"/>
	</contour>
	<contour>
	  <point x="466" y="410" type="line"/>
	  <point x="552" y="523" type="line"/>
	  <point x="485" y="523" type="line"/>
	  <point x="420" y="437" type="line"/>
	</contour>
	<contour>
	  <point x="198" y="55" type="line"/>
	  <point x="466" y="410" type="line"/>
	  <point x="420" y="437" type="line"/>
	  <point x="156" y="87" type="line"/>
	</contour>
	<component base="o"/>
  </outline>
</glyph>
<glyph name="aogonek" format="1">
  <advance width="543"/>
  <unicode hex="0105"/>
  <outline>
	<contour>
	  <point x="154" y="510"/>
	  <point x="75" y="462"/>
	  <point x="49" y="388" type="curve"/>
	  <point x="108" y="345" type="line"/>
	  <point x="135" y="408"/>
	  <point x="185" y="440"/>
	  <point x="251" y="440" type="curve" smooth="yes"/>
	  <point x="326" y="440"/>
	  <point x="368" y="396"/>
	  <point x="368" y="330" type="curve" smooth="yes"/>
	  <point x="368" y="128" type="line"/>
	  <point x="368" y="112" type="line" smooth="yes"/>
	  <point x="368" y="16"/>
	  <point x="432" y="-10"/>
	  <point x="471" y="-10" type="curve" smooth="yes"/>
	  <point x="486" y="-10"/>
	  <point x="507" y="-5"/>
	  <point x="521" y="0" type="curve"/>
	  <point x="526" y="63" type="line"/>
	  <point x="514" y="60"/>
	  <point x="499" y="58"/>
	  <point x="486" y="58" type="curve" smooth="yes"/>
	  <point x="458" y="58"/>
	  <point x="448" y="70"/>
	  <point x="448" y="94" type="curve" smooth="yes"/>
	  <point x="448" y="340" type="line" smooth="yes"/>
	  <point x="448" y="456"/>
	  <point x="365" y="510"/>
	  <point x="251" y="510" type="curve" smooth="yes"/>
	</contour>
	<contour>
	  <point x="386" y="-6"/>
	  <point x="332" y="-49"/>
	  <point x="332" y="-119" type="curve" smooth="yes"/>
	  <point x="332" y="-177"/>
	  <point x="379" y="-215"/>
	  <point x="451" y="-215" type="curve" smooth="yes"/>
	  <point x="480" y="-215"/>
	  <point x="513" y="-209"/>
	  <point x="532" y="-197" type="curve"/>
	  <point x="516" y="-146" type="line"/>
	  <point x="500" y="-156"/>
	  <point x="478" y="-158"/>
	  <point x="461" y="-158" type="curve" smooth="yes"/>
	  <point x="423" y="-158"/>
	  <point x="397" y="-138"/>
	  <point x="397" y="-105" type="curve" smooth="yes"/>
	  <point x="397" y="-65"/>
	  <point x="423" y="-30"/>
	  <point x="521" y="0" type="curve"/>
	  <point x="475" y="26" type="line"/>
	</contour>
	<contour>
	  <point x="235" y="280" type="line" smooth="yes"/>
	  <point x="106" y="258"/>
	  <point x="40" y="199"/>
	  <point x="40" y="124" type="curve" smooth="yes"/>
	  <point x="40" y="34"/>
	  <point x="116" y="-10"/>
	  <point x="210" y="-10" type="curve" smooth="yes"/>
	  <point x="298" y="-10"/>
	  <point x="390" y="42"/>
	  <point x="390" y="125" type="curve"/>
	  <point x="368" y="168" type="line"/>
	  <point x="368" y="102"/>
	  <point x="294" y="60"/>
	  <point x="214" y="60" type="curve" smooth="yes"/>
	  <point x="157" y="60"/>
	  <point x="123" y="82"/>
	  <point x="123" y="124" type="curve" smooth="yes"/>
	  <point x="123" y="171"/>
	  <point x="168" y="198"/>
	  <point x="256" y="216" type="curve" smooth="yes"/>
	  <point x="414" y="245" type="line"/>
	  <point x="403" y="308" type="line"/>
	</contour>
	<contour>
	  <point x="521" y="0" type="move" name="ogonek"/>
	</contour>
	<contour>
	  <point x="259" y="500" type="move" name="top"/>
	</contour>
  </outline>
</glyph>
<glyph name="Dcroat" format="1">
  <advance width="725"/>
  <unicode hex="0110"/>
  <outline>
	<contour>
	  <point x="10" y="363" type="line"/>
	  <point x="10" y="303" type="line"/>
	  <point x="385" y="303" type="line"/>
	  <point x="385" y="363" type="line"/>
	</contour>
	<component base="D"/>
  </outline>
</glyph>
<glyph name="dotlessi" format="1">
  <advance width="268"/>
  <unicode hex="0131"/>
  <outline>
	<contour>
	  <point x="94" y="500" type="line"/>
	  <point x="94" y="0" type="line"/>
	  <point x="174" y="0" type="line"/>
	  <point x="174" y="500" type="line"/>
	</contour>
	<contour>
	  <point x="174" y="0" type="move" name="ogonek"/>
	</contour>
	<contour>
	  <point x="134" y="500" type="move" name="top"/>
	</contour>
  </outline>
</glyph>
<glyph name="lacute" format="1">
  <advance width="304"/>
  <unicode hex="013A"/>
  <outline>
	<contour>
	  <point x="98" y="800" type="line"/>
	  <point x="162" y="800" type="line"/>
	  <point x="223" y="930" type="line"/>
	  <point x="135" y="930" type="line"/>
	</contour>
	<component base="l"/>
  </outline>
</glyph>
<glyph name="lslash" format="1">
  <advance width="349"/>
  <unicode hex="0142"/>
  <outline>
	<contour>
	  <point x="163" y="398" type="line"/>
	  <point x="27" y="312" type="line"/>
	  <point x="27" y="229" type="line"/>
	  <point x="175" y="323" type="line"/>
	  <point x="323" y="417" type="line"/>
	  <point x="323" y="500" type="line"/>
	</contour>
	<component base="l" xOffset="29"/>
  </outline>
</glyph>
<glyph name="florin" format="1">
  <advance width="486"/>
  <unicode hex="0192"/>
  <outline>
	<contour>
	  <point x="307" y="735"/>
	  <point x="264" y="673"/>
	  <point x="250" y="584" type="curve" smooth="yes"/>
	  <point x="162" y="31" type="line" smooth="yes"/>
	  <point x="152" y="-30"/>
	  <point x="126" y="-55"/>
	  <point x="85" y="-55" type="curve" smooth="yes"/>
	  <point x="51" y="-55"/>
	  <point x="30" y="-45"/>
	  <point x="12" y="-32" type="curve"/>
	  <point x="0" y="-104" type="line"/>
	  <point x="22" y="-117"/>
	  <point x="40" y="-128"/>
	  <point x="92" y="-128" type="curve" smooth="yes"/>
	  <point x="185" y="-128"/>
	  <point x="228" y="-66"/>
	  <point x="242" y="23" type="curve" smooth="yes"/>
	  <point x="330" y="576" type="line" smooth="yes"/>
	  <point x="340" y="637"/>
	  <point x="366" y="662"/>
	  <point x="407" y="662" type="curve" smooth="yes"/>
	  <point x="441" y="662"/>
	  <point x="462" y="652"/>
	  <point x="480" y="639" type="curve"/>
	  <point x="492" y="711" type="line"/>
	  <point x="470" y="724"/>
	  <point x="452" y="735"/>
	  <point x="400" y="735" type="curve" smooth="yes"/>
	</contour>
	<contour>
	  <point x="70" y="400" type="line"/>
	  <point x="70" y="331" type="line"/>
	  <point x="450" y="331" type="line"/>
	  <point x="450" y="400" type="line"/>
	</contour>
  </outline>
</glyph>
<glyph name="ogonek" format="1">
  <advance width="600"/>
  <unicode hex="02DB"/>
  <outline>
	<contour>
	  <point x="345" y="41" type="line"/>
	  <point x="246" y="-1"/>
	  <point x="192" y="-41"/>
	  <point x="192" y="-116" type="curve" smooth="yes"/>
	  <point x="192" y="-174"/>
	  <point x="239" y="-215"/>
	  <point x="311" y="-215" type="curve" smooth="yes"/>
	  <point x="340" y="-215"/>
	  <point x="373" y="-209"/>
	  <point x="392" y="-197" type="curve"/>
	  <point x="376" y="-146" type="line"/>
	  <point x="360" y="-156"/>
	  <point x="338" y="-158"/>
	  <point x="321" y="-158" type="curve" smooth="yes"/>
	  <point x="283" y="-158"/>
	  <point x="257" y="-138"/>
	  <point x="257" y="-105" type="curve" smooth="yes"/>
	  <point x="257" y="-68"/>
	  <point x="291" y="-28"/>
	  <point x="391" y="16" type="curve"/>
	</contour>
	<contour>
	  <point x="391" y="16" type="move" name="_ogonek"/>
	</contour>
  </outline>
</glyph>
<glyph name="hungarumlaut" format="1">
  <advance width="500"/>
  <unicode hex="02DD"/>
  <outline>
	<contour>
	  <point x="334" y="750" type="line"/>
	  <point x="258" y="583" type="line"/>
	  <point x="323" y="583" type="line"/>
	  <point x="421" y="750" type="line"/>
	</contour>
	<contour>
	  <point x="158" y="750" type="line"/>
	  <point x="82" y="583" type="line"/>
	  <point x="147" y="583" type="line"/>
	  <point x="245" y="750" type="line"/>
	</contour>
	<contour>
	  <point x="223" y="500" type="move" name="_top"/>
	</contour>
  </outline>
</glyph>
<glyph name="commaaccent" format="1">
  <advance width="275"/>
  <unicode hex="0326"/>
  <outline>
	<contour>
	  <point x="84" y="-76" type="line"/>
	  <point x="40" y="-237" type="line"/>
	  <point x="103" y="-237" type="line"/>
	  <point x="168" y="-76" type="line"/>
	</contour>
	<contour>
	  <point x="138" y="0" type="move" name="_bottom"/>
	</contour>
  </outline>
</glyph>
<glyph name="U0950" format="1">
  <advance width="874"/>
  <unicode hex="0950"/>
  <outline>
	<contour>
	  <point x="447" y="1"/>
	  <point x="514" y="59"/>
	  <point x="514" y="153" type="curve" smooth="yes"/>
	  <point x="514" y="207"/>
	  <point x="491" y="266"/>
	  <point x="445" y="329" type="curve"/>
	  <point x="480" y="353"/>
	  <point x="508" y="364"/>
	  <point x="529" y="364" type="curve" smooth="yes"/>
	  <point x="556" y="364"/>
	  <point x="568" y="339"/>
	  <point x="568" y="290" type="curve" smooth="yes"/>
	  <point x="568" y="251" type="line" smooth="yes"/>
	  <point x="568" y="165"/>
	  <point x="584" y="112"/>
	  <point x="661" y="112" type="curve" smooth="yes"/>
	  <point x="774" y="112"/>
	  <point x="818" y="231"/>
	  <point x="818" y="356" type="curve" smooth="yes"/>
	  <point x="818" y="477"/>
	  <point x="791" y="577"/>
	  <point x="682" y="577" type="curve" smooth="yes"/>
	  <point x="613" y="577"/>
	  <point x="570" y="535"/>
	  <point x="554" y="449" type="curve"/>
	  <point x="546" y="451"/>
	  <point x="540" y="451"/>
	  <point x="536" y="451" type="curve" smooth="yes"/>
	  <point x="494" y="451"/>
	  <point x="449" y="428"/>
	  <point x="403" y="384" type="curve"/>
	  <point x="385" y="400" type="line"/>
	  <point x="395" y="419"/>
	  <point x="399" y="438"/>
	  <point x="399" y="459" type="curve" smooth="yes"/>
	  <point x="399" y="555"/>
	  <point x="336" y="623"/>
	  <point x="241" y="623" type="curve" smooth="yes"/>
	  <point x="204" y="623"/>
	  <point x="171" y="615"/>
	  <point x="139" y="599" type="curve"/>
	  <point x="172" y="518" type="line"/>
	  <point x="213" y="539"/>
	  <point x="251" y="550"/>
	  <point x="287" y="550" type="curve" smooth="yes"/>
	  <point x="336" y="550"/>
	  <point x="363" y="532"/>
	  <point x="363" y="486" type="curve" smooth="yes"/>
	  <point x="363" y="431"/>
	  <point x="322" y="392"/>
	  <point x="242" y="368" type="curve"/>
	  <point x="276" y="286" type="line"/>
	  <point x="312" y="302"/>
	  <point x="343" y="329"/>
	  <point x="370" y="365" type="curve"/>
	  <point x="421" y="314"/>
	  <point x="447" y="255"/>
	  <point x="447" y="192" type="curve" smooth="yes"/>
	  <point x="447" y="124"/>
	  <point x="393" y="67"/>
	  <point x="328" y="67" type="curve" smooth="yes"/>
	  <point x="177" y="67"/>
	  <point x="92" y="238"/>
	  <point x="69" y="384" type="curve"/>
	  <point x="42" y="375" type="line"/>
	  <point x="59" y="197"/>
	  <point x="170" y="1"/>
	  <point x="351" y="1" type="curve" smooth="yes"/>
	</contour>
	<contour>
	  <point x="624" y="183"/>
	  <point x="605" y="216"/>
	  <point x="605" y="281" type="curve" smooth="yes"/>
	  <point x="605" y="375" type="line" smooth="yes"/>
	  <point x="605" y="409"/>
	  <point x="595" y="431"/>
	  <point x="575" y="441" type="curve"/>
	  <point x="596" y="484"/>
	  <point x="629" y="505"/>
	  <point x="672" y="505" type="curve" smooth="yes"/>
	  <point x="745" y="505"/>
	  <point x="781" y="428"/>
	  <point x="781" y="350" type="curve" smooth="yes"/>
	  <point x="781" y="268"/>
	  <point x="740" y="183"/>
	  <point x="665" y="183" type="curve" smooth="yes"/>
	</contour>
	<contour>
	  <point x="531" y="595"/>
	  <point x="577" y="619"/>
	  <point x="622" y="668" type="curve"/>
	  <point x="553" y="724" type="line"/>
	  <point x="522" y="682"/>
	  <point x="486" y="661"/>
	  <point x="442" y="661" type="curve" smooth="yes"/>
	  <point x="398" y="661"/>
	  <point x="358" y="682"/>
	  <point x="326" y="724" type="curve"/>
	  <point x="302" y="707" type="line"/>
	  <point x="351" y="633"/>
	  <point x="412" y="595"/>
	  <point x="483" y="595" type="curve" smooth="yes"/>
	</contour>
	<contour>
	  <point x="505" y="756" type="line"/>
	  <point x="454" y="809" type="line"/>
	  <point x="402" y="760" type="line"/>
	  <point x="454" y="706" type="line"/>
	</contour>
  </outline>
</glyph>
<glyph name="U0952" format="1">
  <advance width="0"/>
  <unicode hex="0952"/>
  <outline>
	<contour>
	  <point x="-67" y="-472" type="line"/>
	  <point x="-67" y="-414" type="line"/>
	  <point x="-739" y="-414" type="line"/>
	  <point x="-739" y="-472" type="line"/>
	</contour>
  </outline>
</glyph>
<glyph name="U0C03" format="1">
  <advance width="300"/>
  <unicode hex="0C03"/>
  <outline>
	<contour>
	  <point x="225" y="290"/>
	  <point x="272" y="332"/>
	  <point x="272" y="400" type="curve" smooth="yes"/>
	  <point x="272" y="469"/>
	  <point x="225" y="511"/>
	  <point x="148" y="511" type="curve" smooth="yes"/>
	  <point x="71" y="511"/>
	  <point x="25" y="469"/>
	  <point x="25" y="400" type="curve" smooth="yes"/>
	  <point x="25" y="332"/>
	  <point x="71" y="290"/>
	  <point x="148" y="290" type="curve" smooth="yes"/>
	</contour>
	<contour>
	  <point x="225" y="-7"/>
	  <point x="272" y="35"/>
	  <point x="272" y="104" type="curve" smooth="yes"/>
	  <point x="272" y="172"/>
	  <point x="225" y="214"/>
	  <point x="148" y="214" type="curve" smooth="yes"/>
	  <point x="71" y="214"/>
	  <point x="25" y="172"/>
	  <point x="25" y="104" type="curve" smooth="yes"/>
	  <point x="25" y="35"/>
	  <point x="71" y="-7"/>
	  <point x="148" y="-7" type="curve" smooth="yes"/>
	</contour>
	<contour>
	  <point x="118" y="60"/>
	  <point x="99" y="77"/>
	  <point x="99" y="105" type="curve" smooth="yes"/>
	  <point x="99" y="133"/>
	  <point x="118" y="150"/>
	  <point x="148" y="150" type="curve" smooth="yes"/>
	  <point x="179" y="150"/>
	  <point x="197" y="133"/>
	  <point x="197" y="105" type="curve" smooth="yes"/>
	  <point x="197" y="77"/>
	  <point x="179" y="60"/>
	  <point x="148" y="60" type="curve" smooth="yes"/>
	</contour>
	<contour>
	  <point x="118" y="357"/>
	  <point x="99" y="374"/>
	  <point x="99" y="402" type="curve" smooth="yes"/>
	  <point x="99" y="430"/>
	  <point x="118" y="447"/>
	  <point x="148" y="447" type="curve" smooth="yes"/>
	  <point x="179" y="447"/>
	  <point x="197" y="430"/>
	  <point x="197" y="402" type="curve" smooth="yes"/>
	  <point x="197" y="374"/>
	  <point x="179" y="357"/>
	  <point x="148" y="357" type="curve" smooth="yes"/>
	</contour>
  </outline>
</glyph>
<glyph name="U0C06" format="1">
  <advance width="659"/>
  <unicode hex="0C06"/>
  <outline>
	<contour>
	  <point x="486" y="-7"/>
	  <point x="627" y="88"/>
	  <point x="630" y="214" type="curve" smooth="yes"/>
	  <point x="631" y="246"/>
	  <point x="617" y="290"/>
	  <point x="580" y="319" type="curve"/>
	  <point x="462" y="300" type="line"/>
	  <point x="500" y="283"/>
	  <point x="526" y="258"/>
	  <point x="526" y="220" type="curve" smooth="yes"/>
	  <point x="526" y="162"/>
	  <point x="462" y="88"/>
	  <point x="332" y="88" type="curve" smooth="yes"/>
	  <point x="182" y="88"/>
	  <point x="137" y="182"/>
	  <point x="137" y="281" type="curve" smooth="yes"/>
	  <point x="137" y="395"/>
	  <point x="207" y="441"/>
	  <point x="267" y="438" type="curve"/>
	  <point x="267" y="535" type="line"/>
	  <point x="136" y="535"/>
	  <point x="22" y="405"/>
	  <point x="22" y="263" type="curve" smooth="yes"/>
	  <point x="22" y="104"/>
	  <point x="130" y="-7"/>
	  <point x="332" y="-7" type="curve" smooth="yes"/>
	</contour>
	<contour>
	  <point x="466" y="252" type="line"/>
	  <point x="466" y="340" type="line"/>
	  <point x="190" y="340" type="line"/>
	  <point x="190" y="252" type="line"/>
	</contour>
	<contour>
	  <point x="553" y="252"/>
	  <point x="620" y="315"/>
	  <point x="620" y="398" type="curve" smooth="yes"/>
	  <point x="620" y="480"/>
	  <point x="553" y="543"/>
	  <point x="466" y="543" type="curve" smooth="yes"/>
	  <point x="378" y="543"/>
	  <point x="311" y="480"/>
	  <point x="311" y="398" type="curve" smooth="yes"/>
	  <point x="311" y="315"/>
	  <point x="378" y="252"/>
	  <point x="466" y="252" type="curve" smooth="yes"/>
	</contour>
	<contour>
	  <point x="441" y="353"/>
	  <point x="423" y="371"/>
	  <point x="423" y="398" type="curve" smooth="yes"/>
	  <point x="423" y="424"/>
	  <point x="441" y="442"/>
	  <point x="466" y="442" type="curve" smooth="yes"/>
	  <point x="491" y="442"/>
	  <point x="510" y="424"/>
	  <point x="510" y="398" type="curve" smooth="yes"/>
	  <point x="510" y="371"/>
	  <point x="491" y="353"/>
	  <point x="466" y="353" type="curve" smooth="yes"/>
	</contour>
  </outline>
</glyph>
<glyph name="U0C0F" format="1">
  <advance width="685"/>
  <unicode hex="0C0F"/>
  <outline>
	<contour>
	  <point x="553" y="-7"/>
	  <point x="658" y="98"/>
	  <point x="658" y="245" type="curve" smooth="yes"/>
	  <point x="658" y="402"/>
	  <point x="560" y="511"/>
	  <point x="421" y="511" type="curve" smooth="yes"/>
	  <point x="391" y="511"/>
	  <point x="368" y="507"/>
	  <point x="350" y="501" type="curve"/>
	  <point x="350" y="389" type="line"/>
	  <point x="368" y="393"/>
	  <point x="395" y="398"/>
	  <point x="416" y="398" type="curve" smooth="yes"/>
	  <point x="470" y="398"/>
	  <point x="545" y="346"/>
	  <point x="545" y="253" type="curve" smooth="yes"/>
	  <point x="545" y="153"/>
	  <point x="486" y="105"/>
	  <point x="448" y="105" type="curve" smooth="yes"/>
	  <point x="413" y="105"/>
	  <point x="393" y="123"/>
	  <point x="393" y="160" type="curve"/>
	  <point x="305" y="97" type="line"/>
	  <point x="305" y="48"/>
	  <point x="357" y="-7"/>
	  <point x="441" y="-7" type="curve" smooth="yes"/>
	</contour>
	<contour>
	  <point x="165" y="367" type="line"/>
	  <point x="151" y="386"/>
	  <point x="141" y="403"/>
	  <point x="141" y="444" type="curve" smooth="yes"/>
	  <point x="141" y="484"/>
	  <point x="175" y="584"/>
	  <point x="314" y="584" type="curve" smooth="yes"/>
	  <point x="356" y="584"/>
	  <point x="382" y="575"/>
	  <point x="410" y="554" type="curve"/>
	  <point x="466" y="637" type="line"/>
	  <point x="438" y="668"/>
	  <point x="386" y="687"/>
	  <point x="321" y="687" type="curve" smooth="yes"/>
	  <point x="193" y="687"/>
	  <point x="20" y="616"/>
	  <point x="20" y="437" type="curve" smooth="yes"/>
	  <point x="20" y="410"/>
	  <point x="29" y="385"/>
	  <point x="41" y="367" type="curve"/>
	</contour>
	<component base="U0C0E.part.circle" xOffset="15"/>
  </outline>
</glyph>
<glyph name="U0C1D" format="1">
  <advance width="1238"/>
  <unicode hex="0C1D"/>
  <outline>
	<contour>
	  <point x="1099" y="-8"/>
	  <point x="1210" y="83"/>
	  <point x="1210" y="262" type="curve" smooth="yes"/>
	  <point x="1210" y="395"/>
	  <point x="1114" y="507"/>
	  <point x="1007" y="507" type="curve" smooth="yes"/>
	  <point x="991" y="507"/>
	  <point x="962" y="505"/>
	  <point x="951" y="504" type="curve"/>
	  <point x="951" y="406" type="line"/>
	  <point x="991" y="407" type="line" smooth="yes"/>
	  <point x="1044" y="409"/>
	  <point x="1109" y="358"/>
	  <point x="1109" y="255" type="curve" smooth="yes"/>
	  <point x="1109" y="161"/>
	  <point x="1047" y="104"/>
	  <point x="991" y="104" type="curve" smooth="yes"/>
	  <point x="944" y="104"/>
	  <point x="885" y="118"/>
	  <point x="862" y="231" type="curve"/>
	  <point x="799" y="148" type="line"/>
	  <point x="799" y="80"/>
	  <point x="857" y="-8"/>
	  <point x="979" y="-8" type="curve" smooth="yes"/>
	</contour>
	<component base="bot.dotmark" xOffset="504"/>
	<component base="U0C0B.part" xOffset="-416" xScale="1.014"/>
	<component base="U0C30"/>
  </outline>
</glyph>
<glyph name="U0C23" format="1">
  <advance width="668"/>
  <unicode hex="0C23"/>
  <outline>
	<contour>
	  <point x="577" y="-8"/>
	  <point x="640" y="105"/>
	  <point x="640" y="252" type="curve" smooth="yes"/>
	  <point x="640" y="382"/>
	  <point x="571" y="511"/>
	  <point x="448" y="511" type="curve" smooth="yes"/>
	  <point x="386" y="511"/>
	  <point x="354" y="489"/>
	  <point x="326" y="455" type="curve"/>
	  <point x="307" y="487"/>
	  <point x="260" y="514"/>
	  <point x="202" y="514" type="curve" smooth="yes"/>
	  <point x="106" y="514"/>
	  <point x="21" y="459"/>
	  <point x="21" y="365" type="curve" smooth="yes"/>
	  <point x="21" y="323"/>
	  <point x="41" y="291"/>
	  <point x="80" y="270" type="curve"/>
	  <point x="42" y="249"/>
	  <point x="22" y="204"/>
	  <point x="22" y="147" type="curve" smooth="yes"/>
	  <point x="22" y="50"/>
	  <point x="92" y="-7"/>
	  <point x="175" y="-7" type="curve" smooth="yes"/>
	  <point x="195" y="-7"/>
	  <point x="214" y="-4"/>
	  <point x="235" y="1" type="curve"/>
	  <point x="235" y="106" type="line"/>
	  <point x="228" y="102"/>
	  <point x="218" y="101"/>
	  <point x="207" y="101" type="curve" smooth="yes"/>
	  <point x="169" y="101"/>
	  <point x="132" y="124"/>
	  <point x="132" y="164" type="curve" smooth="yes"/>
	  <point x="132" y="217"/>
	  <point x="165" y="239"/>
	  <point x="204" y="239" type="curve" smooth="yes"/>
	  <point x="217" y="239" type="line"/>
	  <point x="217" y="332" type="line"/>
	  <point x="210" y="328"/>
	  <point x="202" y="326"/>
	  <point x="192" y="326" type="curve" smooth="yes"/>
	  <point x="165" y="326"/>
	  <point x="139" y="340"/>
	  <point x="139" y="375" type="curve" smooth="yes"/>
	  <point x="139" y="405"/>
	  <point x="160" y="424"/>
	  <point x="203" y="424" type="curve" smooth="yes"/>
	  <point x="240" y="424"/>
	  <point x="276" y="398"/>
	  <point x="276" y="350" type="curve"/>
	  <point x="385" y="350" type="line"/>
	  <point x="385" y="389"/>
	  <point x="402" y="409"/>
	  <point x="437" y="409" type="curve" smooth="yes"/>
	  <point x="508" y="409"/>
	  <point x="536" y="326"/>
	  <point x="536" y="237" type="curve"/>
	  <point x="525" y="259"/>
	  <point x="491" y="274"/>
	  <point x="451" y="274" type="curve" smooth="yes"/>
	  <point x="364" y="274"/>
	  <point x="298" y="214"/>
	  <point x="298" y="127" type="curve" smooth="yes"/>
	  <point x="298" y="44"/>
	  <point x="369" y="-8"/>
	  <point x="452" y="-8" type="curve" smooth="yes"/>
	</contour>
	<contour>
	  <point x="427" y="83"/>
	  <point x="405" y="105"/>
	  <point x="405" y="137" type="curve" smooth="yes"/>
	  <point x="405" y="169"/>
	  <point x="427" y="190"/>
	  <point x="459" y="190" type="curve" smooth="yes"/>
	  <point x="491" y="190"/>
	  <point x="512" y="169"/>
	  <point x="512" y="137" type="curve" smooth="yes"/>
	  <point x="512" y="105"/>
	  <point x="491" y="83"/>
	  <point x="459" y="83" type="curve" smooth="yes"/>
	</contour>
  </outline>
</glyph>
<glyph name="U0C2F" format="1">
  <advance width="1291"/>
  <unicode hex="0C2F"/>
  <outline>
	<contour>
	  <point x="851" y="-7"/>
	  <point x="949" y="90"/>
	  <point x="949" y="265" type="curve" smooth="yes"/>
	  <point x="949" y="409"/>
	  <point x="843" y="504"/>
	  <point x="735" y="504" type="curve" smooth="yes"/>
	  <point x="692" y="504" type="line"/>
	  <point x="623" y="409" type="line"/>
	  <point x="711" y="409" type="line" smooth="yes"/>
	  <point x="792" y="409"/>
	  <point x="850" y="360"/>
	  <point x="850" y="256" type="curve" smooth="yes"/>
	  <point x="850" y="157"/>
	  <point x="785" y="104"/>
	  <point x="727" y="104" type="curve" smooth="yes"/>
	  <point x="650" y="104"/>
	  <point x="602" y="155"/>
	  <point x="571" y="255" type="curve"/>
	  <point x="498" y="207" type="line"/>
	  <point x="498" y="102"/>
	  <point x="589" y="-7"/>
	  <point x="717" y="-7" type="curve" smooth="yes"/>
	</contour>
	<component base="U0C24.topmark" xOffset="330" yOffset="-6"/>
	<component base="U0C0B.part" xOffset="-31" xScale="1.014"/>
	<component base="U0C30.base" xOffset="7"/>
  </outline>
</glyph>
<glyph name="U0C34" format="1">
  <advance width="713"/>
  <unicode hex="0C34"/>
  <outline>
	<contour>
	  <point x="615" y="-7"/>
	  <point x="685" y="94"/>
	  <point x="685" y="232" type="curve" smooth="yes"/>
	  <point x="685" y="391"/>
	  <point x="610" y="517"/>
	  <point x="503" y="517" type="curve" smooth="yes"/>
	  <point x="437" y="517"/>
	  <point x="378" y="473"/>
	  <point x="378" y="382" type="curve" smooth="yes"/>
	  <point x="378" y="314"/>
	  <point x="417" y="249"/>
	  <point x="497" y="249" type="curve" smooth="yes"/>
	  <point x="526" y="249"/>
	  <point x="550" y="260"/>
	  <point x="567" y="287" type="curve"/>
	  <point x="573" y="273"/>
	  <point x="578" y="252"/>
	  <point x="578" y="227" type="curve" smooth="yes"/>
	  <point x="578" y="137"/>
	  <point x="542" y="85"/>
	  <point x="480" y="85" type="curve" smooth="yes"/>
	  <point x="437" y="85"/>
	  <point x="409" y="105"/>
	  <point x="416" y="167" type="curve"/>
	  <point x="340" y="167" type="line"/>
	  <point x="340" y="127" type="line" smooth="yes"/>
	  <point x="340" y="38"/>
	  <point x="413" y="-7"/>
	  <point x="479" y="-7" type="curve" smooth="yes"/>
	</contour>
	<contour>
	  <point x="293" y="-7"/>
	  <point x="365" y="38"/>
	  <point x="365" y="127" type="curve" smooth="yes"/>
	  <point x="365" y="167" type="line"/>
	  <point x="290" y="167" type="line"/>
	  <point x="297" y="105"/>
	  <point x="269" y="85"/>
	  <point x="225" y="85" type="curve" smooth="yes"/>
	  <point x="164" y="85"/>
	  <point x="127" y="137"/>
	  <point x="127" y="227" type="curve" smooth="yes"/>
	  <point x="127" y="252"/>
	  <point x="133" y="273"/>
	  <point x="139" y="287" type="curve"/>
	  <point x="155" y="260"/>
	  <point x="179" y="249"/>
	  <point x="209" y="249" type="curve" smooth="yes"/>
	  <point x="288" y="249"/>
	  <point x="328" y="314"/>
	  <point x="328" y="382" type="curve" smooth="yes"/>
	  <point x="328" y="473"/>
	  <point x="269" y="517"/>
	  <point x="203" y="517" type="curve" smooth="yes"/>
	  <point x="95" y="517"/>
	  <point x="21" y="391"/>
	  <point x="21" y="232" type="curve" smooth="yes"/>
	  <point x="21" y="94"/>
	  <point x="91" y="-7"/>
	  <point x="227" y="-7" type="curve" smooth="yes"/>
	</contour>
	<contour>
	  <point x="174" y="337"/>
	  <point x="154" y="357"/>
	  <point x="154" y="381" type="curve" smooth="yes"/>
	  <point x="154" y="403"/>
	  <point x="174" y="423"/>
	  <point x="197" y="423" type="curve" smooth="yes"/>
	  <point x="220" y="423"/>
	  <point x="239" y="403"/>
	  <point x="239" y="381" type="curve" smooth="yes"/>
	  <point x="239" y="357"/>
	  <point x="220" y="337"/>
	  <point x="197" y="337" type="curve" smooth="yes"/>
	</contour>
	<contour>
	  <point x="486" y="337"/>
	  <point x="466" y="357"/>
	  <point x="466" y="381" type="curve" smooth="yes"/>
	  <point x="466" y="403"/>
	  <point x="486" y="423"/>
	  <point x="508" y="423" type="curve" smooth="yes"/>
	  <point x="532" y="423"/>
	  <point x="552" y="403"/>
	  <point x="552" y="381" type="curve" smooth="yes"/>
	  <point x="552" y="357"/>
	  <point x="532" y="337"/>
	  <point x="508" y="337" type="curve" smooth="yes"/>
	</contour>
  </outline>
</glyph>
<glyph name="U0C38" format="1">
  <advance width="685"/>
  <unicode hex="0C38"/>
  <outline>
	<contour>
	  <point x="561" y="-11"/>
	  <point x="657" y="98"/>
	  <point x="657" y="255" type="curve" smooth="yes"/>
	  <point x="657" y="410"/>
	  <point x="559" y="504"/>
	  <point x="402" y="504" type="curve"/>
	  <point x="402" y="384" type="line"/>
	  <point x="413" y="386"/>
	  <point x="420" y="388"/>
	  <point x="437" y="388" type="curve" smooth="yes"/>
	  <point x="489" y="388"/>
	  <point x="550" y="333"/>
	  <point x="550" y="242" type="curve" smooth="yes"/>
	  <point x="550" y="154"/>
	  <point x="500" y="98"/>
	  <point x="441" y="98" type="curve" smooth="yes"/>
	  <point x="395" y="98"/>
	  <point x="374" y="140"/>
	  <point x="358" y="193" type="curve" smooth="yes"/>
	  <point x="329" y="294"/>
	  <point x="284" y="336"/>
	  <point x="197" y="336" type="curve" smooth="yes"/>
	  <point x="92" y="336"/>
	  <point x="21" y="262"/>
	  <point x="21" y="143" type="curve" smooth="yes"/>
	  <point x="21" y="81"/>
	  <point x="49" y="22"/>
	  <point x="83" y="-7" type="curve"/>
	  <point x="221" y="-7" type="line"/>
	  <point x="182" y="29"/>
	  <point x="143" y="81"/>
	  <point x="143" y="160" type="curve" smooth="yes"/>
	  <point x="143" y="209"/>
	  <point x="160" y="227"/>
	  <point x="193" y="227" type="curve" smooth="yes"/>
	  <point x="223" y="227"/>
	  <point x="242" y="204"/>
	  <point x="265" y="133" type="curve" smooth="yes"/>
	  <point x="298" y="25"/>
	  <point x="340" y="-11"/>
	  <point x="433" y="-11" type="curve" smooth="yes"/>
	</contour>
	<component base="U0C2A.topmark"/>
  </outline>
</glyph>
<glyph name="U0C3d" format="1">
  <advance width="917"/>
  <unicode hex="0C3D"/>
  <outline>
	<contour>
	  <point x="889" y="-7" type="line"/>
	  <point x="889" y="94" type="line"/>
	  <point x="186" y="94" type="line" smooth="yes"/>
	  <point x="157" y="94"/>
	  <point x="141" y="101"/>
	  <point x="141" y="116" type="curve" smooth="yes"/>
	  <point x="141" y="133"/>
	  <point x="155" y="140"/>
	  <point x="202" y="148" type="curve" smooth="yes"/>
	  <point x="351" y="174" type="line" smooth="yes"/>
	  <point x="463" y="192"/>
	  <point x="535" y="258"/>
	  <point x="535" y="372" type="curve" smooth="yes"/>
	  <point x="535" y="509"/>
	  <point x="410" y="578"/>
	  <point x="265" y="578" type="curve" smooth="yes"/>
	  <point x="126" y="578"/>
	  <point x="36" y="529"/>
	  <point x="36" y="433" type="curve" smooth="yes"/>
	  <point x="36" y="356"/>
	  <point x="115" y="304"/>
	  <point x="193" y="304" type="curve" smooth="yes"/>
	  <point x="300" y="304"/>
	  <point x="379" y="373"/>
	  <point x="351" y="470" type="curve"/>
	  <point x="398" y="456"/>
	  <point x="435" y="427"/>
	  <point x="435" y="363" type="curve" smooth="yes"/>
	  <point x="435" y="318"/>
	  <point x="413" y="277"/>
	  <point x="312" y="260" type="curve" smooth="yes"/>
	  <point x="157" y="234" type="line" smooth="yes"/>
	  <point x="50" y="216"/>
	  <point x="21" y="168"/>
	  <point x="21" y="113" type="curve" smooth="yes"/>
	  <point x="21" y="15"/>
	  <point x="117" y="-7"/>
	  <point x="203" y="-7" type="curve" smooth="yes"/>
	</contour>
	<contour>
	  <point x="174" y="384"/>
	  <point x="153" y="403"/>
	  <point x="153" y="434" type="curve" smooth="yes"/>
	  <point x="153" y="465"/>
	  <point x="174" y="484"/>
	  <point x="207" y="484" type="curve" smooth="yes"/>
	  <point x="241" y="484"/>
	  <point x="262" y="465"/>
	  <point x="262" y="434" type="curve" smooth="yes"/>
	  <point x="262" y="403"/>
	  <point x="241" y="384"/>
	  <point x="207" y="384" type="curve" smooth="yes"/>
	</contour>
  </outline>
</glyph>
<glyph name="U0C41" format="1">
  <advance width="323"/>
  <unicode hex="0C41"/>
  <outline>
	<contour>
	  <point x="193" y="-8"/>
	  <point x="294" y="95"/>
	  <point x="294" y="255" type="curve" smooth="yes"/>
	  <point x="294" y="401"/>
	  <point x="214" y="528"/>
	  <point x="74" y="528" type="curve" smooth="yes"/>
	  <point x="25" y="528" type="line"/>
	  <point x="25" y="420" type="line"/>
	  <point x="34" y="423"/>
	  <point x="46" y="424"/>
	  <point x="59" y="424" type="curve" smooth="yes"/>
	  <point x="137" y="424"/>
	  <point x="189" y="344"/>
	  <point x="189" y="260" type="curve" smooth="yes"/>
	  <point x="189" y="181"/>
	  <point x="137" y="112"/>
	  <point x="60" y="112" type="curve" smooth="yes"/>
	  <point x="-12" y="112"/>
	  <point x="-67" y="171"/>
	  <point x="-73" y="235" type="curve"/>
	  <point x="-76" y="237"/>
	  <point x="-78" y="238"/>
	  <point x="-84" y="238" type="curve" smooth="yes"/>
	  <point x="-115" y="238"/>
	  <point x="-139" y="192"/>
	  <point x="-139" y="153" type="curve" smooth="yes"/>
	  <point x="-139" y="71"/>
	  <point x="-62" y="-8"/>
	  <point x="57" y="-8" type="curve" smooth="yes"/>
	</contour>
  </outline>
</glyph>
<glyph name="U0C56" format="1">
  <advance width="0"/>
  <unicode hex="0C56"/>
  <outline>
	<contour>
	  <point x="197" y="-350"/>
	  <point x="253" y="-280"/>
	  <point x="253" y="-223" type="curve" smooth="yes"/>
	  <point x="253" y="-148"/>
	  <point x="202" y="-97"/>
	  <point x="127" y="-97" type="curve" smooth="yes"/>
	  <point x="53" y="-97"/>
	  <point x="0" y="-148"/>
	  <point x="0" y="-223" type="curve" smooth="yes"/>
	  <point x="0" y="-307"/>
	  <point x="64" y="-350"/>
	  <point x="141" y="-350" type="curve" smooth="yes"/>
	</contour>
	<contour>
	  <point x="106" y="-253"/>
	  <point x="92" y="-241"/>
	  <point x="92" y="-220" type="curve" smooth="yes"/>
	  <point x="92" y="-197"/>
	  <point x="106" y="-185"/>
	  <point x="129" y="-185" type="curve" smooth="yes"/>
	  <point x="151" y="-185"/>
	  <point x="165" y="-197"/>
	  <point x="165" y="-220" type="curve" smooth="yes"/>
	  <point x="165" y="-241"/>
	  <point x="151" y="-253"/>
	  <point x="129" y="-253" type="curve" smooth="yes"/>
	</contour>
	<contour>
	  <point x="571" y="-350" type="line"/>
	  <point x="571" y="-253" type="line"/>
	  <point x="157" y="-253" type="line"/>
	  <point x="141" y="-350" type="line"/>
	</contour>
  </outline>
</glyph>
<glyph name="U0C62" format="1">
  <advance width="4"/>
  <unicode hex="0C62"/>
  <outline>
	<contour>
	  <point x="-102" y="-403"/>
	  <point x="-55" y="-324"/>
	  <point x="-55" y="-220" type="curve"/>
	  <point x="-123" y="-220" type="line"/>
	  <point x="-123" y="-256" type="line" smooth="yes"/>
	  <point x="-123" y="-302"/>
	  <point x="-157" y="-342"/>
	  <point x="-203" y="-342" type="curve" smooth="yes"/>
	  <point x="-246" y="-342"/>
	  <point x="-260" y="-318"/>
	  <point x="-260" y="-272" type="curve" smooth="yes"/>
	  <point x="-260" y="-262"/>
	  <point x="-256" y="-253"/>
	  <point x="-246" y="-245" type="curve" smooth="yes"/>
	  <point x="-198" y="-203"/>
	  <point x="-137" y="-218"/>
	  <point x="-137" y="-127" type="curve" smooth="yes"/>
	  <point x="-137" y="-73"/>
	  <point x="-179" y="-34"/>
	  <point x="-235" y="-34" type="curve" smooth="yes"/>
	  <point x="-267" y="-34"/>
	  <point x="-304" y="-45"/>
	  <point x="-308" y="-71" type="curve"/>
	  <point x="-318" y="-48"/>
	  <point x="-344" y="-35"/>
	  <point x="-385" y="-35" type="curve" smooth="yes"/>
	  <point x="-436" y="-35"/>
	  <point x="-490" y="-88"/>
	  <point x="-490" y="-141" type="curve" smooth="yes"/>
	  <point x="-490" y="-209"/>
	  <point x="-459" y="-235"/>
	  <point x="-377" y="-235" type="curve"/>
	  <point x="-377" y="-172" type="line"/>
	  <point x="-381" y="-174"/>
	  <point x="-389" y="-175"/>
	  <point x="-399" y="-175" type="curve" smooth="yes"/>
	  <point x="-419" y="-175"/>
	  <point x="-428" y="-164"/>
	  <point x="-428" y="-140" type="curve" smooth="yes"/>
	  <point x="-428" y="-117"/>
	  <point x="-412" y="-95"/>
	  <point x="-388" y="-95" type="curve" smooth="yes"/>
	  <point x="-374" y="-97"/>
	  <point x="-351" y="-112"/>
	  <point x="-351" y="-126" type="curve" smooth="yes"/>
	  <point x="-351" y="-160" type="line"/>
	  <point x="-288" y="-160" type="line"/>
	  <point x="-288" y="-136" type="line" smooth="yes"/>
	  <point x="-288" y="-114"/>
	  <point x="-259" y="-95"/>
	  <point x="-239" y="-95" type="curve" smooth="yes"/>
	  <point x="-216" y="-95"/>
	  <point x="-203" y="-108"/>
	  <point x="-203" y="-133" type="curve" smooth="yes"/>
	  <point x="-203" y="-155"/>
	  <point x="-217" y="-170"/>
	  <point x="-246" y="-178" type="curve" smooth="yes"/>
	  <point x="-298" y="-192"/>
	  <point x="-323" y="-224"/>
	  <point x="-323" y="-269" type="curve" smooth="yes"/>
	  <point x="-323" y="-359"/>
	  <point x="-290" y="-403"/>
	  <point x="-202" y="-403" type="curve" smooth="yes"/>
	</contour>
  </outline>
</glyph>
<glyph name="U0C69" format="1">
  <advance width="483"/>
  <unicode hex="0C69"/>
  <outline>
	<contour>
	  <point x="329" y="-17"/>
	  <point x="427" y="48"/>
	  <point x="427" y="154" type="curve" smooth="yes"/>
	  <point x="427" y="204"/>
	  <point x="410" y="241"/>
	  <point x="367" y="255" type="curve"/>
	  <point x="367" y="258" type="line"/>
	  <point x="409" y="274"/>
	  <point x="427" y="312"/>
	  <point x="427" y="358" type="curve" smooth="yes"/>
	  <point x="427" y="465"/>
	  <point x="329" y="519"/>
	  <point x="214" y="519" type="curve" smooth="yes"/>
	  <point x="95" y="519"/>
	  <point x="0" y="465"/>
	  <point x="0" y="351" type="curve"/>
	  <point x="97" y="351" type="line"/>
	  <point x="97" y="405"/>
	  <point x="155" y="424"/>
	  <point x="214" y="424" type="curve" smooth="yes"/>
	  <point x="267" y="424"/>
	  <point x="330" y="406"/>
	  <point x="330" y="358" type="curve" smooth="yes"/>
	  <point x="330" y="326"/>
	  <point x="311" y="304"/>
	  <point x="280" y="304" type="curve" smooth="yes"/>
	  <point x="155" y="304" type="line"/>
	  <point x="155" y="209" type="line"/>
	  <point x="280" y="209" type="line" smooth="yes"/>
	  <point x="311" y="209"/>
	  <point x="330" y="186"/>
	  <point x="330" y="154" type="curve" smooth="yes"/>
	  <point x="330" y="113"/>
	  <point x="267" y="98"/>
	  <point x="214" y="98" type="curve" smooth="yes"/>
	  <point x="155" y="98"/>
	  <point x="97" y="113"/>
	  <point x="97" y="161" type="curve"/>
	  <point x="0" y="161" type="line"/>
	  <point x="0" y="48"/>
	  <point x="95" y="-17"/>
	  <point x="214" y="-17" type="curve" smooth="yes"/>
	</contour>
  </outline>
</glyph>
<glyph name="U0C6E" format="1">
  <advance width="668"/>
  <unicode hex="0C6E"/>
  <outline>
	<contour>
	  <point x="418" y="-20"/>
	  <point x="532" y="104"/>
	  <point x="532" y="256" type="curve" smooth="yes"/>
	  <point x="532" y="311"/>
	  <point x="503" y="398"/>
	  <point x="476" y="421" type="curve"/>
	  <point x="616" y="421" type="line"/>
	  <point x="616" y="522" type="line"/>
	  <point x="256" y="522" type="line"/>
	  <point x="256" y="421" type="line"/>
	  <point x="356" y="421"/>
	  <point x="431" y="354"/>
	  <point x="431" y="256" type="curve" smooth="yes"/>
	  <point x="431" y="166"/>
	  <point x="357" y="102"/>
	  <point x="266" y="102" type="curve" smooth="yes"/>
	  <point x="176" y="102"/>
	  <point x="102" y="167"/>
	  <point x="102" y="256" type="curve" smooth="yes"/>
	  <point x="102" y="301"/>
	  <point x="120" y="342"/>
	  <point x="155" y="378" type="curve"/>
	  <point x="85" y="452" type="line"/>
	  <point x="28" y="395"/>
	  <point x="0" y="330"/>
	  <point x="0" y="256" type="curve" smooth="yes"/>
	  <point x="0" y="102"/>
	  <point x="114" y="-20"/>
	  <point x="266" y="-20" type="curve" smooth="yes"/>
	</contour>
  </outline>
</glyph>
<glyph name="U0C6F" format="1">
  <advance width="615"/>
  <unicode hex="0C6F"/>
  <outline>
	<contour>
	  <point x="256" y="-17" type="line"/>
	  <point x="256" y="99" type="line"/>
	  <point x="154" y="99" type="line" smooth="yes"/>
	  <point x="123" y="99"/>
	  <point x="97" y="116"/>
	  <point x="97" y="147" type="curve" smooth="yes"/>
	  <point x="97" y="181"/>
	  <point x="119" y="209"/>
	  <point x="154" y="209" type="curve" smooth="yes"/>
	  <point x="316" y="209" type="line"/>
	  <point x="316" y="305" type="line"/>
	  <point x="154" y="305" type="line" smooth="yes"/>
	  <point x="123" y="305"/>
	  <point x="97" y="335"/>
	  <point x="97" y="365" type="curve" smooth="yes"/>
	  <point x="97" y="396"/>
	  <point x="122" y="424"/>
	  <point x="154" y="424" type="curve" smooth="yes"/>
	  <point x="559" y="424" type="line"/>
	  <point x="559" y="519" type="line"/>
	  <point x="154" y="519" type="line" smooth="yes"/>
	  <point x="69" y="519"/>
	  <point x="0" y="451"/>
	  <point x="0" y="365" type="curve" smooth="yes"/>
	  <point x="0" y="321"/>
	  <point x="18" y="281"/>
	  <point x="55" y="256" type="curve"/>
	  <point x="55" y="253" type="line"/>
	  <point x="17" y="235"/>
	  <point x="0" y="196"/>
	  <point x="0" y="147" type="curve" smooth="yes"/>
	  <point x="0" y="60"/>
	  <point x="69" y="-17"/>
	  <point x="154" y="-17" type="curve" smooth="yes"/>
	</contour>
  </outline>
</glyph>
<glyph name="U0C7A" format="1">
  <advance width="482"/>
  <unicode hex="0C7A"/>
  <outline>
	<contour>
	  <point x="260" y="251"/>
	  <point x="300" y="256"/>
	  <point x="353" y="276" type="curve"/>
	  <point x="353" y="381" type="line"/>
	  <point x="302" y="354"/>
	  <point x="261" y="344"/>
	  <point x="232" y="344" type="curve" smooth="yes"/>
	  <point x="181" y="344"/>
	  <point x="155" y="377"/>
	  <point x="155" y="430" type="curve" smooth="yes"/>
	  <point x="155" y="672" type="line"/>
	  <point x="50" y="672" type="line"/>
	  <point x="50" y="421" type="line" smooth="yes"/>
	  <point x="50" y="321"/>
	  <point x="123" y="251"/>
	  <point x="221" y="251" type="curve" smooth="yes"/>
	</contour>
	<contour>
	  <point x="421" y="-6" type="line"/>
	  <point x="421" y="672" type="line"/>
	  <point x="316" y="672" type="line"/>
	  <point x="316" y="-6" type="line"/>
	</contour>
  </outline>
</glyph>
<glyph name="U0C7B" format="1">
  <advance width="748"/>
  <unicode hex="0C7B"/>
  <outline>
	<contour>
	  <point x="312" y="251"/>
	  <point x="393" y="297"/>
	  <point x="393" y="414" type="curve"/>
	  <point x="316" y="414" type="line"/>
	  <point x="316" y="365"/>
	  <point x="277" y="344"/>
	  <point x="232" y="344" type="curve" smooth="yes"/>
	  <point x="181" y="344"/>
	  <point x="155" y="377"/>
	  <point x="155" y="430" type="curve" smooth="yes"/>
	  <point x="155" y="672" type="line"/>
	  <point x="50" y="672" type="line"/>
	  <point x="50" y="421" type="line" smooth="yes"/>
	  <point x="50" y="322"/>
	  <point x="123" y="251"/>
	  <point x="227" y="251" type="curve" smooth="yes"/>
	</contour>
	<component base="U0C7A" xOffset="266"/>
  </outline>
</glyph>
<glyph name="U0C7D" format="1">
  <advance width="822"/>
  <unicode hex="0C7D"/>
  <outline>
	<contour>
	  <point x="812" y="-6" type="line"/>
	  <point x="812" y="108" type="line"/>
	  <point x="309" y="108" type="line" smooth="yes"/>
	  <point x="256" y="108"/>
	  <point x="196" y="116"/>
	  <point x="196" y="137" type="curve" smooth="yes"/>
	  <point x="196" y="154"/>
	  <point x="204" y="164"/>
	  <point x="337" y="200" type="curve" smooth="yes"/>
	  <point x="507" y="246"/>
	  <point x="553" y="274"/>
	  <point x="553" y="361" type="curve" smooth="yes"/>
	  <point x="553" y="451"/>
	  <point x="475" y="487"/>
	  <point x="377" y="487" type="curve" smooth="yes"/>
	  <point x="104" y="487" type="line"/>
	  <point x="104" y="395" type="line"/>
	  <point x="377" y="395" type="line" smooth="yes"/>
	  <point x="430" y="395"/>
	  <point x="448" y="386"/>
	  <point x="448" y="360" type="curve" smooth="yes"/>
	  <point x="448" y="328"/>
	  <point x="435" y="322"/>
	  <point x="294" y="281" type="curve" smooth="yes"/>
	  <point x="157" y="242"/>
	  <point x="91" y="217"/>
	  <point x="91" y="130" type="curve" smooth="yes"/>
	  <point x="91" y="29"/>
	  <point x="192" y="-6"/>
	  <point x="290" y="-6" type="curve" smooth="yes"/>
	</contour>
  </outline>
</glyph>
<glyph name="U0C7F" format="1">
  <advance width="949"/>
  <unicode hex="0C7F"/>
  <outline>
	<contour>
	  <point x="665" y="-4"/>
	  <point x="830" y="126"/>
	  <point x="914" y="301" type="curve"/>
	  <point x="822" y="346" type="line"/>
	  <point x="738" y="230"/>
	  <point x="633" y="109"/>
	  <point x="441" y="109" type="curve" smooth="yes"/>
	  <point x="245" y="109"/>
	  <point x="94" y="183"/>
	  <point x="94" y="377" type="curve" smooth="yes"/>
	  <point x="94" y="414"/>
	  <point x="99" y="438"/>
	  <point x="109" y="454" type="curve"/>
	  <point x="112" y="454" type="line"/>
	  <point x="102" y="402"/>
	  <point x="146" y="328"/>
	  <point x="232" y="328" type="curve" smooth="yes"/>
	  <point x="307" y="328"/>
	  <point x="372" y="384"/>
	  <point x="372" y="461" type="curve" smooth="yes"/>
	  <point x="372" y="561"/>
	  <point x="318" y="617"/>
	  <point x="218" y="617" type="curve" smooth="yes"/>
	  <point x="91" y="617"/>
	  <point x="0" y="501"/>
	  <point x="0" y="377" type="curve" smooth="yes"/>
	  <point x="0" y="122"/>
	  <point x="192" y="-4"/>
	  <point x="441" y="-4" type="curve" smooth="yes"/>
	</contour>
	<contour>
	  <point x="203" y="428"/>
	  <point x="182" y="451"/>
	  <point x="182" y="477" type="curve" smooth="yes"/>
	  <point x="182" y="504"/>
	  <point x="202" y="526"/>
	  <point x="228" y="526" type="curve" smooth="yes"/>
	  <point x="255" y="526"/>
	  <point x="274" y="504"/>
	  <point x="274" y="477" type="curve" smooth="yes"/>
	  <point x="274" y="451"/>
	  <point x="255" y="428"/>
	  <point x="231" y="428" type="curve" smooth="yes"/>
	</contour>
  </outline>
</glyph>
<glyph name="U200C" format="1">
  <advance width="0"/>
  <unicode hex="200C"/>
  <outline>
	<contour>
	  <point x="62" y="-363" type="line"/>
	  <point x="62" y="853" type="line"/>
	  <point x="0" y="853" type="line"/>
	  <point x="0" y="-363" type="line"/>
	</contour>
  </outline>
</glyph>
<glyph name="U200D" format="1">
  <advance width="0"/>
  <unicode hex="200D"/>
  <outline>
	<contour>
	  <point x="62" y="-363" type="line"/>
	  <point x="62" y="801" type="line"/>
	  <point x="234" y="801" type="line"/>
	  <point x="234" y="853" type="line"/>
	  <point x="0" y="853" type="line"/>
	  <point x="0" y="-363" type="line"/>
	</contour>
  </outline>
</glyph>
<glyph name="U2022" format="1">
  <advance width="430"/>
  <unicode hex="2022"/>
  <outline>
	<contour>
	  <point x="143" y="451"/>
	  <point x="90" y="400"/>
	  <point x="90" y="330" type="curve" smooth="yes"/>
	  <point x="90" y="260"/>
	  <point x="143" y="209"/>
	  <point x="215" y="209" type="curve" smooth="yes"/>
	  <point x="288" y="209"/>
	  <point x="340" y="260"/>
	  <point x="340" y="330" type="curve" smooth="yes"/>
	  <point x="340" y="400"/>
	  <point x="288" y="451"/>
	  <point x="215" y="451" type="curve" smooth="yes"/>
	</contour>
  </outline>
</glyph>
<glyph name="perthousand" format="1">
  <advance width="1184"/>
  <unicode hex="2030"/>
  <outline>
	<contour>
	  <point x="913" y="354"/>
	  <point x="851" y="282"/>
	  <point x="851" y="172" type="curve" smooth="yes"/>
	  <point x="851" y="62"/>
	  <point x="913" y="-10"/>
	  <point x="1010" y="-10" type="curve" smooth="yes"/>
	  <point x="1107" y="-10"/>
	  <point x="1169" y="62"/>
	  <point x="1169" y="172" type="curve" smooth="yes"/>
	  <point x="1169" y="282"/>
	  <point x="1107" y="354"/>
	  <point x="1010" y="354" type="curve" smooth="yes"/>
	</contour>
	<contour>
	  <point x="1067" y="291"/>
	  <point x="1098" y="247"/>
	  <point x="1098" y="172" type="curve" smooth="yes"/>
	  <point x="1098" y="97"/>
	  <point x="1067" y="53"/>
	  <point x="1010" y="53" type="curve" smooth="yes"/>
	  <point x="953" y="53"/>
	  <point x="922" y="97"/>
	  <point x="922" y="172" type="curve" smooth="yes"/>
	  <point x="922" y="247"/>
	  <point x="953" y="291"/>
	  <point x="1010" y="291" type="curve" smooth="yes"/>
	</contour>
	<component base="percent"/>
  </outline>
</glyph>
<glyph name="fraction" format="1">
  <advance width="496"/>
  <unicode hex="2044"/>
  <outline>
	<contour>
	  <point x="76" y="0" type="line"/>
	  <point x="496" y="660" type="line"/>
	  <point x="420" y="660" type="line"/>
	  <point x="0" y="0" type="line"/>
	</contour>
  </outline>
</glyph>
<glyph name="foursuperior" format="1">
  <advance width="327"/>
  <unicode hex="2074"/>
  <outline>
	<contour>
	  <point x="168" y="730" type="line"/>
	  <point x="24" y="519" type="line"/>
	  <point x="59" y="502" type="line"/>
	  <point x="108" y="557" type="line"/>
	  <point x="166" y="641" type="line"/>
	  <point x="213" y="730" type="line"/>
	</contour>
	<contour>
	  <point x="116" y="526" type="line"/>
	  <point x="24" y="519" type="line"/>
	  <point x="24" y="474" type="line"/>
	  <point x="300" y="474" type="line"/>
	  <point x="300" y="526" type="line"/>
	</contour>
	<contour>
	  <point x="237" y="504" type="line"/>
	  <point x="237" y="730" type="line"/>
	  <point x="190" y="730" type="line"/>
	  <point x="177" y="504" type="line"/>
	  <point x="177" y="376" type="line"/>
	  <point x="237" y="376" type="line"/>
	</contour>
  </outline>
</glyph>
<glyph name="U20B9" format="1">
  <advance width="627"/>
  <unicode hex="20B9"/>
  <outline>
	<contour>
	  <point x="440" y="-43" type="line"/>
	  <point x="178" y="329" type="line"/>
	  <point x="324" y="329"/>
	  <point x="404" y="429"/>
	  <point x="434" y="550" type="curve"/>
	  <point x="525" y="550" type="line"/>
	  <point x="574" y="636" type="line"/>
	  <point x="430" y="636" type="line"/>
	  <point x="418" y="672"/>
	  <point x="415" y="697"/>
	  <point x="392" y="725" type="curve"/>
	  <point x="525" y="725" type="line"/>
	  <point x="574" y="812" type="line"/>
	  <point x="76" y="812" type="line"/>
	  <point x="24" y="725" type="line"/>
	  <point x="175" y="725" type="line" smooth="yes"/>
	  <point x="250" y="725"/>
	  <point x="294" y="693"/>
	  <point x="309" y="636" type="curve"/>
	  <point x="76" y="636" type="line"/>
	  <point x="24" y="550" type="line"/>
	  <point x="326" y="550" type="line"/>
	  <point x="323" y="545"/>
	  <point x="319" y="532"/>
	  <point x="315" y="511" type="curve" smooth="yes"/>
	  <point x="292" y="427"/>
	  <point x="219" y="393"/>
	  <point x="113" y="393" type="curve" smooth="yes"/>
	  <point x="52" y="393" type="line"/>
	  <point x="52" y="316" type="line"/>
	  <point x="314" y="-43" type="line"/>
	</contour>
  </outline>
</glyph>
<glyph name="uni20BA" format="1">
  <advance width="609"/>
  <unicode hex="20BA"/>
  <outline>
	<contour>
	  <point x="484" y="268" type="line"/>
	  <point x="484" y="131"/>
	  <point x="423" y="68"/>
	  <point x="299" y="68" type="curve" smooth="yes"/>
	  <point x="193" y="68" type="line"/>
	  <point x="193" y="0" type="line"/>
	  <point x="307" y="0" type="line" smooth="yes"/>
	  <point x="468" y="0"/>
	  <point x="554" y="85"/>
	  <point x="561" y="268" type="curve"/>
	</contour>
	<contour>
	  <point x="151" y="660" type="line"/>
	  <point x="151" y="0" type="line"/>
	  <point x="226" y="0" type="line"/>
	  <point x="226" y="660" type="line"/>
	</contour>
	<contour>
	  <point x="22" y="283" type="line"/>
	  <point x="22" y="225" type="line"/>
	  <point x="437" y="345" type="line"/>
	  <point x="437" y="403" type="line"/>
	</contour>
	<contour>
	  <point x="22" y="433" type="line"/>
	  <point x="22" y="375" type="line"/>
	  <point x="437" y="495" type="line"/>
	  <point x="437" y="553" type="line"/>
	</contour>
  </outline>
</glyph>
<glyph name="U2103" format="1">
  <advance width="1077"/>
  <unicode hex="2103"/>
  <outline>
	<contour>
	  <point x="826" y="-7"/>
	  <point x="937" y="74"/>
	  <point x="987" y="167" type="curve"/>
	  <point x="924" y="167" type="line"/>
	  <point x="875" y="99"/>
	  <point x="796" y="39"/>
	  <point x="689" y="39" type="curve" smooth="yes"/>
	  <point x="538" y="39"/>
	  <point x="402" y="178"/>
	  <point x="402" y="330" type="curve" smooth="yes"/>
	  <point x="402" y="484"/>
	  <point x="532" y="622"/>
	  <point x="687" y="622" type="curve" smooth="yes"/>
	  <point x="795" y="622"/>
	  <point x="875" y="568"/>
	  <point x="921" y="501" type="curve"/>
	  <point x="986" y="501" type="line"/>
	  <point x="949" y="589"/>
	  <point x="810" y="671"/>
	  <point x="689" y="671" type="curve" smooth="yes"/>
	  <point x="498" y="671"/>
	  <point x="344" y="521"/>
	  <point x="344" y="330" type="curve" smooth="yes"/>
	  <point x="344" y="143"/>
	  <point x="503" y="-7"/>
	  <point x="689" y="-7" type="curve" smooth="yes"/>
	</contour>
	<contour>
	  <point x="270" y="550"/>
	  <point x="326" y="603"/>
	  <point x="326" y="668" type="curve" smooth="yes"/>
	  <point x="326" y="735"/>
	  <point x="272" y="788"/>
	  <point x="204" y="788" type="curve" smooth="yes"/>
	  <point x="138" y="788"/>
	  <point x="84" y="734"/>
	  <point x="84" y="668" type="curve" smooth="yes"/>
	  <point x="84" y="605"/>
	  <point x="141" y="550"/>
	  <point x="204" y="550" type="curve" smooth="yes"/>
	</contour>
	<contour>
	  <point x="164" y="591"/>
	  <point x="130" y="628"/>
	  <point x="130" y="668" type="curve" smooth="yes"/>
	  <point x="130" y="710"/>
	  <point x="162" y="746"/>
	  <point x="204" y="746" type="curve" smooth="yes"/>
	  <point x="247" y="746"/>
	  <point x="280" y="711"/>
	  <point x="280" y="668" type="curve" smooth="yes"/>
	  <point x="280" y="627"/>
	  <point x="244" y="591"/>
	  <point x="204" y="591" type="curve" smooth="yes"/>
	</contour>
  </outline>
</glyph>
<glyph name="U2109" format="1">
  <advance width="818"/>
  <unicode hex="2109"/>
  <outline>
	<contour>
	  <point x="459" y="4" type="line"/>
	  <point x="459" y="309" type="line"/>
	  <point x="720" y="309" type="line"/>
	  <point x="720" y="357" type="line"/>
	  <point x="459" y="357" type="line"/>
	  <point x="459" y="612" type="line"/>
	  <point x="731" y="612" type="line"/>
	  <point x="731" y="659" type="line"/>
	  <point x="402" y="659" type="line"/>
	  <point x="402" y="4" type="line"/>
	</contour>
	<contour>
	  <point x="270" y="550"/>
	  <point x="326" y="603"/>
	  <point x="326" y="668" type="curve" smooth="yes"/>
	  <point x="326" y="735"/>
	  <point x="272" y="788"/>
	  <point x="204" y="788" type="curve" smooth="yes"/>
	  <point x="138" y="788"/>
	  <point x="84" y="734"/>
	  <point x="84" y="668" type="curve" smooth="yes"/>
	  <point x="84" y="605"/>
	  <point x="141" y="550"/>
	  <point x="204" y="550" type="curve" smooth="yes"/>
	</contour>
	<contour>
	  <point x="164" y="591"/>
	  <point x="130" y="628"/>
	  <point x="130" y="668" type="curve" smooth="yes"/>
	  <point x="130" y="710"/>
	  <point x="162" y="746"/>
	  <point x="204" y="746" type="curve" smooth="yes"/>
	  <point x="247" y="746"/>
	  <point x="280" y="711"/>
	  <point x="280" y="668" type="curve" smooth="yes"/>
	  <point x="280" y="627"/>
	  <point x="244" y="591"/>
	  <point x="204" y="591" type="curve" smooth="yes"/>
	</contour>
  </outline>
</glyph>
<glyph name="uni2113" format="1">
  <advance width="365"/>
  <unicode hex="2113"/>
  <outline>
	<contour>
	  <point x="265" y="-10"/>
	  <point x="295" y="-5"/>
	  <point x="319" y="4" type="curve"/>
	  <point x="326" y="71" type="line"/>
	  <point x="291" y="62"/>
	  <point x="270" y="57"/>
	  <point x="239" y="57" type="curve" smooth="yes"/>
	  <point x="192" y="57"/>
	  <point x="165" y="94"/>
	  <point x="165" y="134" type="curve" smooth="yes"/>
	  <point x="165" y="540" type="line" smooth="yes"/>
	  <point x="165" y="584"/>
	  <point x="174" y="607"/>
	  <point x="205" y="607" type="curve" smooth="yes"/>
	  <point x="233" y="607"/>
	  <point x="244" y="592"/>
	  <point x="244" y="545" type="curve" smooth="yes"/>
	  <point x="244" y="422"/>
	  <point x="167" y="294"/>
	  <point x="20" y="244" type="curve"/>
	  <point x="20" y="177" type="line"/>
	  <point x="208" y="239"/>
	  <point x="310" y="407"/>
	  <point x="310" y="540" type="curve" smooth="yes"/>
	  <point x="310" y="635"/>
	  <point x="274" y="670"/>
	  <point x="203" y="670" type="curve" smooth="yes"/>
	  <point x="132" y="670"/>
	  <point x="95" y="626"/>
	  <point x="95" y="535" type="curve" smooth="yes"/>
	  <point x="95" y="124" type="line" smooth="yes"/>
	  <point x="95" y="29"/>
	  <point x="140" y="-10"/>
	  <point x="235" y="-10" type="curve" smooth="yes"/>
	</contour>
  </outline>
</glyph>
<glyph name="trademark" format="1">
  <advance width="797"/>
  <unicode hex="2122"/>
  <outline>
	<contour>
	  <point x="130" y="660" type="line"/>
	  <point x="130" y="330" type="line"/>
	  <point x="200" y="330" type="line"/>
	  <point x="200" y="660" type="line"/>
	</contour>
	<contour>
	  <point x="29" y="660" type="line"/>
	  <point x="29" y="606" type="line"/>
	  <point x="300" y="606" type="line"/>
	  <point x="300" y="660" type="line"/>
	</contour>
	<contour>
	  <point x="635" y="660" type="line"/>
	  <point x="566" y="480" type="line"/>
	  <point x="544" y="416" type="line"/>
	  <point x="542" y="416" type="line"/>
	  <point x="519" y="480" type="line"/>
	  <point x="451" y="660" type="line"/>
	  <point x="363" y="660" type="line"/>
	  <point x="363" y="330" type="line"/>
	  <point x="432" y="330" type="line"/>
	  <point x="432" y="488" type="line"/>
	  <point x="425" y="575" type="line"/>
	  <point x="426" y="575" type="line"/>
	  <point x="435" y="548" type="line"/>
	  <point x="518" y="330" type="line"/>
	  <point x="568" y="330" type="line"/>
	  <point x="650" y="548" type="line"/>
	  <point x="659" y="575" type="line"/>
	  <point x="660" y="575" type="line"/>
	  <point x="653" y="488" type="line"/>
	  <point x="653" y="330" type="line"/>
	  <point x="722" y="330" type="line"/>
	  <point x="722" y="660" type="line"/>
	</contour>
  </outline>
</glyph>
<glyph name="uni2126" format="1">
  <advance width="772"/>
  <unicode hex="2126"/>
  <outline>
	<contour>
	  <point x="198" y="670"/>
	  <point x="80" y="539"/>
	  <point x="80" y="330" type="curve" smooth="yes"/>
	  <point x="80" y="178"/>
	  <point x="164" y="69"/>
	  <point x="305" y="29" type="curve"/>
	  <point x="329" y="68" type="line"/>
	  <point x="226" y="96"/>
	  <point x="160" y="187"/>
	  <point x="160" y="330" type="curve" smooth="yes"/>
	  <point x="160" y="496"/>
	  <point x="249" y="595"/>
	  <point x="386" y="595" type="curve" smooth="yes"/>
	  <point x="523" y="595"/>
	  <point x="612" y="496"/>
	  <point x="612" y="330" type="curve" smooth="yes"/>
	  <point x="612" y="187"/>
	  <point x="546" y="96"/>
	  <point x="443" y="68" type="curve"/>
	  <point x="467" y="29" type="line"/>
	  <point x="608" y="69"/>
	  <point x="692" y="178"/>
	  <point x="692" y="330" type="curve" smooth="yes"/>
	  <point x="692" y="539"/>
	  <point x="574" y="670"/>
	  <point x="386" y="670" type="curve" smooth="yes"/>
	</contour>
	<contour>
	  <point x="70" y="0" type="line"/>
	  <point x="329" y="-1" type="line"/>
	  <point x="329" y="68" type="line"/>
	  <point x="70" y="69" type="line"/>
	</contour>
	<contour>
	  <point x="443" y="68" type="line"/>
	  <point x="443" y="-1" type="line"/>
	  <point x="702" y="0" type="line"/>
	  <point x="702" y="69" type="line"/>
	</contour>
  </outline>
</glyph>
<glyph name="estimated" format="1">
  <advance width="755"/>
  <unicode hex="212E"/>
  <outline>
	<contour>
	  <point x="172" y="670"/>
	  <point x="38" y="536"/>
	  <point x="38" y="330" type="curve" smooth="yes"/>
	  <point x="38" y="124"/>
	  <point x="172" y="-10"/>
	  <point x="398" y="-10" type="curve" smooth="yes"/>
	  <point x="524" y="-10"/>
	  <point x="625" y="35"/>
	  <point x="685" y="131" type="curve"/>
	  <point x="685" y="208" type="line"/>
	  <point x="612" y="94"/>
	  <point x="516" y="45"/>
	  <point x="398" y="45" type="curve" smooth="yes"/>
	  <point x="301" y="45"/>
	  <point x="223" y="77"/>
	  <point x="171" y="132" type="curve"/>
	  <point x="171" y="301" type="line"/>
	  <point x="717" y="301" type="line"/>
	  <point x="717" y="542"/>
	  <point x="590" y="670"/>
	  <point x="378" y="670" type="curve" smooth="yes"/>
	</contour>
	<contour>
	  <point x="463" y="615"/>
	  <point x="535" y="584"/>
	  <point x="585" y="530" type="curve"/>
	  <point x="585" y="359" type="line"/>
	  <point x="171" y="359" type="line"/>
	  <point x="171" y="530" type="line"/>
	  <point x="221" y="584"/>
	  <point x="293" y="615"/>
	  <point x="378" y="615" type="curve" smooth="yes"/>
	</contour>
  </outline>
</glyph>
<glyph name="onethird" format="1">
  <advance width="666"/>
  <unicode hex="2153"/>
  <outline>
	<contour>
	  <point x="12" y="537" type="line"/>
	  <point x="67" y="553"/>
	  <point x="120" y="597"/>
	  <point x="147" y="642" type="curve"/>
	  <point x="122" y="660" type="line"/>
	  <point x="100" y="633"/>
	  <point x="40" y="604"/>
	  <point x="12" y="601" type="curve"/>
	</contour>
	<contour>
	  <point x="122" y="660" type="line"/>
	  <point x="114" y="557" type="line"/>
	  <point x="114" y="306" type="line"/>
	  <point x="179" y="306" type="line"/>
	  <point x="179" y="577" type="line"/>
	  <point x="179" y="660" type="line"/>
	</contour>
	<contour>
	  <point x="589" y="180" type="line"/>
	  <point x="629" y="180"/>
	  <point x="664" y="217"/>
	  <point x="664" y="262" type="curve" smooth="yes"/>
	  <point x="664" y="321"/>
	  <point x="615" y="359"/>
	  <point x="547" y="359" type="curve" smooth="yes"/>
	  <point x="466" y="359"/>
	  <point x="436" y="327"/>
	  <point x="420" y="278" type="curve"/>
	  <point x="470" y="255" type="line"/>
	  <point x="477" y="282"/>
	  <point x="498" y="302"/>
	  <point x="539" y="302" type="curve" smooth="yes"/>
	  <point x="576" y="302"/>
	  <point x="599" y="287"/>
	  <point x="599" y="257" type="curve" smooth="yes"/>
	  <point x="599" y="222"/>
	  <point x="573" y="204"/>
	  <point x="525" y="204" type="curve" smooth="yes"/>
	  <point x="511" y="204" type="line"/>
	  <point x="511" y="150" type="line"/>
	  <point x="525" y="150" type="line" smooth="yes"/>
	  <point x="571" y="150"/>
	  <point x="606" y="138"/>
	  <point x="607" y="100" type="curve" smooth="yes"/>
	  <point x="608" y="70"/>
	  <point x="589" y="49"/>
	  <point x="544" y="49" type="curve" smooth="yes"/>
	  <point x="501" y="49"/>
	  <point x="478" y="65"/>
	  <point x="461" y="112" type="curve"/>
	  <point x="408" y="83" type="line"/>
	  <point x="428" y="23"/>
	  <point x="464" y="-5"/>
	  <point x="546" y="-5" type="curve" smooth="yes"/>
	  <point x="615" y="-5"/>
	  <point x="672" y="32"/>
	  <point x="672" y="98" type="curve" smooth="yes"/>
	  <point x="672" y="141"/>
	  <point x="639" y="178"/>
	  <point x="589" y="178" type="curve"/>
	</contour>
	<component base="fraction" xOffset="81"/>
  </outline>
</glyph>
<glyph name="arrowright" format="1">
  <advance width="916"/>
  <unicode hex="2192"/>
  <outline>
	<contour>
	  <point x="664" y="264"/>
	  <point x="754" y="335"/>
	  <point x="872" y="381" type="curve"/>
	  <point x="754" y="423"/>
	  <point x="663" y="497"/>
	  <point x="592" y="594" type="curve"/>
	  <point x="592" y="518"/>
	  <point x="625" y="460"/>
	  <point x="661" y="410" type="curve"/>
	  <point x="36" y="410" type="line"/>
	  <point x="36" y="351" type="line"/>
	  <point x="658" y="351" type="line"/>
	  <point x="626" y="310"/>
	  <point x="592" y="235"/>
	  <point x="592" y="165" type="curve"/>
	</contour>
  </outline>
</glyph>
<glyph name="partialdiff" format="1">
  <advance width="606"/>
  <unicode hex="2202"/>
  <outline>
	<contour>
	  <point x="212" y="670"/>
	  <point x="153" y="644"/>
	  <point x="103" y="600" type="curve"/>
	  <point x="144" y="541" type="line"/>
	  <point x="186" y="583"/>
	  <point x="221" y="602"/>
	  <point x="282" y="602" type="curve" smooth="yes"/>
	  <point x="409" y="602"/>
	  <point x="476" y="524"/>
	  <point x="476" y="330" type="curve" smooth="yes"/>
	  <point x="476" y="155"/>
	  <point x="415" y="62"/>
	  <point x="294" y="62" type="curve" smooth="yes"/>
	  <point x="198" y="62"/>
	  <point x="147" y="120"/>
	  <point x="147" y="215" type="curve" smooth="yes"/>
	  <point x="147" y="308"/>
	  <point x="198" y="367"/>
	  <point x="289" y="367" type="curve" smooth="yes"/>
	  <point x="392" y="367"/>
	  <point x="451" y="312"/>
	  <point x="473" y="229" type="curve"/>
	  <point x="515" y="236" type="line"/>
	  <point x="502" y="360"/>
	  <point x="408" y="438"/>
	  <point x="290" y="438" type="curve" smooth="yes"/>
	  <point x="161" y="438"/>
	  <point x="67" y="345"/>
	  <point x="67" y="214" type="curve" smooth="yes"/>
	  <point x="67" y="83"/>
	  <point x="155" y="-10"/>
	  <point x="294" y="-10" type="curve" smooth="yes"/>
	  <point x="460" y="-10"/>
	  <point x="550" y="109"/>
	  <point x="550" y="330" type="curve" smooth="yes"/>
	  <point x="550" y="541"/>
	  <point x="474" y="670"/>
	  <point x="284" y="670" type="curve" smooth="yes"/>
	</contour>
  </outline>
</glyph>
<glyph name="uni2206" format="1">
  <advance width="679"/>
  <unicode hex="2206"/>
  <outline>
	<contour>
	  <point x="649" y="0" type="line"/>
	  <point x="649" y="67" type="line"/>
	  <point x="30" y="67" type="line"/>
	  <point x="30" y="0" type="line"/>
	</contour>
	<contour>
	  <point x="649" y="67" type="line"/>
	  <point x="387" y="660" type="line"/>
	  <point x="311" y="660" type="line"/>
	  <point x="582" y="41" type="line"/>
	</contour>
	<contour>
	  <point x="367" y="660" type="line"/>
	  <point x="292" y="660" type="line"/>
	  <point x="30" y="67" type="line"/>
	  <point x="97" y="41" type="line"/>
	</contour>
  </outline>
</glyph>
<glyph name="integral" format="1">
  <advance width="404"/>
  <unicode hex="222B"/>
  <outline>
	<contour>
	  <point x="219" y="758"/>
	  <point x="162" y="696"/>
	  <point x="162" y="607" type="curve" smooth="yes"/>
	  <point x="162" y="31" type="line" smooth="yes"/>
	  <point x="162" y="-30"/>
	  <point x="126" y="-55"/>
	  <point x="85" y="-55" type="curve" smooth="yes"/>
	  <point x="51" y="-55"/>
	  <point x="30" y="-45"/>
	  <point x="12" y="-32" type="curve"/>
	  <point x="0" y="-104" type="line"/>
	  <point x="22" y="-117"/>
	  <point x="40" y="-128"/>
	  <point x="92" y="-128" type="curve" smooth="yes"/>
	  <point x="185" y="-128"/>
	  <point x="242" y="-66"/>
	  <point x="242" y="23" type="curve" smooth="yes"/>
	  <point x="242" y="599" type="line" smooth="yes"/>
	  <point x="242" y="660"/>
	  <point x="278" y="685"/>
	  <point x="319" y="685" type="curve" smooth="yes"/>
	  <point x="353" y="685"/>
	  <point x="374" y="675"/>
	  <point x="392" y="662" type="curve"/>
	  <point x="404" y="734" type="line"/>
	  <point x="382" y="747"/>
	  <point x="364" y="758"/>
	  <point x="312" y="758" type="curve" smooth="yes"/>
	</contour>
  </outline>
</glyph>
<glyph name="approxequal" format="1">
  <advance width="620"/>
  <unicode hex="2248"/>
  <outline>
	<contour>
	  <point x="142" y="480"/>
	  <point x="110" y="464"/>
	  <point x="67" y="425" type="curve"/>
	  <point x="67" y="352" type="line"/>
	  <point x="107" y="390"/>
	  <point x="140" y="407"/>
	  <point x="199" y="407" type="curve" smooth="yes"/>
	  <point x="275" y="407"/>
	  <point x="344" y="337"/>
	  <point x="424" y="337" type="curve" smooth="yes"/>
	  <point x="473" y="337"/>
	  <point x="513" y="354"/>
	  <point x="553" y="392" type="curve"/>
	  <point x="553" y="465" type="line"/>
	  <point x="507" y="421"/>
	  <point x="469" y="410"/>
	  <point x="425" y="410" type="curve" smooth="yes"/>
	  <point x="352" y="410"/>
	  <point x="284" y="480"/>
	  <point x="199" y="480" type="curve" smooth="yes"/>
	</contour>
	<contour>
	  <point x="142" y="280"/>
	  <point x="110" y="264"/>
	  <point x="67" y="225" type="curve"/>
	  <point x="67" y="152" type="line"/>
	  <point x="107" y="190"/>
	  <point x="140" y="207"/>
	  <point x="199" y="207" type="curve" smooth="yes"/>
	  <point x="275" y="207"/>
	  <point x="344" y="137"/>
	  <point x="424" y="137" type="curve" smooth="yes"/>
	  <point x="473" y="137"/>
	  <point x="513" y="154"/>
	  <point x="553" y="192" type="curve"/>
	  <point x="553" y="265" type="line"/>
	  <point x="507" y="221"/>
	  <point x="469" y="210"/>
	  <point x="425" y="210" type="curve" smooth="yes"/>
	  <point x="352" y="210"/>
	  <point x="284" y="280"/>
	  <point x="199" y="280" type="curve" smooth="yes"/>
	</contour>
  </outline>
</glyph>
<glyph name="notequal" format="1">
  <advance width="620"/>
  <unicode hex="2260"/>
  <outline>
	<contour>
	  <point x="391" y="540" type="line"/>
	  <point x="151" y="61" type="line"/>
	  <point x="230" y="61" type="line"/>
	  <point x="470" y="540" type="line"/>
	</contour>
	<contour>
	  <point x="72" y="438" type="line"/>
	  <point x="72" y="363" type="line"/>
	  <point x="548" y="363" type="line"/>
	  <point x="548" y="438" type="line"/>
	</contour>
	<contour>
	  <point x="72" y="238" type="line"/>
	  <point x="72" y="163" type="line"/>
	  <point x="548" y="163" type="line"/>
	  <point x="548" y="238" type="line"/>
	</contour>
  </outline>
</glyph>
<glyph name="greaterequal" format="1">
  <advance width="620"/>
  <unicode hex="2265"/>
  <outline>
	<contour>
	  <point x="72" y="570" type="line"/>
	  <point x="548" y="369" type="line"/>
	  <point x="548" y="444" type="line"/>
	  <point x="72" y="653" type="line"/>
	</contour>
	<contour>
	  <point x="67" y="95" type="line"/>
	  <point x="67" y="20" type="line"/>
	  <point x="553" y="20" type="line"/>
	  <point x="553" y="95" type="line"/>
	</contour>
	<contour>
	  <point x="72" y="136" type="line"/>
	  <point x="548" y="345" type="line"/>
	  <point x="548" y="420" type="line"/>
	  <point x="72" y="219" type="line"/>
	</contour>
  </outline>
</glyph>
<glyph name="U0C08.part" format="1">
  <advance width="1054"/>
  <outline>
	<contour>
	  <point x="729" y="218" type="line" smooth="yes"/>
	  <point x="820" y="218"/>
	  <point x="988" y="280"/>
	  <point x="988" y="416" type="curve" smooth="yes"/>
	  <point x="988" y="508"/>
	  <point x="934" y="577"/>
	  <point x="832" y="577" type="curve" smooth="yes"/>
	  <point x="728" y="577"/>
	  <point x="668" y="503"/>
	  <point x="685" y="405" type="curve"/>
	  <point x="781" y="405" type="line"/>
	  <point x="762" y="451"/>
	  <point x="797" y="473"/>
	  <point x="830" y="473" type="curve" smooth="yes"/>
	  <point x="868" y="473"/>
	  <point x="879" y="451"/>
	  <point x="879" y="416" type="curve" smooth="yes"/>
	  <point x="879" y="350"/>
	  <point x="798" y="315"/>
	  <point x="749" y="315" type="curve" smooth="yes"/>
	  <point x="21" y="315" type="line"/>
	  <point x="21" y="218" type="line"/>
	</contour>
	<contour>
	  <point x="944" y="21"/>
	  <point x="1014" y="78"/>
	  <point x="1014" y="164" type="curve" smooth="yes"/>
	  <point x="1014" y="251"/>
	  <point x="946" y="315"/>
	  <point x="853" y="315" type="curve" smooth="yes"/>
	  <point x="757" y="315"/>
	  <point x="694" y="251"/>
	  <point x="694" y="164" type="curve" smooth="yes"/>
	  <point x="694" y="77"/>
	  <point x="757" y="21"/>
	  <point x="853" y="21" type="curve" smooth="yes"/>
	</contour>
	<contour>
	  <point x="825" y="116"/>
	  <point x="799" y="141"/>
	  <point x="799" y="174" type="curve" smooth="yes"/>
	  <point x="799" y="206"/>
	  <point x="825" y="230"/>
	  <point x="857" y="230" type="curve" smooth="yes"/>
	  <point x="889" y="230"/>
	  <point x="914" y="206"/>
	  <point x="914" y="174" type="curve" smooth="yes"/>
	  <point x="914" y="141"/>
	  <point x="889" y="116"/>
	  <point x="857" y="116" type="curve" smooth="yes"/>
	</contour>
  </outline>
</glyph>
<glyph name="U0C0E.part.circle" format="1">
  <advance width="399"/>
  <outline>
	<contour>
	  <point x="301" y="-7"/>
	  <point x="378" y="66"/>
	  <point x="378" y="161" type="curve" smooth="yes"/>
	  <point x="378" y="256"/>
	  <point x="301" y="329"/>
	  <point x="200" y="329" type="curve" smooth="yes"/>
	  <point x="98" y="329"/>
	  <point x="21" y="256"/>
	  <point x="21" y="161" type="curve" smooth="yes"/>
	  <point x="21" y="66"/>
	  <point x="98" y="-7"/>
	  <point x="200" y="-7" type="curve" smooth="yes"/>
	</contour>
	<contour>
	  <point x="162" y="95"/>
	  <point x="136" y="122"/>
	  <point x="136" y="161" type="curve" smooth="yes"/>
	  <point x="136" y="200"/>
	  <point x="162" y="227"/>
	  <point x="200" y="227" type="curve" smooth="yes"/>
	  <point x="238" y="227"/>
	  <point x="265" y="200"/>
	  <point x="265" y="161" type="curve" smooth="yes"/>
	  <point x="265" y="122"/>
	  <point x="238" y="95"/>
	  <point x="200" y="95" type="curve" smooth="yes"/>
	</contour>
  </outline>
</glyph>
<glyph name="U0C15.base" format="1">
  <advance width="561"/>
  <outline>
	<contour>
	  <point x="438" y="-7"/>
	  <point x="533" y="92"/>
	  <point x="533" y="207" type="curve" smooth="yes"/>
	  <point x="533" y="293"/>
	  <point x="472" y="328"/>
	  <point x="409" y="328" type="curve" smooth="yes"/>
	  <point x="347" y="328"/>
	  <point x="318" y="307"/>
	  <point x="239" y="307" type="curve" smooth="yes"/>
	  <point x="197" y="307"/>
	  <point x="165" y="322"/>
	  <point x="165" y="353" type="curve" smooth="yes"/>
	  <point x="165" y="392"/>
	  <point x="200" y="424"/>
	  <point x="286" y="424" type="curve" smooth="yes"/>
	  <point x="343" y="424"/>
	  <point x="385" y="412"/>
	  <point x="391" y="368" type="curve"/>
	  <point x="503" y="368" type="line"/>
	  <point x="503" y="466"/>
	  <point x="403" y="518"/>
	  <point x="280" y="518" type="curve" smooth="yes"/>
	  <point x="162" y="518"/>
	  <point x="41" y="465"/>
	  <point x="41" y="351" type="curve" smooth="yes"/>
	  <point x="41" y="270"/>
	  <point x="129" y="210"/>
	  <point x="217" y="210" type="curve" smooth="yes"/>
	  <point x="286" y="210"/>
	  <point x="321" y="230"/>
	  <point x="370" y="230" type="curve" smooth="yes"/>
	  <point x="402" y="230"/>
	  <point x="419" y="210"/>
	  <point x="419" y="183" type="curve" smooth="yes"/>
	  <point x="419" y="132"/>
	  <point x="361" y="95"/>
	  <point x="272" y="95" type="curve" smooth="yes"/>
	  <point x="196" y="95"/>
	  <point x="140" y="128"/>
	  <point x="140" y="179" type="curve"/>
	  <point x="21" y="179" type="line"/>
	  <point x="21" y="77"/>
	  <point x="125" y="-7"/>
	  <point x="263" y="-7" type="curve" smooth="yes"/>
	</contour>
  </outline>
</glyph>
<glyph name="U0C15_U0C42" format="1">
  <advance width="1231"/>
  <outline>
	<contour>
	  <point x="750" y="-8"/>
	  <point x="853" y="114"/>
	  <point x="853" y="245" type="curve" smooth="yes"/>
	  <point x="853" y="305"/>
	  <point x="839" y="360"/>
	  <point x="809" y="407" type="curve"/>
	  <point x="1043" y="407" type="line" smooth="yes"/>
	  <point x="1060" y="407"/>
	  <point x="1072" y="386"/>
	  <point x="1082" y="367" type="curve"/>
	  <point x="1067" y="372"/>
	  <point x="1051" y="375"/>
	  <point x="1033" y="375" type="curve" smooth="yes"/>
	  <point x="948" y="375"/>
	  <point x="885" y="311"/>
	  <point x="885" y="227" type="curve" smooth="yes"/>
	  <point x="885" y="154"/>
	  <point x="956" y="84"/>
	  <point x="1028" y="84" type="curve" smooth="yes"/>
	  <point x="1140" y="84"/>
	  <point x="1215" y="185"/>
	  <point x="1215" y="301" type="curve" smooth="yes"/>
	  <point x="1215" y="417"/>
	  <point x="1129" y="510"/>
	  <point x="1019" y="510" type="curve" smooth="yes"/>
	  <point x="594" y="510" type="line"/>
	  <point x="594" y="407" type="line"/>
	  <point x="634" y="407" type="line" smooth="yes"/>
	  <point x="703" y="407"/>
	  <point x="752" y="333"/>
	  <point x="752" y="258" type="curve" smooth="yes"/>
	  <point x="752" y="191"/>
	  <point x="707" y="104"/>
	  <point x="644" y="104" type="curve" smooth="yes"/>
	  <point x="583" y="104"/>
	  <point x="559" y="160"/>
	  <point x="536" y="211" type="curve"/>
	  <point x="536" y="283"/>
	  <point x="474" y="330"/>
	  <point x="402" y="330" type="curve" smooth="yes"/>
	  <point x="354" y="330"/>
	  <point x="307" y="307"/>
	  <point x="265" y="307" type="curve" smooth="yes"/>
	  <point x="200" y="307"/>
	  <point x="168" y="322"/>
	  <point x="168" y="353" type="curve" smooth="yes"/>
	  <point x="168" y="400"/>
	  <point x="204" y="424"/>
	  <point x="276" y="424" type="curve" smooth="yes"/>
	  <point x="334" y="424"/>
	  <point x="376" y="405"/>
	  <point x="393" y="368" type="curve"/>
	  <point x="505" y="368" type="line"/>
	  <point x="505" y="448"/>
	  <point x="455" y="494"/>
	  <point x="353" y="510" type="curve"/>
	  <point x="380" y="538"/>
	  <point x="412" y="573"/>
	  <point x="456" y="573" type="curve" smooth="yes"/>
	  <point x="484" y="573"/>
	  <point x="504" y="564"/>
	  <point x="515" y="549" type="curve"/>
	  <point x="515" y="658" type="line"/>
	  <point x="503" y="666"/>
	  <point x="483" y="671"/>
	  <point x="459" y="671" type="curve" smooth="yes"/>
	  <point x="405" y="671"/>
	  <point x="351" y="643"/>
	  <point x="302" y="588" type="curve" smooth="yes"/>
	  <point x="282" y="564"/>
	  <point x="252" y="514"/>
	  <point x="213" y="514" type="curve" smooth="yes"/>
	  <point x="175" y="514"/>
	  <point x="157" y="533"/>
	  <point x="157" y="571" type="curve" smooth="yes"/>
	  <point x="157" y="584" type="line"/>
	  <point x="39" y="584" type="line"/>
	  <point x="39" y="568" type="line" smooth="yes"/>
	  <point x="39" y="524"/>
	  <point x="70" y="486"/>
	  <point x="109" y="458" type="curve"/>
	  <point x="66" y="432"/>
	  <point x="43" y="382"/>
	  <point x="43" y="351" type="curve" smooth="yes"/>
	  <point x="43" y="270"/>
	  <point x="132" y="210"/>
	  <point x="214" y="210" type="curve"/>
	  <point x="360" y="225" type="line" smooth="yes"/>
	  <point x="401" y="229"/>
	  <point x="421" y="211"/>
	  <point x="421" y="176" type="curve" smooth="yes"/>
	  <point x="421" y="124"/>
	  <point x="347" y="95"/>
	  <point x="283" y="95" type="curve" smooth="yes"/>
	  <point x="224" y="95"/>
	  <point x="143" y="128"/>
	  <point x="143" y="179" type="curve"/>
	  <point x="24" y="179" type="line"/>
	  <point x="24" y="62"/>
	  <point x="152" y="-7"/>
	  <point x="276" y="-7" type="curve" smooth="yes"/>
	  <point x="347" y="-7"/>
	  <point x="411" y="21"/>
	  <point x="465" y="67" type="curve"/>
	  <point x="495" y="17"/>
	  <point x="556" y="-8"/>
	  <point x="623" y="-8" type="curve" smooth="yes"/>
	</contour>
	<contour>
	  <point x="1001" y="175"/>
	  <point x="987" y="195"/>
	  <point x="987" y="235" type="curve" smooth="yes"/>
	  <point x="987" y="272"/>
	  <point x="1001" y="290"/>
	  <point x="1030" y="290" type="curve" smooth="yes"/>
	  <point x="1078" y="290"/>
	  <point x="1088" y="280"/>
	  <point x="1088" y="237" type="curve" smooth="yes"/>
	  <point x="1088" y="207"/>
	  <point x="1062" y="175"/>
	  <point x="1030" y="175" type="curve" smooth="yes"/>
	</contour>
  </outline>
</glyph>
<glyph name="U0C15_U0C4C" format="1">
  <advance width="977"/>
  <outline>
	<contour>
	  <point x="423" y="-7"/>
	  <point x="563" y="91"/>
	  <point x="563" y="207" type="curve" smooth="yes"/>
	  <point x="563" y="284"/>
	  <point x="503" y="330"/>
	  <point x="427" y="330" type="curve" smooth="yes"/>
	  <point x="382" y="330"/>
	  <point x="332" y="307"/>
	  <point x="291" y="307" type="curve" smooth="yes"/>
	  <point x="228" y="307"/>
	  <point x="196" y="322"/>
	  <point x="196" y="353" type="curve" smooth="yes"/>
	  <point x="196" y="400"/>
	  <point x="231" y="424"/>
	  <point x="302" y="424" type="curve" smooth="yes"/>
	  <point x="358" y="424"/>
	  <point x="406" y="405"/>
	  <point x="420" y="368" type="curve"/>
	  <point x="533" y="368" type="line"/>
	  <point x="533" y="416"/>
	  <point x="515" y="451"/>
	  <point x="477" y="475" type="curve"/>
	  <point x="504" y="491"/>
	  <point x="517" y="517"/>
	  <point x="517" y="549" type="curve" smooth="yes"/>
	  <point x="517" y="577"/>
	  <point x="505" y="595"/>
	  <point x="484" y="603" type="curve"/>
	  <point x="704" y="603" type="line" smooth="yes"/>
	  <point x="749" y="603"/>
	  <point x="830" y="525"/>
	  <point x="830" y="476" type="curve"/>
	  <point x="738" y="476" type="line" smooth="yes"/>
	  <point x="671" y="476"/>
	  <point x="596" y="398"/>
	  <point x="596" y="328" type="curve" smooth="yes"/>
	  <point x="596" y="246"/>
	  <point x="672" y="186"/>
	  <point x="750" y="186" type="curve" smooth="yes"/>
	  <point x="871" y="186"/>
	  <point x="949" y="300"/>
	  <point x="949" y="427" type="curve" smooth="yes"/>
	  <point x="949" y="528"/>
	  <point x="864" y="703"/>
	  <point x="766" y="703" type="curve" smooth="yes"/>
	  <point x="21" y="703" type="line"/>
	  <point x="21" y="592" type="line"/>
	  <point x="357" y="592" type="line" smooth="yes"/>
	  <point x="378" y="592"/>
	  <point x="389" y="584"/>
	  <point x="389" y="568" type="curve" smooth="yes"/>
	  <point x="389" y="547"/>
	  <point x="379" y="536"/>
	  <point x="360" y="536" type="curve" smooth="yes"/>
	  <point x="116" y="536" type="line"/>
	  <point x="116" y="461" type="line"/>
	  <point x="140" y="461" type="line"/>
	  <point x="98" y="430"/>
	  <point x="71" y="386"/>
	  <point x="71" y="351" type="curve" smooth="yes"/>
	  <point x="71" y="270"/>
	  <point x="158" y="210"/>
	  <point x="241" y="210" type="curve"/>
	  <point x="388" y="225" type="line" smooth="yes"/>
	  <point x="428" y="228"/>
	  <point x="449" y="211"/>
	  <point x="449" y="176" type="curve" smooth="yes"/>
	  <point x="449" y="123"/>
	  <point x="372" y="95"/>
	  <point x="309" y="95" type="curve" smooth="yes"/>
	  <point x="252" y="95"/>
	  <point x="169" y="127"/>
	  <point x="169" y="179" type="curve"/>
	  <point x="50" y="179" type="line"/>
	  <point x="50" y="62"/>
	  <point x="178" y="-7"/>
	  <point x="302" y="-7" type="curve" smooth="yes"/>
	</contour>
	<contour>
	  <point x="731" y="291"/>
	  <point x="717" y="309"/>
	  <point x="717" y="333" type="curve" smooth="yes"/>
	  <point x="717" y="398"/>
	  <point x="819" y="399"/>
	  <point x="819" y="336" type="curve" smooth="yes"/>
	  <point x="819" y="315"/>
	  <point x="778" y="291"/>
	  <point x="757" y="291" type="curve" smooth="yes"/>
	</contour>
  </outline>
</glyph>
<glyph name="U0C15_U0C4D_U0C30_U0C4A" format="1">
  <advance width="944"/>
  <outline>
	<contour>
	  <point x="432" y="-7"/>
	  <point x="574" y="90"/>
	  <point x="574" y="207" type="curve" smooth="yes"/>
	  <point x="574" y="282"/>
	  <point x="514" y="330"/>
	  <point x="440" y="330" type="curve" smooth="yes"/>
	  <point x="392" y="330"/>
	  <point x="345" y="307"/>
	  <point x="302" y="307" type="curve" smooth="yes"/>
	  <point x="238" y="307"/>
	  <point x="206" y="322"/>
	  <point x="206" y="353" type="curve" smooth="yes"/>
	  <point x="206" y="400"/>
	  <point x="242" y="424"/>
	  <point x="314" y="424" type="curve" smooth="yes"/>
	  <point x="371" y="424"/>
	  <point x="414" y="405"/>
	  <point x="431" y="368" type="curve"/>
	  <point x="543" y="368" type="line"/>
	  <point x="543" y="465"/>
	  <point x="466" y="514"/>
	  <point x="312" y="514" type="curve" smooth="yes"/>
	  <point x="288" y="514" type="line" smooth="yes"/>
	  <point x="277" y="514"/>
	  <point x="268" y="511"/>
	  <point x="259" y="511" type="curve" smooth="yes"/>
	  <point x="225" y="511"/>
	  <point x="209" y="533"/>
	  <point x="209" y="563" type="curve" smooth="yes"/>
	  <point x="209" y="597"/>
	  <point x="271" y="620"/>
	  <point x="319" y="620" type="curve" smooth="yes"/>
	  <point x="421" y="620"/>
	  <point x="519" y="582"/>
	  <point x="519" y="491" type="curve"/>
	  <point x="633" y="491" type="line"/>
	  <point x="633" y="535"/>
	  <point x="662" y="556"/>
	  <point x="721" y="556" type="curve" smooth="yes"/>
	  <point x="777" y="556"/>
	  <point x="810" y="501"/>
	  <point x="825" y="449" type="curve"/>
	  <point x="805" y="456"/>
	  <point x="803" y="461"/>
	  <point x="770" y="461" type="curve" smooth="yes"/>
	  <point x="676" y="461"/>
	  <point x="606" y="408"/>
	  <point x="606" y="318" type="curve" smooth="yes"/>
	  <point x="606" y="249"/>
	  <point x="664" y="179"/>
	  <point x="736" y="179" type="curve" smooth="yes"/>
	  <point x="866" y="179"/>
	  <point x="932" y="272"/>
	  <point x="932" y="405" type="curve" smooth="yes"/>
	  <point x="932" y="545"/>
	  <point x="849" y="659"/>
	  <point x="718" y="659" type="curve" smooth="yes"/>
	  <point x="659" y="659"/>
	  <point x="617" y="644"/>
	  <point x="591" y="612" type="curve"/>
	  <point x="530" y="688"/>
	  <point x="485" y="725"/>
	  <point x="343" y="725" type="curve" smooth="yes"/>
	  <point x="215" y="725"/>
	  <point x="85" y="667"/>
	  <point x="85" y="549" type="curve" smooth="yes"/>
	  <point x="85" y="501"/>
	  <point x="106" y="471"/>
	  <point x="132" y="444" type="curve"/>
	  <point x="98" y="412"/>
	  <point x="81" y="381"/>
	  <point x="81" y="351" type="curve" smooth="yes"/>
	  <point x="81" y="270"/>
	  <point x="170" y="210"/>
	  <point x="252" y="210" type="curve"/>
	  <point x="398" y="225" type="line" smooth="yes"/>
	  <point x="438" y="229"/>
	  <point x="459" y="211"/>
	  <point x="459" y="176" type="curve" smooth="yes"/>
	  <point x="459" y="124"/>
	  <point x="384" y="95"/>
	  <point x="321" y="95" type="curve" smooth="yes"/>
	  <point x="262" y="95"/>
	  <point x="181" y="128"/>
	  <point x="181" y="179" type="curve"/>
	  <point x="62" y="179" type="line"/>
	  <point x="62" y="62"/>
	  <point x="190" y="-7"/>
	  <point x="314" y="-7" type="curve" smooth="yes"/>
	</contour>
	<contour>
	  <point x="468" y="-258"/>
	  <point x="599" y="-159"/>
	  <point x="634" y="-17" type="curve"/>
	  <point x="542" y="-17" type="line"/>
	  <point x="511" y="-99"/>
	  <point x="419" y="-168"/>
	  <point x="311" y="-168" type="curve" smooth="yes"/>
	  <point x="202" y="-168"/>
	  <point x="108" y="-96"/>
	  <point x="78" y="-17" type="curve"/>
	  <point x="-15" y="-17" type="line"/>
	  <point x="22" y="-153"/>
	  <point x="146" y="-258"/>
	  <point x="305" y="-258" type="curve" smooth="yes"/>
	</contour>
	<contour>
	  <point x="724" y="276"/>
	  <point x="699" y="301"/>
	  <point x="699" y="332" type="curve" smooth="yes"/>
	  <point x="699" y="358"/>
	  <point x="730" y="389"/>
	  <point x="756" y="389" type="curve" smooth="yes"/>
	  <point x="787" y="389"/>
	  <point x="811" y="363"/>
	  <point x="811" y="332" type="curve" smooth="yes"/>
	  <point x="811" y="304"/>
	  <point x="785" y="276"/>
	  <point x="756" y="276" type="curve" smooth="yes"/>
	</contour>
  </outline>
</glyph>
<glyph name="U0C15_U0C4D_U0C30_U0C4C" format="1">
  <advance width="967"/>
  <outline>
	<contour>
	  <point x="426" y="-7"/>
	  <point x="566" y="90"/>
	  <point x="566" y="207" type="curve" smooth="yes"/>
	  <point x="566" y="284"/>
	  <point x="506" y="330"/>
	  <point x="430" y="330" type="curve" smooth="yes"/>
	  <point x="385" y="330"/>
	  <point x="335" y="307"/>
	  <point x="294" y="307" type="curve" smooth="yes"/>
	  <point x="231" y="307"/>
	  <point x="199" y="322"/>
	  <point x="199" y="353" type="curve" smooth="yes"/>
	  <point x="199" y="400"/>
	  <point x="234" y="424"/>
	  <point x="305" y="424" type="curve" smooth="yes"/>
	  <point x="362" y="424"/>
	  <point x="409" y="405"/>
	  <point x="423" y="368" type="curve"/>
	  <point x="536" y="368" type="line"/>
	  <point x="536" y="416"/>
	  <point x="518" y="451"/>
	  <point x="480" y="475" type="curve"/>
	  <point x="507" y="491"/>
	  <point x="519" y="517"/>
	  <point x="519" y="549" type="curve" smooth="yes"/>
	  <point x="519" y="577"/>
	  <point x="508" y="595"/>
	  <point x="487" y="603" type="curve"/>
	  <point x="707" y="603" type="line" smooth="yes"/>
	  <point x="752" y="603"/>
	  <point x="833" y="525"/>
	  <point x="833" y="476" type="curve"/>
	  <point x="741" y="476" type="line" smooth="yes"/>
	  <point x="673" y="476"/>
	  <point x="599" y="397"/>
	  <point x="599" y="328" type="curve" smooth="yes"/>
	  <point x="599" y="246"/>
	  <point x="675" y="186"/>
	  <point x="753" y="186" type="curve" smooth="yes"/>
	  <point x="873" y="186"/>
	  <point x="952" y="300"/>
	  <point x="952" y="427" type="curve" smooth="yes"/>
	  <point x="952" y="528"/>
	  <point x="866" y="703"/>
	  <point x="769" y="703" type="curve" smooth="yes"/>
	  <point x="24" y="703" type="line"/>
	  <point x="24" y="592" type="line"/>
	  <point x="360" y="592" type="line" smooth="yes"/>
	  <point x="381" y="592"/>
	  <point x="392" y="584"/>
	  <point x="392" y="568" type="curve" smooth="yes"/>
	  <point x="392" y="547"/>
	  <point x="382" y="536"/>
	  <point x="363" y="536" type="curve" smooth="yes"/>
	  <point x="119" y="536" type="line"/>
	  <point x="119" y="461" type="line"/>
	  <point x="143" y="461" type="line"/>
	  <point x="101" y="430"/>
	  <point x="74" y="386"/>
	  <point x="74" y="351" type="curve" smooth="yes"/>
	  <point x="74" y="270"/>
	  <point x="161" y="210"/>
	  <point x="244" y="210" type="curve"/>
	  <point x="391" y="225" type="line" smooth="yes"/>
	  <point x="431" y="229"/>
	  <point x="452" y="211"/>
	  <point x="452" y="176" type="curve" smooth="yes"/>
	  <point x="452" y="123"/>
	  <point x="375" y="95"/>
	  <point x="312" y="95" type="curve" smooth="yes"/>
	  <point x="255" y="95"/>
	  <point x="172" y="128"/>
	  <point x="172" y="179" type="curve"/>
	  <point x="53" y="179" type="line"/>
	  <point x="53" y="62"/>
	  <point x="181" y="-7"/>
	  <point x="305" y="-7" type="curve" smooth="yes"/>
	</contour>
	<contour>
	  <point x="462" y="-259"/>
	  <point x="592" y="-160"/>
	  <point x="627" y="-18" type="curve"/>
	  <point x="535" y="-18" type="line"/>
	  <point x="504" y="-100"/>
	  <point x="412" y="-171"/>
	  <point x="304" y="-171" type="curve" smooth="yes"/>
	  <point x="194" y="-171"/>
	  <point x="101" y="-98"/>
	  <point x="71" y="-18" type="curve"/>
	  <point x="-22" y="-18" type="line"/>
	  <point x="15" y="-154"/>
	  <point x="139" y="-259"/>
	  <point x="298" y="-259" type="curve" smooth="yes"/>
	</contour>
	<contour>
	  <point x="733" y="291"/>
	  <point x="720" y="309"/>
	  <point x="720" y="333" type="curve" smooth="yes"/>
	  <point x="720" y="397"/>
	  <point x="822" y="399"/>
	  <point x="822" y="336" type="curve" smooth="yes"/>
	  <point x="822" y="315"/>
	  <point x="781" y="291"/>
	  <point x="760" y="291" type="curve" smooth="yes"/>
	</contour>
  </outline>
</glyph>
<glyph name="U0C15_U0C4D_U0C30_U0C4D_" format="1">
  <advance width="650"/>
  <outline>
	<contour>
	  <point x="432" y="-7"/>
	  <point x="574" y="90"/>
	  <point x="574" y="207" type="curve" smooth="yes"/>
	  <point x="574" y="282"/>
	  <point x="514" y="330"/>
	  <point x="440" y="330" type="curve" smooth="yes"/>
	  <point x="392" y="330"/>
	  <point x="345" y="307"/>
	  <point x="302" y="307" type="curve" smooth="yes"/>
	  <point x="238" y="307"/>
	  <point x="206" y="322"/>
	  <point x="206" y="353" type="curve" smooth="yes"/>
	  <point x="206" y="400"/>
	  <point x="242" y="424"/>
	  <point x="314" y="424" type="curve" smooth="yes"/>
	  <point x="371" y="424"/>
	  <point x="414" y="405"/>
	  <point x="431" y="368" type="curve"/>
	  <point x="543" y="368" type="line"/>
	  <point x="543" y="426"/>
	  <point x="515" y="468"/>
	  <point x="459" y="491" type="curve"/>
	  <point x="459" y="533" type="line"/>
	  <point x="218" y="533" type="line" smooth="yes"/>
	  <point x="203" y="533"/>
	  <point x="196" y="539"/>
	  <point x="196" y="550" type="curve" smooth="yes"/>
	  <point x="196" y="567"/>
	  <point x="204" y="575"/>
	  <point x="220" y="575" type="curve" smooth="yes"/>
	  <point x="459" y="575" type="line"/>
	  <point x="459" y="675" type="line"/>
	  <point x="217" y="675" type="line" smooth="yes"/>
	  <point x="202" y="675"/>
	  <point x="195" y="680"/>
	  <point x="195" y="692" type="curve" smooth="yes"/>
	  <point x="195" y="707"/>
	  <point x="203" y="714"/>
	  <point x="218" y="714" type="curve" smooth="yes"/>
	  <point x="587" y="714" type="line"/>
	  <point x="587" y="819" type="line"/>
	  <point x="190" y="819" type="line" smooth="yes"/>
	  <point x="135" y="819"/>
	  <point x="74" y="740"/>
	  <point x="74" y="687" type="curve" smooth="yes"/>
	  <point x="74" y="661"/>
	  <point x="90" y="636"/>
	  <point x="122" y="609" type="curve"/>
	  <point x="99" y="585"/>
	  <point x="88" y="563"/>
	  <point x="88" y="542" type="curve" smooth="yes"/>
	  <point x="88" y="517"/>
	  <point x="118" y="468"/>
	  <point x="140" y="458" type="curve"/>
	  <point x="140" y="454" type="line"/>
	  <point x="101" y="419"/>
	  <point x="81" y="385"/>
	  <point x="81" y="351" type="curve" smooth="yes"/>
	  <point x="81" y="270"/>
	  <point x="170" y="210"/>
	  <point x="252" y="210" type="curve"/>
	  <point x="398" y="225" type="line" smooth="yes"/>
	  <point x="438" y="229"/>
	  <point x="459" y="211"/>
	  <point x="459" y="176" type="curve" smooth="yes"/>
	  <point x="459" y="124"/>
	  <point x="384" y="95"/>
	  <point x="321" y="95" type="curve" smooth="yes"/>
	  <point x="262" y="95"/>
	  <point x="181" y="128"/>
	  <point x="181" y="179" type="curve"/>
	  <point x="62" y="179" type="line"/>
	  <point x="62" y="62"/>
	  <point x="190" y="-7"/>
	  <point x="314" y="-7" type="curve" smooth="yes"/>
	</contour>
	<contour>
	  <point x="468" y="-258"/>
	  <point x="599" y="-159"/>
	  <point x="634" y="-17" type="curve"/>
	  <point x="542" y="-17" type="line"/>
	  <point x="511" y="-99"/>
	  <point x="419" y="-168"/>
	  <point x="311" y="-168" type="curve" smooth="yes"/>
	  <point x="202" y="-168"/>
	  <point x="108" y="-96"/>
	  <point x="78" y="-17" type="curve"/>
	  <point x="-15" y="-17" type="line"/>
	  <point x="22" y="-153"/>
	  <point x="146" y="-258"/>
	  <point x="305" y="-258" type="curve" smooth="yes"/>
	</contour>
  </outline>
</glyph>
<glyph name="U0C15_U0C4D_U0C37_U0C4C" format="1">
  <advance width="977"/>
  <outline>
	<contour>
	  <point x="423" y="-7"/>
	  <point x="563" y="90"/>
	  <point x="563" y="207" type="curve" smooth="yes"/>
	  <point x="563" y="284"/>
	  <point x="503" y="330"/>
	  <point x="427" y="330" type="curve" smooth="yes"/>
	  <point x="382" y="330"/>
	  <point x="332" y="307"/>
	  <point x="291" y="307" type="curve" smooth="yes"/>
	  <point x="228" y="307"/>
	  <point x="196" y="322"/>
	  <point x="196" y="353" type="curve" smooth="yes"/>
	  <point x="196" y="400"/>
	  <point x="231" y="424"/>
	  <point x="302" y="424" type="curve" smooth="yes"/>
	  <point x="359" y="424"/>
	  <point x="406" y="405"/>
	  <point x="420" y="368" type="curve"/>
	  <point x="533" y="368" type="line"/>
	  <point x="533" y="416"/>
	  <point x="515" y="451"/>
	  <point x="477" y="475" type="curve"/>
	  <point x="504" y="491"/>
	  <point x="517" y="517"/>
	  <point x="517" y="549" type="curve" smooth="yes"/>
	  <point x="517" y="577"/>
	  <point x="505" y="595"/>
	  <point x="484" y="603" type="curve"/>
	  <point x="704" y="603" type="line" smooth="yes"/>
	  <point x="749" y="603"/>
	  <point x="830" y="525"/>
	  <point x="830" y="476" type="curve"/>
	  <point x="738" y="476" type="line" smooth="yes"/>
	  <point x="670" y="476"/>
	  <point x="596" y="397"/>
	  <point x="596" y="328" type="curve" smooth="yes"/>
	  <point x="596" y="246"/>
	  <point x="672" y="186"/>
	  <point x="750" y="186" type="curve" smooth="yes"/>
	  <point x="871" y="186"/>
	  <point x="949" y="300"/>
	  <point x="949" y="427" type="curve" smooth="yes"/>
	  <point x="949" y="528"/>
	  <point x="863" y="703"/>
	  <point x="766" y="703" type="curve" smooth="yes"/>
	  <point x="21" y="703" type="line"/>
	  <point x="21" y="592" type="line"/>
	  <point x="357" y="592" type="line" smooth="yes"/>
	  <point x="378" y="592"/>
	  <point x="389" y="584"/>
	  <point x="389" y="568" type="curve" smooth="yes"/>
	  <point x="389" y="547"/>
	  <point x="379" y="536"/>
	  <point x="360" y="536" type="curve" smooth="yes"/>
	  <point x="116" y="536" type="line"/>
	  <point x="116" y="461" type="line"/>
	  <point x="140" y="461" type="line"/>
	  <point x="98" y="430"/>
	  <point x="71" y="386"/>
	  <point x="71" y="351" type="curve" smooth="yes"/>
	  <point x="71" y="270"/>
	  <point x="158" y="210"/>
	  <point x="241" y="210" type="curve"/>
	  <point x="388" y="225" type="line" smooth="yes"/>
	  <point x="429" y="229"/>
	  <point x="449" y="211"/>
	  <point x="449" y="176" type="curve" smooth="yes"/>
	  <point x="449" y="123"/>
	  <point x="373" y="95"/>
	  <point x="309" y="95" type="curve" smooth="yes"/>
	  <point x="252" y="95"/>
	  <point x="169" y="128"/>
	  <point x="169" y="179" type="curve"/>
	  <point x="50" y="179" type="line"/>
	  <point x="50" y="62"/>
	  <point x="178" y="-7"/>
	  <point x="302" y="-7" type="curve" smooth="yes"/>
	</contour>
	<contour>
	  <point x="640" y="-290" type="line"/>
	  <point x="626" y="-279"/>
	  <point x="619" y="-251"/>
	  <point x="619" y="-206" type="curve"/>
	  <point x="624" y="-157" type="line"/>
	  <point x="624" y="-106" type="line" smooth="yes"/>
	  <point x="624" y="-38"/>
	  <point x="595" y="10"/>
	  <point x="538" y="36" type="curve"/>
	  <point x="493" y="-14" type="line"/>
	  <point x="512" y="-24"/>
	  <point x="522" y="-39"/>
	  <point x="522" y="-63" type="curve" smooth="yes"/>
	  <point x="522" y="-100"/>
	  <point x="491" y="-134"/>
	  <point x="452" y="-134" type="curve" smooth="yes"/>
	  <point x="412" y="-134"/>
	  <point x="392" y="-112"/>
	  <point x="392" y="-66" type="curve"/>
	  <point x="396" y="-49" type="line"/>
	  <point x="396" y="-34" type="line"/>
	  <point x="294" y="-34" type="line"/>
	  <point x="298" y="-49" type="line"/>
	  <point x="298" y="-66" type="line" smooth="yes"/>
	  <point x="298" y="-115"/>
	  <point x="273" y="-140"/>
	  <point x="223" y="-140" type="curve" smooth="yes"/>
	  <point x="179" y="-140"/>
	  <point x="148" y="-106"/>
	  <point x="148" y="-63" type="curve" smooth="yes"/>
	  <point x="148" y="-50"/>
	  <point x="148" y="-37"/>
	  <point x="148" y="-24" type="curve"/>
	  <point x="52" y="-24" type="line"/>
	  <point x="48" y="-39"/>
	  <point x="45" y="-56"/>
	  <point x="45" y="-71" type="curve" smooth="yes"/>
	  <point x="45" y="-154"/>
	  <point x="123" y="-239"/>
	  <point x="206" y="-239" type="curve" smooth="yes"/>
	  <point x="272" y="-239"/>
	  <point x="315" y="-221"/>
	  <point x="337" y="-183" type="curve"/>
	  <point x="377" y="-218"/>
	  <point x="412" y="-235"/>
	  <point x="442" y="-235" type="curve" smooth="yes"/>
	  <point x="462" y="-235"/>
	  <point x="496" y="-224"/>
	  <point x="542" y="-203" type="curve"/>
	  <point x="542" y="-255" type="line" smooth="yes"/>
	  <point x="542" y="-284"/>
	  <point x="552" y="-311"/>
	  <point x="573" y="-335" type="curve"/>
	</contour>
	<contour>
	  <point x="730" y="291"/>
	  <point x="717" y="309"/>
	  <point x="717" y="333" type="curve" smooth="yes"/>
	  <point x="717" y="397"/>
	  <point x="819" y="399"/>
	  <point x="819" y="336" type="curve" smooth="yes"/>
	  <point x="819" y="315"/>
	  <point x="778" y="291"/>
	  <point x="757" y="291" type="curve" smooth="yes"/>
	</contour>
  </outline>
</glyph>
<glyph name="U0C15_U0C4D_U0C37_U0C4D_U0C2E_U" format="1">
  <advance width="993"/>
  <outline>
	<contour>
	  <point x="395" y="-7"/>
	  <point x="536" y="90"/>
	  <point x="536" y="207" type="curve" smooth="yes"/>
	  <point x="536" y="282"/>
	  <point x="476" y="330"/>
	  <point x="402" y="330" type="curve" smooth="yes"/>
	  <point x="354" y="330"/>
	  <point x="307" y="307"/>
	  <point x="265" y="307" type="curve" smooth="yes"/>
	  <point x="200" y="307"/>
	  <point x="168" y="322"/>
	  <point x="168" y="353" type="curve" smooth="yes"/>
	  <point x="168" y="400"/>
	  <point x="204" y="424"/>
	  <point x="276" y="424" type="curve" smooth="yes"/>
	  <point x="334" y="424"/>
	  <point x="376" y="405"/>
	  <point x="393" y="368" type="curve"/>
	  <point x="505" y="368" type="line"/>
	  <point x="505" y="433"/>
	  <point x="472" y="476"/>
	  <point x="405" y="498" type="curve"/>
	  <point x="440" y="534"/>
	  <point x="465" y="573"/>
	  <point x="465" y="615" type="curve" smooth="yes"/>
	  <point x="465" y="727"/>
	  <point x="377" y="799"/>
	  <point x="260" y="799" type="curve" smooth="yes"/>
	  <point x="185" y="799"/>
	  <point x="105" y="757"/>
	  <point x="105" y="686" type="curve" smooth="yes"/>
	  <point x="105" y="617"/>
	  <point x="146" y="582"/>
	  <point x="225" y="582" type="curve" smooth="yes"/>
	  <point x="289" y="582"/>
	  <point x="343" y="633"/>
	  <point x="343" y="686" type="curve"/>
	  <point x="367" y="672"/>
	  <point x="379" y="651"/>
	  <point x="379" y="623" type="curve" smooth="yes"/>
	  <point x="379" y="575"/>
	  <point x="316" y="521"/>
	  <point x="270" y="521" type="curve" smooth="yes"/>
	  <point x="218" y="521"/>
	  <point x="179" y="536"/>
	  <point x="153" y="566" type="curve"/>
	  <point x="83" y="519" type="line"/>
	  <point x="98" y="504"/>
	  <point x="116" y="491"/>
	  <point x="136" y="479" type="curve"/>
	  <point x="92" y="446"/>
	  <point x="43" y="399"/>
	  <point x="43" y="351" type="curve" smooth="yes"/>
	  <point x="43" y="270"/>
	  <point x="132" y="210"/>
	  <point x="214" y="210" type="curve"/>
	  <point x="360" y="225" type="line" smooth="yes"/>
	  <point x="401" y="229"/>
	  <point x="421" y="211"/>
	  <point x="421" y="176" type="curve" smooth="yes"/>
	  <point x="421" y="124"/>
	  <point x="347" y="95"/>
	  <point x="283" y="95" type="curve" smooth="yes"/>
	  <point x="224" y="95"/>
	  <point x="143" y="128"/>
	  <point x="143" y="179" type="curve"/>
	  <point x="24" y="179" type="line"/>
	  <point x="24" y="62"/>
	  <point x="152" y="-7"/>
	  <point x="276" y="-7" type="curve" smooth="yes"/>
	</contour>
	<contour>
	  <point x="617" y="-290" type="line"/>
	  <point x="602" y="-277"/>
	  <point x="596" y="-249"/>
	  <point x="596" y="-206" type="curve" smooth="yes"/>
	  <point x="596" y="-157" type="line" smooth="yes"/>
	  <point x="596" y="-151"/>
	  <point x="599" y="-143"/>
	  <point x="602" y="-133" type="curve"/>
	  <point x="602" y="-105" type="line" smooth="yes"/>
	  <point x="602" y="-38"/>
	  <point x="573" y="8"/>
	  <point x="514" y="35" type="curve"/>
	  <point x="469" y="-17" type="line"/>
	  <point x="490" y="-25"/>
	  <point x="500" y="-41"/>
	  <point x="500" y="-63" type="curve" smooth="yes"/>
	  <point x="500" y="-102"/>
	  <point x="469" y="-134"/>
	  <point x="428" y="-134" type="curve" smooth="yes"/>
	  <point x="391" y="-134"/>
	  <point x="371" y="-112"/>
	  <point x="371" y="-66" type="curve"/>
	  <point x="375" y="-49" type="line"/>
	  <point x="375" y="-35" type="line"/>
	  <point x="272" y="-35" type="line"/>
	  <point x="276" y="-49" type="line"/>
	  <point x="276" y="-66" type="line" smooth="yes"/>
	  <point x="276" y="-115"/>
	  <point x="251" y="-140"/>
	  <point x="202" y="-140" type="curve" smooth="yes"/>
	  <point x="156" y="-140"/>
	  <point x="127" y="-107"/>
	  <point x="127" y="-63" type="curve" smooth="yes"/>
	  <point x="127" y="-51"/>
	  <point x="127" y="-40"/>
	  <point x="127" y="-28" type="curve"/>
	  <point x="32" y="-28" type="line"/>
	  <point x="27" y="-42"/>
	  <point x="24" y="-56"/>
	  <point x="24" y="-71" type="curve" smooth="yes"/>
	  <point x="24" y="-154"/>
	  <point x="103" y="-238"/>
	  <point x="186" y="-238" type="curve" smooth="yes"/>
	  <point x="249" y="-238"/>
	  <point x="293" y="-220"/>
	  <point x="316" y="-183" type="curve"/>
	  <point x="354" y="-218"/>
	  <point x="389" y="-235"/>
	  <point x="421" y="-235" type="curve" smooth="yes"/>
	  <point x="441" y="-235"/>
	  <point x="473" y="-224"/>
	  <point x="518" y="-202" type="curve"/>
	  <point x="518" y="-253" type="line" smooth="yes"/>
	  <point x="518" y="-284"/>
	  <point x="528" y="-311"/>
	  <point x="549" y="-333" type="curve"/>
	</contour>
	<contour>
	  <point x="806" y="-85"/>
	  <point x="790" y="-71"/>
	  <point x="790" y="-45" type="curve" smooth="yes"/>
	  <point x="790" y="-13"/>
	  <point x="802" y="4"/>
	  <point x="829" y="4" type="curve" smooth="yes"/>
	  <point x="850" y="4"/>
	  <point x="876" y="-16"/>
	  <point x="876" y="-36" type="curve" smooth="yes"/>
	  <point x="876" y="-69"/>
	  <point x="864" y="-85"/>
	  <point x="839" y="-85" type="curve" smooth="yes"/>
	</contour>
	<contour>
	  <point x="896" y="-189"/>
	  <point x="976" y="-123"/>
	  <point x="976" y="-35" type="curve" smooth="yes"/>
	  <point x="976" y="18"/>
	  <point x="955" y="62"/>
	  <point x="911" y="97" type="curve"/>
	  <point x="938" y="151"/>
	  <point x="952" y="190"/>
	  <point x="952" y="217" type="curve" smooth="yes"/>
	  <point x="952" y="300"/>
	  <point x="887" y="377"/>
	  <point x="809" y="377" type="curve" smooth="yes"/>
	  <point x="699" y="377"/>
	  <point x="644" y="321"/>
	  <point x="644" y="210" type="curve"/>
	  <point x="763" y="210" type="line"/>
	  <point x="753" y="223"/>
	  <point x="749" y="235"/>
	  <point x="749" y="245" type="curve" smooth="yes"/>
	  <point x="749" y="265"/>
	  <point x="764" y="274"/>
	  <point x="797" y="274" type="curve" smooth="yes"/>
	  <point x="832" y="274"/>
	  <point x="848" y="253"/>
	  <point x="848" y="210" type="curve" smooth="yes"/>
	  <point x="848" y="171"/>
	  <point x="832" y="139"/>
	  <point x="797" y="115" type="curve"/>
	  <point x="556" y="115" type="line"/>
	  <point x="556" y="13" type="line"/>
	  <point x="692" y="13" type="line"/>
	  <point x="685" y="0"/>
	  <point x="680" y="-25"/>
	  <point x="680" y="-60" type="curve" smooth="yes"/>
	  <point x="680" y="-146"/>
	  <point x="724" y="-189"/>
	  <point x="809" y="-189" type="curve" smooth="yes"/>
	</contour>
	<contour>
	  <point x="220" y="651"/>
	  <point x="203" y="662"/>
	  <point x="203" y="685" type="curve" smooth="yes"/>
	  <point x="203" y="700"/>
	  <point x="207" y="708"/>
	  <point x="211" y="711" type="curve"/>
	  <point x="246" y="715"/>
	  <point x="272" y="711"/>
	  <point x="272" y="692" type="curve" smooth="yes"/>
	  <point x="272" y="665"/>
	  <point x="265" y="651"/>
	  <point x="252" y="651" type="curve" smooth="yes"/>
	</contour>
  </outline>
</glyph>
<glyph name="U0C15_U0C4D_U0C37_U0C4D_U0C30_U.1021" format="1">
  <advance width="692"/>
  <outline>
	<contour>
	  <point x="432" y="-7"/>
	  <point x="574" y="90"/>
	  <point x="574" y="207" type="curve" smooth="yes"/>
	  <point x="574" y="282"/>
	  <point x="514" y="330"/>
	  <point x="440" y="330" type="curve" smooth="yes"/>
	  <point x="392" y="330"/>
	  <point x="345" y="307"/>
	  <point x="302" y="307" type="curve" smooth="yes"/>
	  <point x="238" y="307"/>
	  <point x="206" y="322"/>
	  <point x="206" y="353" type="curve" smooth="yes"/>
	  <point x="206" y="400"/>
	  <point x="242" y="424"/>
	  <point x="314" y="424" type="curve" smooth="yes"/>
	  <point x="371" y="424"/>
	  <point x="414" y="405"/>
	  <point x="431" y="368" type="curve"/>
	  <point x="543" y="368" type="line"/>
	  <point x="543" y="426"/>
	  <point x="515" y="468"/>
	  <point x="459" y="491" type="curve"/>
	  <point x="459" y="533" type="line"/>
	  <point x="218" y="533" type="line" smooth="yes"/>
	  <point x="203" y="533"/>
	  <point x="196" y="539"/>
	  <point x="196" y="550" type="curve" smooth="yes"/>
	  <point x="196" y="567"/>
	  <point x="204" y="575"/>
	  <point x="220" y="575" type="curve" smooth="yes"/>
	  <point x="459" y="575" type="line"/>
	  <point x="459" y="675" type="line"/>
	  <point x="217" y="675" type="line" smooth="yes"/>
	  <point x="202" y="675"/>
	  <point x="195" y="680"/>
	  <point x="195" y="692" type="curve" smooth="yes"/>
	  <point x="195" y="707"/>
	  <point x="203" y="714"/>
	  <point x="218" y="714" type="curve" smooth="yes"/>
	  <point x="587" y="714" type="line"/>
	  <point x="587" y="819" type="line"/>
	  <point x="190" y="819" type="line" smooth="yes"/>
	  <point x="135" y="819"/>
	  <point x="74" y="740"/>
	  <point x="74" y="687" type="curve" smooth="yes"/>
	  <point x="74" y="661"/>
	  <point x="90" y="636"/>
	  <point x="122" y="609" type="curve"/>
	  <point x="99" y="585"/>
	  <point x="88" y="563"/>
	  <point x="88" y="542" type="curve" smooth="yes"/>
	  <point x="88" y="517"/>
	  <point x="118" y="468"/>
	  <point x="140" y="458" type="curve"/>
	  <point x="140" y="454" type="line"/>
	  <point x="101" y="419"/>
	  <point x="81" y="385"/>
	  <point x="81" y="351" type="curve" smooth="yes"/>
	  <point x="81" y="270"/>
	  <point x="170" y="210"/>
	  <point x="252" y="210" type="curve"/>
	  <point x="398" y="225" type="line" smooth="yes"/>
	  <point x="438" y="229"/>
	  <point x="459" y="211"/>
	  <point x="459" y="176" type="curve" smooth="yes"/>
	  <point x="459" y="124"/>
	  <point x="384" y="95"/>
	  <point x="321" y="95" type="curve" smooth="yes"/>
	  <point x="262" y="95"/>
	  <point x="181" y="128"/>
	  <point x="181" y="179" type="curve"/>
	  <point x="62" y="179" type="line"/>
	  <point x="62" y="62"/>
	  <point x="190" y="-7"/>
	  <point x="314" y="-7" type="curve" smooth="yes"/>
	</contour>
	<contour>
	  <point x="631" y="-318" type="line"/>
	  <point x="616" y="-307"/>
	  <point x="609" y="-279"/>
	  <point x="609" y="-234" type="curve"/>
	  <point x="616" y="-182" type="line"/>
	  <point x="616" y="-133" type="line" smooth="yes"/>
	  <point x="616" y="-64"/>
	  <point x="587" y="-17"/>
	  <point x="528" y="8" type="curve"/>
	  <point x="483" y="-42" type="line"/>
	  <point x="503" y="-52"/>
	  <point x="512" y="-67"/>
	  <point x="512" y="-88" type="curve" smooth="yes"/>
	  <point x="512" y="-127"/>
	  <point x="480" y="-162"/>
	  <point x="444" y="-162" type="curve" smooth="yes"/>
	  <point x="403" y="-162"/>
	  <point x="384" y="-139"/>
	  <point x="384" y="-92" type="curve"/>
	  <point x="388" y="-73" type="line"/>
	  <point x="388" y="-60" type="line"/>
	  <point x="286" y="-60" type="line"/>
	  <point x="286" y="-73" type="line"/>
	  <point x="290" y="-92" type="line"/>
	  <point x="290" y="-141"/>
	  <point x="265" y="-165"/>
	  <point x="214" y="-165" type="curve" smooth="yes"/>
	  <point x="167" y="-165"/>
	  <point x="140" y="-134"/>
	  <point x="140" y="-88" type="curve" smooth="yes"/>
	  <point x="140" y="-76"/>
	  <point x="140" y="-64"/>
	  <point x="140" y="-52" type="curve"/>
	  <point x="43" y="-52" type="line"/>
	  <point x="38" y="-66"/>
	  <point x="35" y="-81"/>
	  <point x="35" y="-98" type="curve" smooth="yes"/>
	  <point x="35" y="-183"/>
	  <point x="118" y="-266"/>
	  <point x="197" y="-266" type="curve" smooth="yes"/>
	  <point x="263" y="-266"/>
	  <point x="307" y="-248"/>
	  <point x="328" y="-210" type="curve"/>
	  <point x="368" y="-245"/>
	  <point x="403" y="-262"/>
	  <point x="434" y="-262" type="curve" smooth="yes"/>
	  <point x="455" y="-262"/>
	  <point x="487" y="-251"/>
	  <point x="532" y="-228" type="curve"/>
	  <point x="532" y="-280" type="line" smooth="yes"/>
	  <point x="532" y="-311"/>
	  <point x="542" y="-339"/>
	  <point x="563" y="-363" type="curve"/>
	</contour>
  </outline>
</glyph>
<glyph name="U0C16.haln" format="1">
  <advance width="801"/>
  <outline>
	<contour>
	  <point x="252" y="-10"/>
	  <point x="324" y="26"/>
	  <point x="356" y="57" type="curve"/>
	  <point x="411" y="4"/>
	  <point x="414" y="-1"/>
	  <point x="504" y="-1" type="curve" smooth="yes"/>
	  <point x="646" y="-1"/>
	  <point x="755" y="114"/>
	  <point x="755" y="258" type="curve" smooth="yes"/>
	  <point x="755" y="379"/>
	  <point x="688" y="482"/>
	  <point x="589" y="507" type="curve" smooth="yes"/>
	  <point x="542" y="519"/>
	  <point x="518" y="526"/>
	  <point x="518" y="536" type="curve" smooth="yes"/>
	  <point x="518" y="547"/>
	  <point x="528" y="553"/>
	  <point x="549" y="553" type="curve" smooth="yes"/>
	  <point x="776" y="553" type="line"/>
	  <point x="776" y="641" type="line"/>
	  <point x="553" y="641" type="line" smooth="yes"/>
	  <point x="532" y="641"/>
	  <point x="522" y="647"/>
	  <point x="522" y="657" type="curve" smooth="yes"/>
	  <point x="522" y="672"/>
	  <point x="533" y="680"/>
	  <point x="554" y="680" type="curve" smooth="yes"/>
	  <point x="801" y="680" type="line"/>
	  <point x="801" y="778" type="line"/>
	  <point x="531" y="778" type="line" smooth="yes"/>
	  <point x="467" y="778"/>
	  <point x="412" y="728"/>
	  <point x="412" y="664" type="curve" smooth="yes"/>
	  <point x="412" y="634"/>
	  <point x="426" y="608"/>
	  <point x="452" y="584" type="curve"/>
	  <point x="430" y="563"/>
	  <point x="419" y="542"/>
	  <point x="419" y="518" type="curve" smooth="yes"/>
	  <point x="419" y="475"/>
	  <point x="481" y="438"/>
	  <point x="519" y="428" type="curve" smooth="yes"/>
	  <point x="607" y="407"/>
	  <point x="658" y="349"/>
	  <point x="658" y="256" type="curve" smooth="yes"/>
	  <point x="658" y="172"/>
	  <point x="594" y="99"/>
	  <point x="508" y="99" type="curve" smooth="yes"/>
	  <point x="475" y="99"/>
	  <point x="434" y="118"/>
	  <point x="431" y="148" type="curve"/>
	  <point x="454" y="171"/>
	  <point x="473" y="239"/>
	  <point x="473" y="280" type="curve" smooth="yes"/>
	  <point x="473" y="440"/>
	  <point x="378" y="536"/>
	  <point x="235" y="536" type="curve" smooth="yes"/>
	  <point x="128" y="536"/>
	  <point x="27" y="469"/>
	  <point x="27" y="392" type="curve" smooth="yes"/>
	  <point x="27" y="308"/>
	  <point x="93" y="260"/>
	  <point x="181" y="260" type="curve" smooth="yes"/>
	  <point x="256" y="260"/>
	  <point x="310" y="322"/>
	  <point x="323" y="382" type="curve"/>
	  <point x="378" y="376"/>
	  <point x="375" y="279"/>
	  <point x="354" y="199" type="curve"/>
	  <point x="314" y="228"/>
	  <point x="260" y="244"/>
	  <point x="195" y="244" type="curve" smooth="yes"/>
	  <point x="116" y="244"/>
	  <point x="21" y="187"/>
	  <point x="21" y="111" type="curve" smooth="yes"/>
	  <point x="21" y="29"/>
	  <point x="96" y="-10"/>
	  <point x="181" y="-10" type="curve" smooth="yes"/>
	</contour>
	<contour>
	  <point x="409" y="-132" type="line"/>
	  <point x="409" y="-7" type="line"/>
	  <point x="294" y="-7" type="line"/>
	  <point x="294" y="-132" type="line"/>
	</contour>
	<contour>
	  <point x="160" y="95"/>
	  <point x="141" y="105"/>
	  <point x="141" y="125" type="curve" smooth="yes"/>
	  <point x="141" y="143"/>
	  <point x="162" y="151"/>
	  <point x="203" y="151" type="curve" smooth="yes"/>
	  <point x="232" y="151"/>
	  <point x="256" y="143"/>
	  <point x="277" y="126" type="curve"/>
	  <point x="262" y="105"/>
	  <point x="235" y="95"/>
	  <point x="195" y="95" type="curve" smooth="yes"/>
	</contour>
	<contour>
	  <point x="148" y="350"/>
	  <point x="134" y="364"/>
	  <point x="134" y="392" type="curve" smooth="yes"/>
	  <point x="134" y="421"/>
	  <point x="148" y="435"/>
	  <point x="175" y="435" type="curve" smooth="yes"/>
	  <point x="202" y="435"/>
	  <point x="216" y="421"/>
	  <point x="216" y="392" type="curve" smooth="yes"/>
	  <point x="216" y="364"/>
	  <point x="202" y="350"/>
	  <point x="175" y="350" type="curve" smooth="yes"/>
	</contour>
  </outline>
</glyph>
<glyph name="U0C16_U0C3E" format="1">
  <advance width="1155"/>
  <outline>
	<contour>
	  <point x="252" y="-10"/>
	  <point x="324" y="26"/>
	  <point x="356" y="57" type="curve"/>
	  <point x="411" y="4"/>
	  <point x="414" y="-1"/>
	  <point x="504" y="-1" type="curve" smooth="yes"/>
	  <point x="646" y="-1"/>
	  <point x="755" y="114"/>
	  <point x="755" y="258" type="curve" smooth="yes"/>
	  <point x="755" y="321"/>
	  <point x="739" y="377"/>
	  <point x="708" y="421" type="curve"/>
	  <point x="797" y="421" type="line" smooth="yes"/>
	  <point x="907" y="421"/>
	  <point x="965" y="427"/>
	  <point x="1004" y="374" type="curve"/>
	  <point x="951" y="378" type="line"/>
	  <point x="848" y="378"/>
	  <point x="787" y="319"/>
	  <point x="787" y="221" type="curve" smooth="yes"/>
	  <point x="787" y="146"/>
	  <point x="854" y="81"/>
	  <point x="931" y="81" type="curve" smooth="yes"/>
	  <point x="1039" y="81"/>
	  <point x="1127" y="184"/>
	  <point x="1127" y="291" type="curve" smooth="yes"/>
	  <point x="1127" y="400"/>
	  <point x="1084" y="472"/>
	  <point x="995" y="507" type="curve" smooth="yes"/>
	  <point x="974" y="515"/>
	  <point x="903" y="519"/>
	  <point x="781" y="519" type="curve" smooth="yes"/>
	  <point x="491" y="519" type="line"/>
	  <point x="491" y="421" type="line"/>
	  <point x="549" y="421" type="line"/>
	  <point x="621" y="402"/>
	  <point x="658" y="327"/>
	  <point x="658" y="256" type="curve" smooth="yes"/>
	  <point x="658" y="172"/>
	  <point x="594" y="99"/>
	  <point x="508" y="99" type="curve" smooth="yes"/>
	  <point x="475" y="99"/>
	  <point x="434" y="118"/>
	  <point x="431" y="148" type="curve"/>
	  <point x="454" y="171"/>
	  <point x="473" y="239"/>
	  <point x="473" y="280" type="curve" smooth="yes"/>
	  <point x="473" y="440"/>
	  <point x="378" y="536"/>
	  <point x="235" y="536" type="curve" smooth="yes"/>
	  <point x="128" y="536"/>
	  <point x="27" y="469"/>
	  <point x="27" y="392" type="curve" smooth="yes"/>
	  <point x="27" y="308"/>
	  <point x="93" y="260"/>
	  <point x="181" y="260" type="curve" smooth="yes"/>
	  <point x="256" y="260"/>
	  <point x="310" y="322"/>
	  <point x="323" y="382" type="curve"/>
	  <point x="357" y="379"/>
	  <point x="370" y="310"/>
	  <point x="370" y="267" type="curve"/>
	  <point x="354" y="199" type="line"/>
	  <point x="314" y="228"/>
	  <point x="260" y="244"/>
	  <point x="195" y="244" type="curve" smooth="yes"/>
	  <point x="116" y="244"/>
	  <point x="21" y="187"/>
	  <point x="21" y="111" type="curve" smooth="yes"/>
	  <point x="21" y="29"/>
	  <point x="96" y="-10"/>
	  <point x="181" y="-10" type="curve" smooth="yes"/>
	</contour>
	<contour>
	  <point x="409" y="-132" type="line"/>
	  <point x="409" y="-7" type="line"/>
	  <point x="294" y="-7" type="line"/>
	  <point x="294" y="-132" type="line"/>
	</contour>
	<contour>
	  <point x="160" y="95"/>
	  <point x="141" y="105"/>
	  <point x="141" y="125" type="curve" smooth="yes"/>
	  <point x="141" y="143"/>
	  <point x="162" y="151"/>
	  <point x="203" y="151" type="curve" smooth="yes"/>
	  <point x="232" y="151"/>
	  <point x="256" y="143"/>
	  <point x="277" y="126" type="curve"/>
	  <point x="262" y="105"/>
	  <point x="235" y="95"/>
	  <point x="195" y="95" type="curve" smooth="yes"/>
	</contour>
	<contour>
	  <point x="148" y="350"/>
	  <point x="134" y="364"/>
	  <point x="134" y="392" type="curve" smooth="yes"/>
	  <point x="134" y="421"/>
	  <point x="148" y="435"/>
	  <point x="175" y="435" type="curve" smooth="yes"/>
	  <point x="202" y="435"/>
	  <point x="216" y="421"/>
	  <point x="216" y="392" type="curve" smooth="yes"/>
	  <point x="216" y="364"/>
	  <point x="202" y="350"/>
	  <point x="175" y="350" type="curve" smooth="yes"/>
	</contour>
	<contour>
	  <point x="914" y="190"/>
	  <point x="899" y="207"/>
	  <point x="899" y="239" type="curve" smooth="yes"/>
	  <point x="899" y="270"/>
	  <point x="914" y="286"/>
	  <point x="946" y="286" type="curve" smooth="yes"/>
	  <point x="979" y="286"/>
	  <point x="995" y="272"/>
	  <point x="995" y="242" type="curve" smooth="yes"/>
	  <point x="995" y="207"/>
	  <point x="979" y="190"/>
	  <point x="944" y="190" type="curve" smooth="yes"/>
	</contour>
  </outline>
</glyph>
<glyph name="U0C16_U0C46" format="1">
  <advance width="783"/>
  <outline>
	<contour>
	  <point x="252" y="-10"/>
	  <point x="324" y="26"/>
	  <point x="356" y="57" type="curve"/>
	  <point x="411" y="4"/>
	  <point x="414" y="-1"/>
	  <point x="504" y="-1" type="curve" smooth="yes"/>
	  <point x="646" y="-1"/>
	  <point x="755" y="114"/>
	  <point x="755" y="258" type="curve" smooth="yes"/>
	  <point x="755" y="342"/>
	  <point x="724" y="424"/>
	  <point x="668" y="465" type="curve"/>
	  <point x="706" y="490"/>
	  <point x="729" y="532"/>
	  <point x="729" y="574" type="curve" smooth="yes"/>
	  <point x="729" y="651"/>
	  <point x="686" y="690"/>
	  <point x="601" y="690" type="curve" smooth="yes"/>
	  <point x="193" y="690" type="line"/>
	  <point x="193" y="596" type="line"/>
	  <point x="573" y="596" type="line" smooth="yes"/>
	  <point x="606" y="596"/>
	  <point x="623" y="582"/>
	  <point x="623" y="553" type="curve" smooth="yes"/>
	  <point x="623" y="525"/>
	  <point x="602" y="511"/>
	  <point x="560" y="511" type="curve" smooth="yes"/>
	  <point x="491" y="511" type="line"/>
	  <point x="491" y="430" type="line"/>
	  <point x="504" y="430" type="line"/>
	  <point x="606" y="415"/>
	  <point x="658" y="351"/>
	  <point x="658" y="256" type="curve" smooth="yes"/>
	  <point x="658" y="172"/>
	  <point x="594" y="99"/>
	  <point x="508" y="99" type="curve" smooth="yes"/>
	  <point x="475" y="99"/>
	  <point x="434" y="118"/>
	  <point x="431" y="148" type="curve"/>
	  <point x="454" y="171"/>
	  <point x="473" y="239"/>
	  <point x="473" y="280" type="curve" smooth="yes"/>
	  <point x="473" y="440"/>
	  <point x="378" y="536"/>
	  <point x="235" y="536" type="curve" smooth="yes"/>
	  <point x="128" y="536"/>
	  <point x="27" y="469"/>
	  <point x="27" y="392" type="curve" smooth="yes"/>
	  <point x="27" y="308"/>
	  <point x="93" y="260"/>
	  <point x="181" y="260" type="curve" smooth="yes"/>
	  <point x="256" y="260"/>
	  <point x="310" y="322"/>
	  <point x="323" y="382" type="curve"/>
	  <point x="357" y="379"/>
	  <point x="370" y="310"/>
	  <point x="370" y="267" type="curve"/>
	  <point x="354" y="199" type="line"/>
	  <point x="314" y="228"/>
	  <point x="260" y="244"/>
	  <point x="195" y="244" type="curve" smooth="yes"/>
	  <point x="116" y="244"/>
	  <point x="21" y="187"/>
	  <point x="21" y="111" type="curve" smooth="yes"/>
	  <point x="21" y="29"/>
	  <point x="96" y="-10"/>
	  <point x="181" y="-10" type="curve" smooth="yes"/>
	</contour>
	<contour>
	  <point x="409" y="-133" type="line"/>
	  <point x="409" y="-7" type="line"/>
	  <point x="294" y="-7" type="line"/>
	  <point x="294" y="-133" type="line"/>
	</contour>
	<contour>
	  <point x="160" y="95"/>
	  <point x="141" y="105"/>
	  <point x="141" y="125" type="curve" smooth="yes"/>
	  <point x="141" y="143"/>
	  <point x="162" y="151"/>
	  <point x="203" y="151" type="curve" smooth="yes"/>
	  <point x="232" y="151"/>
	  <point x="256" y="143"/>
	  <point x="277" y="126" type="curve"/>
	  <point x="262" y="105"/>
	  <point x="235" y="95"/>
	  <point x="195" y="95" type="curve" smooth="yes"/>
	</contour>
	<contour>
	  <point x="148" y="350"/>
	  <point x="134" y="364"/>
	  <point x="134" y="392" type="curve" smooth="yes"/>
	  <point x="134" y="421"/>
	  <point x="148" y="435"/>
	  <point x="175" y="435" type="curve" smooth="yes"/>
	  <point x="202" y="435"/>
	  <point x="216" y="421"/>
	  <point x="216" y="392" type="curve" smooth="yes"/>
	  <point x="216" y="364"/>
	  <point x="202" y="350"/>
	  <point x="175" y="350" type="curve" smooth="yes"/>
	</contour>
  </outline>
</glyph>
<glyph name="U0C16_U0C48" format="1">
  <advance width="787"/>
  <outline>
	<contour>
	  <point x="269" y="-10"/>
	  <point x="342" y="27"/>
	  <point x="372" y="57" type="curve"/>
	  <point x="428" y="4"/>
	  <point x="431" y="-1"/>
	  <point x="522" y="-1" type="curve" smooth="yes"/>
	  <point x="663" y="-1"/>
	  <point x="771" y="114"/>
	  <point x="771" y="258" type="curve" smooth="yes"/>
	  <point x="771" y="344"/>
	  <point x="740" y="420"/>
	  <point x="686" y="465" type="curve"/>
	  <point x="720" y="498"/>
	  <point x="746" y="527"/>
	  <point x="746" y="574" type="curve" smooth="yes"/>
	  <point x="746" y="651"/>
	  <point x="703" y="690"/>
	  <point x="617" y="690" type="curve" smooth="yes"/>
	  <point x="210" y="690" type="line"/>
	  <point x="210" y="596" type="line"/>
	  <point x="591" y="596" type="line" smooth="yes"/>
	  <point x="623" y="596"/>
	  <point x="640" y="582"/>
	  <point x="640" y="553" type="curve" smooth="yes"/>
	  <point x="640" y="525"/>
	  <point x="619" y="511"/>
	  <point x="577" y="511" type="curve" smooth="yes"/>
	  <point x="507" y="511" type="line"/>
	  <point x="507" y="430" type="line"/>
	  <point x="521" y="430" type="line"/>
	  <point x="624" y="415"/>
	  <point x="675" y="351"/>
	  <point x="675" y="256" type="curve" smooth="yes"/>
	  <point x="675" y="173"/>
	  <point x="611" y="99"/>
	  <point x="526" y="99" type="curve" smooth="yes"/>
	  <point x="490" y="99"/>
	  <point x="454" y="119"/>
	  <point x="448" y="148" type="curve"/>
	  <point x="470" y="171"/>
	  <point x="490" y="239"/>
	  <point x="490" y="280" type="curve" smooth="yes"/>
	  <point x="490" y="440"/>
	  <point x="395" y="536"/>
	  <point x="252" y="536" type="curve" smooth="yes"/>
	  <point x="146" y="536"/>
	  <point x="43" y="468"/>
	  <point x="43" y="392" type="curve" smooth="yes"/>
	  <point x="43" y="307"/>
	  <point x="111" y="260"/>
	  <point x="199" y="260" type="curve" smooth="yes"/>
	  <point x="273" y="260"/>
	  <point x="327" y="323"/>
	  <point x="340" y="382" type="curve"/>
	  <point x="373" y="379"/>
	  <point x="388" y="309"/>
	  <point x="388" y="267" type="curve"/>
	  <point x="371" y="199" type="line"/>
	  <point x="330" y="228"/>
	  <point x="277" y="244"/>
	  <point x="211" y="244" type="curve" smooth="yes"/>
	  <point x="132" y="244"/>
	  <point x="38" y="187"/>
	  <point x="38" y="111" type="curve" smooth="yes"/>
	  <point x="38" y="29"/>
	  <point x="113" y="-10"/>
	  <point x="199" y="-10" type="curve" smooth="yes"/>
	</contour>
	<contour>
	  <point x="142" y="-197"/>
	  <point x="116" y="-184"/>
	  <point x="116" y="-164" type="curve" smooth="yes"/>
	  <point x="116" y="-143"/>
	  <point x="127" y="-133"/>
	  <point x="150" y="-133" type="curve" smooth="yes"/>
	  <point x="169" y="-133"/>
	  <point x="179" y="-143"/>
	  <point x="179" y="-164" type="curve" smooth="yes"/>
	  <point x="179" y="-186"/>
	  <point x="172" y="-197"/>
	  <point x="160" y="-197" type="curve" smooth="yes"/>
	</contour>
	<contour>
	  <point x="759" y="-300" type="line"/>
	  <point x="759" y="-203" type="line"/>
	  <point x="265" y="-203" type="line"/>
	  <point x="272" y="-193"/>
	  <point x="274" y="-176"/>
	  <point x="274" y="-153" type="curve" smooth="yes"/>
	  <point x="274" y="-91"/>
	  <point x="221" y="-45"/>
	  <point x="160" y="-45" type="curve" smooth="yes"/>
	  <point x="94" y="-45"/>
	  <point x="24" y="-100"/>
	  <point x="24" y="-164" type="curve" smooth="yes"/>
	  <point x="24" y="-242"/>
	  <point x="95" y="-300"/>
	  <point x="172" y="-300" type="curve" smooth="yes"/>
	</contour>
	<contour>
	  <point x="427" y="-133" type="line"/>
	  <point x="427" y="-7" type="line"/>
	  <point x="312" y="-7" type="line"/>
	  <point x="312" y="-133" type="line"/>
	</contour>
	<contour>
	  <point x="176" y="95"/>
	  <point x="158" y="105"/>
	  <point x="158" y="125" type="curve" smooth="yes"/>
	  <point x="158" y="143"/>
	  <point x="179" y="151"/>
	  <point x="220" y="151" type="curve" smooth="yes"/>
	  <point x="249" y="151"/>
	  <point x="274" y="143"/>
	  <point x="294" y="126" type="curve"/>
	  <point x="279" y="105"/>
	  <point x="252" y="95"/>
	  <point x="211" y="95" type="curve" smooth="yes"/>
	</contour>
	<contour>
	  <point x="165" y="350"/>
	  <point x="151" y="364"/>
	  <point x="151" y="392" type="curve" smooth="yes"/>
	  <point x="151" y="421"/>
	  <point x="165" y="435"/>
	  <point x="193" y="435" type="curve" smooth="yes"/>
	  <point x="220" y="435"/>
	  <point x="232" y="421"/>
	  <point x="232" y="392" type="curve" smooth="yes"/>
	  <point x="232" y="364"/>
	  <point x="220" y="350"/>
	  <point x="193" y="350" type="curve" smooth="yes"/>
	</contour>
  </outline>
</glyph>
<glyph name="U0C16_U0C4D_U0C30" format="1">
  <advance width="757"/>
  <outline>
	<contour>
	  <point x="238" y="-10"/>
	  <point x="314" y="26"/>
	  <point x="343" y="57" type="curve"/>
	  <point x="399" y="4"/>
	  <point x="403" y="-1"/>
	  <point x="493" y="-1" type="curve" smooth="yes"/>
	  <point x="635" y="-1"/>
	  <point x="742" y="114"/>
	  <point x="742" y="258" type="curve" smooth="yes"/>
	  <point x="742" y="422"/>
	  <point x="658" y="504"/>
	  <point x="480" y="504" type="curve"/>
	  <point x="480" y="392" type="line"/>
	  <point x="517" y="396" type="line"/>
	  <point x="589" y="396"/>
	  <point x="630" y="328"/>
	  <point x="630" y="255" type="curve" smooth="yes"/>
	  <point x="630" y="178"/>
	  <point x="572" y="101"/>
	  <point x="496" y="101" type="curve" smooth="yes"/>
	  <point x="466" y="101"/>
	  <point x="421" y="121"/>
	  <point x="419" y="148" type="curve"/>
	  <point x="441" y="171"/>
	  <point x="462" y="240"/>
	  <point x="462" y="280" type="curve" smooth="yes"/>
	  <point x="462" y="438"/>
	  <point x="366" y="536"/>
	  <point x="224" y="536" type="curve" smooth="yes"/>
	  <point x="117" y="536"/>
	  <point x="15" y="469"/>
	  <point x="15" y="392" type="curve" smooth="yes"/>
	  <point x="15" y="306"/>
	  <point x="80" y="260"/>
	  <point x="169" y="260" type="curve" smooth="yes"/>
	  <point x="244" y="260"/>
	  <point x="298" y="323"/>
	  <point x="311" y="382" type="curve"/>
	  <point x="345" y="379"/>
	  <point x="357" y="310"/>
	  <point x="357" y="267" type="curve"/>
	  <point x="342" y="199" type="line"/>
	  <point x="301" y="228"/>
	  <point x="249" y="244"/>
	  <point x="183" y="244" type="curve" smooth="yes"/>
	  <point x="104" y="244"/>
	  <point x="10" y="187"/>
	  <point x="10" y="111" type="curve" smooth="yes"/>
	  <point x="10" y="29"/>
	  <point x="85" y="-10"/>
	  <point x="169" y="-10" type="curve" smooth="yes"/>
	</contour>
	<contour>
	  <point x="528" y="-259"/>
	  <point x="678" y="-167"/>
	  <point x="724" y="-18" type="curve"/>
	  <point x="617" y="-18" type="line"/>
	  <point x="580" y="-103"/>
	  <point x="474" y="-171"/>
	  <point x="356" y="-171" type="curve" smooth="yes"/>
	  <point x="236" y="-171"/>
	  <point x="126" y="-103"/>
	  <point x="92" y="-18" type="curve"/>
	  <point x="-15" y="-18" type="line"/>
	  <point x="30" y="-160"/>
	  <point x="176" y="-259"/>
	  <point x="349" y="-259" type="curve" smooth="yes"/>
	</contour>
	<contour>
	  <point x="398" y="-134" type="line"/>
	  <point x="398" y="-7" type="line"/>
	  <point x="281" y="-7" type="line"/>
	  <point x="281" y="-134" type="line"/>
	</contour>
	<contour>
	  <point x="147" y="95"/>
	  <point x="129" y="105"/>
	  <point x="129" y="125" type="curve" smooth="yes"/>
	  <point x="129" y="143"/>
	  <point x="150" y="151"/>
	  <point x="190" y="151" type="curve" smooth="yes"/>
	  <point x="220" y="151"/>
	  <point x="244" y="143"/>
	  <point x="265" y="126" type="curve"/>
	  <point x="251" y="105"/>
	  <point x="224" y="95"/>
	  <point x="183" y="95" type="curve" smooth="yes"/>
	</contour>
	<contour>
	  <point x="137" y="350"/>
	  <point x="123" y="364"/>
	  <point x="123" y="392" type="curve" smooth="yes"/>
	  <point x="123" y="421"/>
	  <point x="137" y="435"/>
	  <point x="164" y="435" type="curve" smooth="yes"/>
	  <point x="190" y="435"/>
	  <point x="203" y="421"/>
	  <point x="203" y="392" type="curve" smooth="yes"/>
	  <point x="203" y="364"/>
	  <point x="190" y="350"/>
	  <point x="164" y="350" type="curve" smooth="yes"/>
	</contour>
  </outline>
</glyph>
<glyph name="U0C16_U0C4D_U0C30_U0C3E" format="1">
  <advance width="1137"/>
  <outline>
	<contour>
	  <point x="246" y="-10"/>
	  <point x="319" y="26"/>
	  <point x="350" y="57" type="curve"/>
	  <point x="406" y="4"/>
	  <point x="409" y="-1"/>
	  <point x="498" y="-1" type="curve" smooth="yes"/>
	  <point x="640" y="-1"/>
	  <point x="749" y="114"/>
	  <point x="749" y="258" type="curve" smooth="yes"/>
	  <point x="749" y="321"/>
	  <point x="734" y="377"/>
	  <point x="703" y="421" type="curve"/>
	  <point x="791" y="421" type="line" smooth="yes"/>
	  <point x="901" y="421"/>
	  <point x="959" y="427"/>
	  <point x="998" y="374" type="curve"/>
	  <point x="945" y="378" type="line"/>
	  <point x="842" y="378"/>
	  <point x="781" y="319"/>
	  <point x="781" y="221" type="curve" smooth="yes"/>
	  <point x="781" y="146"/>
	  <point x="849" y="81"/>
	  <point x="925" y="81" type="curve" smooth="yes"/>
	  <point x="1033" y="81"/>
	  <point x="1121" y="184"/>
	  <point x="1121" y="291" type="curve" smooth="yes"/>
	  <point x="1121" y="400"/>
	  <point x="1078" y="472"/>
	  <point x="990" y="507" type="curve" smooth="yes"/>
	  <point x="969" y="515"/>
	  <point x="897" y="519"/>
	  <point x="776" y="519" type="curve" smooth="yes"/>
	  <point x="486" y="519" type="line"/>
	  <point x="486" y="421" type="line"/>
	  <point x="543" y="421" type="line"/>
	  <point x="615" y="402"/>
	  <point x="652" y="327"/>
	  <point x="652" y="256" type="curve" smooth="yes"/>
	  <point x="652" y="172"/>
	  <point x="589" y="99"/>
	  <point x="503" y="99" type="curve" smooth="yes"/>
	  <point x="470" y="99"/>
	  <point x="429" y="118"/>
	  <point x="426" y="148" type="curve"/>
	  <point x="448" y="171"/>
	  <point x="468" y="239"/>
	  <point x="468" y="280" type="curve" smooth="yes"/>
	  <point x="468" y="440"/>
	  <point x="373" y="536"/>
	  <point x="230" y="536" type="curve" smooth="yes"/>
	  <point x="123" y="536"/>
	  <point x="21" y="469"/>
	  <point x="21" y="392" type="curve" smooth="yes"/>
	  <point x="21" y="308"/>
	  <point x="87" y="260"/>
	  <point x="175" y="260" type="curve" smooth="yes"/>
	  <point x="251" y="260"/>
	  <point x="305" y="322"/>
	  <point x="318" y="382" type="curve"/>
	  <point x="351" y="379"/>
	  <point x="364" y="310"/>
	  <point x="364" y="267" type="curve"/>
	  <point x="349" y="199" type="line"/>
	  <point x="308" y="228"/>
	  <point x="255" y="244"/>
	  <point x="189" y="244" type="curve" smooth="yes"/>
	  <point x="110" y="244"/>
	  <point x="15" y="187"/>
	  <point x="15" y="111" type="curve" smooth="yes"/>
	  <point x="15" y="29"/>
	  <point x="90" y="-10"/>
	  <point x="175" y="-10" type="curve" smooth="yes"/>
	</contour>
	<contour>
	  <point x="528" y="-259"/>
	  <point x="678" y="-167"/>
	  <point x="724" y="-18" type="curve"/>
	  <point x="617" y="-18" type="line"/>
	  <point x="580" y="-103"/>
	  <point x="474" y="-171"/>
	  <point x="356" y="-171" type="curve" smooth="yes"/>
	  <point x="236" y="-171"/>
	  <point x="126" y="-103"/>
	  <point x="92" y="-18" type="curve"/>
	  <point x="-15" y="-18" type="line"/>
	  <point x="30" y="-160"/>
	  <point x="176" y="-259"/>
	  <point x="349" y="-259" type="curve" smooth="yes"/>
	</contour>
	<contour>
	  <point x="403" y="-132" type="line"/>
	  <point x="403" y="-7" type="line"/>
	  <point x="288" y="-7" type="line"/>
	  <point x="288" y="-132" type="line"/>
	</contour>
	<contour>
	  <point x="154" y="95"/>
	  <point x="136" y="105"/>
	  <point x="136" y="125" type="curve" smooth="yes"/>
	  <point x="136" y="143"/>
	  <point x="157" y="151"/>
	  <point x="197" y="151" type="curve" smooth="yes"/>
	  <point x="227" y="151"/>
	  <point x="251" y="143"/>
	  <point x="272" y="126" type="curve"/>
	  <point x="256" y="105"/>
	  <point x="230" y="95"/>
	  <point x="189" y="95" type="curve" smooth="yes"/>
	</contour>
	<contour>
	  <point x="143" y="350"/>
	  <point x="129" y="364"/>
	  <point x="129" y="392" type="curve" smooth="yes"/>
	  <point x="129" y="421"/>
	  <point x="143" y="435"/>
	  <point x="169" y="435" type="curve" smooth="yes"/>
	  <point x="196" y="435"/>
	  <point x="210" y="421"/>
	  <point x="210" y="392" type="curve" smooth="yes"/>
	  <point x="210" y="364"/>
	  <point x="196" y="350"/>
	  <point x="169" y="350" type="curve" smooth="yes"/>
	</contour>
	<contour>
	  <point x="909" y="190"/>
	  <point x="893" y="207"/>
	  <point x="893" y="239" type="curve" smooth="yes"/>
	  <point x="893" y="270"/>
	  <point x="909" y="286"/>
	  <point x="941" y="286" type="curve" smooth="yes"/>
	  <point x="973" y="286"/>
	  <point x="990" y="272"/>
	  <point x="990" y="242" type="curve" smooth="yes"/>
	  <point x="990" y="207"/>
	  <point x="973" y="190"/>
	  <point x="938" y="190" type="curve" smooth="yes"/>
	</contour>
  </outline>
</glyph>
<glyph name="U0C16_U0C4D_U0C30_U0C4C" format="1">
  <advance width="1179"/>
  <outline>
	<contour>
	  <point x="254" y="-10"/>
	  <point x="327" y="26"/>
	  <point x="358" y="57" type="curve"/>
	  <point x="414" y="4"/>
	  <point x="417" y="-1"/>
	  <point x="507" y="-1" type="curve" smooth="yes"/>
	  <point x="649" y="-1"/>
	  <point x="757" y="114"/>
	  <point x="757" y="258" type="curve" smooth="yes"/>
	  <point x="757" y="340"/>
	  <point x="730" y="407"/>
	  <point x="682" y="455" type="curve"/>
	  <point x="707" y="497"/>
	  <point x="743" y="528"/>
	  <point x="711" y="595" type="curve"/>
	  <point x="935" y="595" type="line" smooth="yes"/>
	  <point x="1002" y="595"/>
	  <point x="1050" y="544"/>
	  <point x="1050" y="475" type="curve"/>
	  <point x="1018" y="493"/>
	  <point x="1009" y="504"/>
	  <point x="952" y="504" type="curve" smooth="yes"/>
	  <point x="863" y="504"/>
	  <point x="790" y="450"/>
	  <point x="790" y="363" type="curve" smooth="yes"/>
	  <point x="790" y="266"/>
	  <point x="849" y="207"/>
	  <point x="945" y="207" type="curve" smooth="yes"/>
	  <point x="1071" y="207"/>
	  <point x="1163" y="330"/>
	  <point x="1163" y="444" type="curve" smooth="yes"/>
	  <point x="1163" y="576"/>
	  <point x="1066" y="699"/>
	  <point x="942" y="699" type="curve" smooth="yes"/>
	  <point x="357" y="699" type="line"/>
	  <point x="357" y="587" type="line"/>
	  <point x="553" y="587" type="line" smooth="yes"/>
	  <point x="574" y="587"/>
	  <point x="584" y="577"/>
	  <point x="584" y="556" type="curve" smooth="yes"/>
	  <point x="584" y="523"/>
	  <point x="573" y="511"/>
	  <point x="545" y="511" type="curve" smooth="yes"/>
	  <point x="494" y="511" type="line"/>
	  <point x="494" y="427" type="line"/>
	  <point x="525" y="427" type="line"/>
	  <point x="615" y="409"/>
	  <point x="661" y="343"/>
	  <point x="661" y="256" type="curve" smooth="yes"/>
	  <point x="661" y="172"/>
	  <point x="597" y="99"/>
	  <point x="511" y="99" type="curve" smooth="yes"/>
	  <point x="478" y="99"/>
	  <point x="437" y="118"/>
	  <point x="434" y="148" type="curve"/>
	  <point x="456" y="171"/>
	  <point x="476" y="239"/>
	  <point x="476" y="280" type="curve" smooth="yes"/>
	  <point x="476" y="440"/>
	  <point x="381" y="536"/>
	  <point x="238" y="536" type="curve" smooth="yes"/>
	  <point x="131" y="536"/>
	  <point x="29" y="469"/>
	  <point x="29" y="392" type="curve" smooth="yes"/>
	  <point x="29" y="308"/>
	  <point x="95" y="260"/>
	  <point x="183" y="260" type="curve" smooth="yes"/>
	  <point x="259" y="260"/>
	  <point x="313" y="322"/>
	  <point x="326" y="382" type="curve"/>
	  <point x="359" y="379"/>
	  <point x="372" y="310"/>
	  <point x="372" y="267" type="curve"/>
	  <point x="357" y="199" type="line"/>
	  <point x="316" y="228"/>
	  <point x="263" y="244"/>
	  <point x="197" y="244" type="curve" smooth="yes"/>
	  <point x="118" y="244"/>
	  <point x="24" y="187"/>
	  <point x="24" y="111" type="curve" smooth="yes"/>
	  <point x="24" y="29"/>
	  <point x="99" y="-10"/>
	  <point x="183" y="-10" type="curve" smooth="yes"/>
	</contour>
	<contour>
	  <point x="536" y="-259"/>
	  <point x="687" y="-167"/>
	  <point x="732" y="-18" type="curve"/>
	  <point x="626" y="-18" type="line"/>
	  <point x="589" y="-103"/>
	  <point x="482" y="-171"/>
	  <point x="364" y="-171" type="curve" smooth="yes"/>
	  <point x="244" y="-171"/>
	  <point x="135" y="-103"/>
	  <point x="101" y="-18" type="curve"/>
	  <point x="-7" y="-18" type="line"/>
	  <point x="38" y="-160"/>
	  <point x="185" y="-259"/>
	  <point x="357" y="-259" type="curve" smooth="yes"/>
	</contour>
	<contour>
	  <point x="412" y="-130" type="line"/>
	  <point x="412" y="-7" type="line"/>
	  <point x="297" y="-7" type="line"/>
	  <point x="297" y="-130" type="line"/>
	</contour>
	<contour>
	  <point x="162" y="95"/>
	  <point x="144" y="105"/>
	  <point x="144" y="125" type="curve" smooth="yes"/>
	  <point x="144" y="143"/>
	  <point x="165" y="151"/>
	  <point x="206" y="151" type="curve" smooth="yes"/>
	  <point x="235" y="151"/>
	  <point x="259" y="143"/>
	  <point x="280" y="126" type="curve"/>
	  <point x="265" y="105"/>
	  <point x="238" y="95"/>
	  <point x="197" y="95" type="curve" smooth="yes"/>
	</contour>
	<contour>
	  <point x="151" y="350"/>
	  <point x="137" y="364"/>
	  <point x="137" y="392" type="curve" smooth="yes"/>
	  <point x="137" y="421"/>
	  <point x="151" y="435"/>
	  <point x="178" y="435" type="curve" smooth="yes"/>
	  <point x="204" y="435"/>
	  <point x="218" y="421"/>
	  <point x="218" y="392" type="curve" smooth="yes"/>
	  <point x="218" y="364"/>
	  <point x="204" y="350"/>
	  <point x="178" y="350" type="curve" smooth="yes"/>
	</contour>
	<contour>
	  <point x="929" y="307"/>
	  <point x="895" y="325"/>
	  <point x="895" y="353" type="curve" smooth="yes"/>
	  <point x="895" y="389"/>
	  <point x="911" y="416"/>
	  <point x="944" y="419" type="curve" smooth="yes"/>
	  <point x="974" y="419"/>
	  <point x="1007" y="400"/>
	  <point x="1007" y="371" type="curve" smooth="yes"/>
	  <point x="1007" y="340"/>
	  <point x="990" y="307"/>
	  <point x="960" y="307" type="curve" smooth="yes"/>
	</contour>
  </outline>
</glyph>
<glyph name="U0C17.base" format="1">
  <advance width="588"/>
  <outline>
	<contour>
	  <point x="220" y="84" type="line"/>
	  <point x="162" y="133"/>
	  <point x="139" y="175"/>
	  <point x="139" y="249" type="curve" smooth="yes"/>
	  <point x="139" y="339"/>
	  <point x="202" y="407"/>
	  <point x="295" y="407" type="curve" smooth="yes"/>
	  <point x="389" y="407"/>
	  <point x="452" y="339"/>
	  <point x="452" y="249" type="curve" smooth="yes"/>
	  <point x="452" y="175"/>
	  <point x="428" y="133"/>
	  <point x="371" y="84" type="curve"/>
	  <point x="437" y="-6" type="line"/>
	  <point x="525" y="55"/>
	  <point x="566" y="137"/>
	  <point x="566" y="234" type="curve" smooth="yes"/>
	  <point x="566" y="407"/>
	  <point x="445" y="518"/>
	  <point x="295" y="518" type="curve" smooth="yes"/>
	  <point x="146" y="518"/>
	  <point x="25" y="407"/>
	  <point x="25" y="234" type="curve" smooth="yes"/>
	  <point x="25" y="137"/>
	  <point x="66" y="55"/>
	  <point x="154" y="-6" type="curve"/>
	</contour>
  </outline>
</glyph>
<glyph name="U0C17_U0C3E" format="1">
  <advance width="948"/>
  <outline>
	<contour>
	  <point x="150" y="-10" type="line"/>
	  <point x="190" y="31"/>
	  <point x="210" y="57"/>
	  <point x="214" y="70" type="curve"/>
	  <point x="214" y="74" type="line"/>
	  <point x="157" y="124"/>
	  <point x="143" y="125"/>
	  <point x="143" y="210" type="curve" smooth="yes"/>
	  <point x="143" y="314"/>
	  <point x="202" y="402"/>
	  <point x="304" y="402" type="curve" smooth="yes"/>
	  <point x="394" y="402"/>
	  <point x="452" y="328"/>
	  <point x="452" y="234" type="curve" smooth="yes"/>
	  <point x="452" y="179"/>
	  <point x="424" y="131"/>
	  <point x="373" y="92" type="curve"/>
	  <point x="434" y="-6" type="line"/>
	  <point x="504" y="17"/>
	  <point x="564" y="137"/>
	  <point x="564" y="230" type="curve" smooth="yes"/>
	  <point x="564" y="292"/>
	  <point x="526" y="388"/>
	  <point x="486" y="428" type="curve"/>
	  <point x="701" y="428" type="line" smooth="yes"/>
	  <point x="743" y="428"/>
	  <point x="774" y="416"/>
	  <point x="792" y="391" type="curve"/>
	  <point x="788" y="392"/>
	  <point x="780" y="393"/>
	  <point x="769" y="393" type="curve" smooth="yes"/>
	  <point x="681" y="393"/>
	  <point x="595" y="332"/>
	  <point x="595" y="244" type="curve" smooth="yes"/>
	  <point x="595" y="157"/>
	  <point x="663" y="88"/>
	  <point x="750" y="88" type="curve" smooth="yes"/>
	  <point x="856" y="88"/>
	  <point x="920" y="188"/>
	  <point x="920" y="295" type="curve" smooth="yes"/>
	  <point x="920" y="437"/>
	  <point x="825" y="533"/>
	  <point x="678" y="533" type="curve" smooth="yes"/>
	  <point x="21" y="533" type="line"/>
	  <point x="21" y="428" type="line"/>
	  <point x="111" y="428" type="line"/>
	  <point x="55" y="372"/>
	  <point x="21" y="306"/>
	  <point x="21" y="227" type="curve" smooth="yes"/>
	  <point x="21" y="101"/>
	  <point x="62" y="22"/>
	  <point x="144" y="-10" type="curve"/>
	</contour>
	<contour>
	  <point x="724" y="196"/>
	  <point x="701" y="220"/>
	  <point x="701" y="251" type="curve" smooth="yes"/>
	  <point x="701" y="277"/>
	  <point x="728" y="304"/>
	  <point x="755" y="304" type="curve" smooth="yes"/>
	  <point x="781" y="304"/>
	  <point x="808" y="278"/>
	  <point x="808" y="251" type="curve" smooth="yes"/>
	  <point x="808" y="224"/>
	  <point x="782" y="196"/>
	  <point x="755" y="196" type="curve" smooth="yes"/>
	</contour>
  </outline>
</glyph>
